<svg xmlns="http://www.w3.org/2000/svg" viewBox="0 0 300 300"><defs><style>.a{fill-opacity:0.05;stroke:#e6e6e6;stroke-miterlimit:10;}.b{fill:#ccc;}</style></defs><path class="a" d="M200.907,101a100,100,0,1,1-29.289-70.711A99.691,99.691,0,0,1,200.907,101Z"/><path class="a" d="M298.618,197.711A100,100,0,1,1,269.328,127,99.683,99.683,0,0,1,298.618,197.711Z"/><path class="b" d="M70.73,101V90.146H67.022V88.4H76.58v1.746H72.872V101Z"/><path class="b" d="M77.21,101V91.928h1.927l.179,1.692a4.145,4.145,0,0,1,.81-1.017,3.293,3.293,0,0,1,1.135-.657,4.418,4.418,0,0,1,1.475-.234V93.98h-.774a3.815,3.815,0,0,0-1.025.135,2.1,2.1,0,0,0-.837.441,1.944,1.944,0,0,0-.54.828,3.775,3.775,0,0,0-.19,1.278V101Z"/><path class="b" d="M87.381,101.216a4.06,4.06,0,0,1-1.846-.378,2.552,2.552,0,0,1-1.106-1.008,2.735,2.735,0,0,1-.361-1.386,2.5,2.5,0,0,1,.442-1.476,2.842,2.842,0,0,1,1.3-.981,5.718,5.718,0,0,1,2.142-.351h2.286a3.017,3.017,0,0,0-.207-1.2,1.5,1.5,0,0,0-.621-.72,2.114,2.114,0,0,0-1.08-.243,2.248,2.248,0,0,0-1.26.342,1.485,1.485,0,0,0-.647,1.026H84.3a3.228,3.228,0,0,1,.656-1.674,3.551,3.551,0,0,1,1.44-1.08,4.907,4.907,0,0,1,1.935-.378,5.014,5.014,0,0,1,2.2.441A3.166,3.166,0,0,1,91.926,93.4a3.85,3.85,0,0,1,.476,1.98V101H90.549l-.217-1.44a2.726,2.726,0,0,1-.459.657,3.058,3.058,0,0,1-.647.522,3.267,3.267,0,0,1-.82.351A3.8,3.8,0,0,1,87.381,101.216Zm.485-1.71a2.237,2.237,0,0,0,.937-.189,1.942,1.942,0,0,0,.7-.54,2.883,2.883,0,0,0,.46-.792,3.236,3.236,0,0,0,.206-.927v-.036H88.19a2.87,2.87,0,0,0-1.052.162,1.308,1.308,0,0,0-.6.441,1.106,1.106,0,0,0-.2.657,1.133,1.133,0,0,0,.189.666,1.189,1.189,0,0,0,.54.414A2.1,2.1,0,0,0,87.866,99.506Z"/><path class="b" d="M95.858,90.488a1.368,1.368,0,0,1-.981-.369,1.206,1.206,0,0,1-.387-.909,1.171,1.171,0,0,1,.387-.909,1.548,1.548,0,0,1,1.963,0,1.171,1.171,0,0,1,.387.909,1.206,1.206,0,0,1-.387.909A1.367,1.367,0,0,1,95.858,90.488ZM94.778,101V91.928h2.16V101Z"/><path class="b" d="M99.458,101V91.928h1.908l.145,1.512a3.155,3.155,0,0,1,1.187-1.26,3.481,3.481,0,0,1,1.836-.468,3.6,3.6,0,0,1,1.872.459,2.993,2.993,0,0,1,1.189,1.341,5.174,5.174,0,0,1,.414,2.2V101h-2.143V95.924a2.743,2.743,0,0,0-.5-1.782,1.823,1.823,0,0,0-1.494-.612,2.125,2.125,0,0,0-1.151.315,2.22,2.22,0,0,0-.8.891,3.092,3.092,0,0,0-.3,1.422V101Z"/><path class="b" d="M111.5,90.488a1.364,1.364,0,0,1-.981-.369,1.206,1.206,0,0,1-.387-.909,1.171,1.171,0,0,1,.387-.909,1.546,1.546,0,0,1,1.962,0,1.171,1.171,0,0,1,.387.909,1.206,1.206,0,0,1-.387.909A1.364,1.364,0,0,1,111.5,90.488ZM110.42,101V91.928h2.16V101Z"/><path class="b" d="M115.1,101V91.928h1.908l.144,1.512a3.157,3.157,0,0,1,1.188-1.26,3.478,3.478,0,0,1,1.836-.468,3.608,3.608,0,0,1,1.872.459,2.991,2.991,0,0,1,1.188,1.341,5.159,5.159,0,0,1,.414,2.2V101h-2.142V95.924a2.743,2.743,0,0,0-.5-1.782,1.823,1.823,0,0,0-1.494-.612,2.126,2.126,0,0,0-1.152.315,2.218,2.218,0,0,0-.8.891,3.079,3.079,0,0,0-.3,1.422V101Z"/><path class="b" d="M129.788,105.176a7.212,7.212,0,0,1-2.241-.315,3.094,3.094,0,0,1-1.485-.954,2.435,2.435,0,0,1-.522-1.593,2.326,2.326,0,0,1,.278-1.089,3.277,3.277,0,0,1,.837-.99,5.242,5.242,0,0,1,1.441-.8l.971,1.026a2.587,2.587,0,0,0-1.223.747,1.442,1.442,0,0,0-.342.891,1.1,1.1,0,0,0,.3.783,1.856,1.856,0,0,0,.809.477,3.857,3.857,0,0,0,1.162.162,3.349,3.349,0,0,0,1.107-.162,1.6,1.6,0,0,0,.72-.477,1.211,1.211,0,0,0-.118-1.629,2.576,2.576,0,0,0-1.494-.414c-.647-.048-1.209-.114-1.682-.2a7.191,7.191,0,0,1-1.224-.315,4.415,4.415,0,0,1-.864-.414,3.4,3.4,0,0,1-.585-.459v-.414l1.853-1.962,1.6.522-2.107,2.052.559-1.026q.2.126.378.234a2.116,2.116,0,0,0,.477.2,5.015,5.015,0,0,0,.783.153q.486.063,1.26.135a5.822,5.822,0,0,1,1.97.432,2.5,2.5,0,0,1,1.108.909,2.552,2.552,0,0,1,.36,1.395,2.806,2.806,0,0,1-.441,1.5,3.163,3.163,0,0,1-1.341,1.152A5.242,5.242,0,0,1,129.788,105.176Zm0-6.894a4,4,0,0,1-1.953-.45,3.182,3.182,0,0,1-1.251-1.188,3.217,3.217,0,0,1-.433-1.656,3.12,3.12,0,0,1,.442-1.647,3.3,3.3,0,0,1,1.251-1.179,4.422,4.422,0,0,1,3.887,0,3.229,3.229,0,0,1,1.243,1.179,3.168,3.168,0,0,1,.431,1.647,3.139,3.139,0,0,1-1.674,2.844A3.941,3.941,0,0,1,129.788,98.282Zm0-1.674a1.8,1.8,0,0,0,1.241-.414,1.739,1.739,0,0,0,0-2.376,1.8,1.8,0,0,0-1.241-.414,1.878,1.878,0,0,0-1.261.414,1.7,1.7,0,0,0,0,2.376A1.878,1.878,0,0,0,129.788,96.608Zm1.493-3.1-.414-1.584h3.727v1.35Z"/><path class="b" d="M149.685,209.927a6.137,6.137,0,0,1-3.232-.82,5.353,5.353,0,0,1-2.078-2.286,8.384,8.384,0,0,1,0-6.8,5.417,5.417,0,0,1,2.078-2.295,6.094,6.094,0,0,1,3.232-.828A5.8,5.8,0,0,1,153.356,198a4.939,4.939,0,0,1,1.8,3.123H152.78a2.8,2.8,0,0,0-1.025-1.674,3.324,3.324,0,0,0-2.088-.612,3.689,3.689,0,0,0-2.043.549,3.511,3.511,0,0,0-1.314,1.584,6.023,6.023,0,0,0-.459,2.457,5.9,5.9,0,0,0,.459,2.439,3.531,3.531,0,0,0,1.314,1.566,3.7,3.7,0,0,0,2.043.548,3.466,3.466,0,0,0,2.078-.566,2.669,2.669,0,0,0,1.035-1.575h2.376a4.8,4.8,0,0,1-1.8,3A5.874,5.874,0,0,1,149.685,209.927Z"/><path class="b" d="M161.4,209.927a4.6,4.6,0,0,1-2.33-.594,4.185,4.185,0,0,1-1.62-1.674,5.53,5.53,0,0,1,.009-4.969,4.237,4.237,0,0,1,1.629-1.673,4.6,4.6,0,0,1,2.331-.594,4.549,4.549,0,0,1,2.322.594,4.345,4.345,0,0,1,1.629,1.665,5.007,5.007,0,0,1,.6,2.493,4.956,4.956,0,0,1-.612,2.484,4.393,4.393,0,0,1-1.638,1.674A4.55,4.55,0,0,1,161.4,209.927Zm0-1.855a2.167,2.167,0,0,0,1.18-.333,2.371,2.371,0,0,0,.855-.98,3.529,3.529,0,0,0,.324-1.584,3.655,3.655,0,0,0-.316-1.6,2.255,2.255,0,0,0-.845-.971,2.192,2.192,0,0,0-1.162-.325,2.263,2.263,0,0,0-1.187.325,2.286,2.286,0,0,0-.864.971,3.568,3.568,0,0,0-.325,1.6,3.515,3.515,0,0,0,.325,1.584,2.371,2.371,0,0,0,.855.98A2.131,2.131,0,0,0,161.4,208.072Z"/><path class="b" d="M168.08,209.711v-9.072h1.908l.145,1.511a3.159,3.159,0,0,1,1.187-1.259,3.481,3.481,0,0,1,1.836-.468,3.6,3.6,0,0,1,1.872.459,2.993,2.993,0,0,1,1.189,1.341,5.174,5.174,0,0,1,.414,2.2v5.292h-2.143v-5.076a2.741,2.741,0,0,0-.5-1.782,1.824,1.824,0,0,0-1.494-.613,2.125,2.125,0,0,0-1.151.316,2.217,2.217,0,0,0-.8.89,3.1,3.1,0,0,0-.3,1.423v4.842Z"/><path class="b" d="M182.966,209.927a4.1,4.1,0,0,1-2.241-.621,4.255,4.255,0,0,1-1.53-1.693,5.688,5.688,0,0,1,.009-4.9,4.194,4.194,0,0,1,3.817-2.295,3.876,3.876,0,0,1,1.772.387,3.053,3.053,0,0,1,1.215,1.088v-5.147h2.16v12.96h-1.926l-.216-1.332a3.541,3.541,0,0,1-.7.773,3.406,3.406,0,0,1-1,.559A3.943,3.943,0,0,1,182.966,209.927Zm.469-1.872a2.531,2.531,0,0,0,1.377-.369,2.441,2.441,0,0,0,.9-1.017,3.7,3.7,0,0,0,0-2.988,2.435,2.435,0,0,0-.9-1.017,2.7,2.7,0,0,0-2.709-.01,2.389,2.389,0,0,0-.918,1.018,3.339,3.339,0,0,0-.325,1.5,3.271,3.271,0,0,0,.325,1.5,2.476,2.476,0,0,0,2.25,1.377Z"/><path class="b" d="M191.768,199.2a1.368,1.368,0,0,1-.982-.368,1.208,1.208,0,0,1-.387-.909,1.171,1.171,0,0,1,.387-.909,1.548,1.548,0,0,1,1.963,0,1.171,1.171,0,0,1,.387.909,1.208,1.208,0,0,1-.387.909A1.365,1.365,0,0,1,191.768,199.2Zm-1.08,10.513v-9.072h2.16v9.072Z"/><path class="b" d="M199.292,209.711a4.044,4.044,0,0,1-1.594-.288,2.129,2.129,0,0,1-1.044-.954,3.727,3.727,0,0,1-.369-1.8v-4.231H194.72v-1.8h1.565l.252-2.394h1.908v2.394h2.449v1.8h-2.449v4.231a1.241,1.241,0,0,0,.288.944,1.5,1.5,0,0,0,1.008.262h1.116v1.836Z"/><path class="b" d="M204.1,199.2a1.368,1.368,0,0,1-.982-.368,1.208,1.208,0,0,1-.387-.909,1.171,1.171,0,0,1,.387-.909,1.548,1.548,0,0,1,1.963,0,1.171,1.171,0,0,1,.387.909,1.208,1.208,0,0,1-.387.909A1.365,1.365,0,0,1,204.1,199.2Zm-1.08,10.513v-9.072h2.16v9.072Z"/><path class="b" d="M211.909,209.927a4.6,4.6,0,0,1-2.33-.594,4.185,4.185,0,0,1-1.62-1.674,5.53,5.53,0,0,1,.009-4.969,4.237,4.237,0,0,1,1.629-1.673,4.853,4.853,0,0,1,4.653,0,4.345,4.345,0,0,1,1.629,1.665,5.408,5.408,0,0,1-.009,4.977,4.388,4.388,0,0,1-1.639,1.674A4.546,4.546,0,0,1,211.909,209.927Zm0-1.855a2.169,2.169,0,0,0,1.18-.333,2.369,2.369,0,0,0,.854-.98,3.515,3.515,0,0,0,.325-1.584,3.655,3.655,0,0,0-.316-1.6,2.251,2.251,0,0,0-.846-.971,2.186,2.186,0,0,0-1.161-.325,2.226,2.226,0,0,0-2.051,1.3,3.568,3.568,0,0,0-.325,1.6,3.515,3.515,0,0,0,.325,1.584,2.364,2.364,0,0,0,.855.98A2.131,2.131,0,0,0,211.909,208.072Z"/><path class="b" d="M218.587,209.711v-9.072H220.5l.145,1.511a3.159,3.159,0,0,1,1.187-1.259,3.481,3.481,0,0,1,1.836-.468,3.6,3.6,0,0,1,1.872.459,2.993,2.993,0,0,1,1.189,1.341,5.174,5.174,0,0,1,.414,2.2v5.292H225v-5.076a2.741,2.741,0,0,0-.5-1.782A1.824,1.824,0,0,0,223,202.24a2.123,2.123,0,0,0-1.151.316,2.217,2.217,0,0,0-.8.89,3.1,3.1,0,0,0-.3,1.423v4.842Z"/><path class="b" d="M230.629,199.2a1.368,1.368,0,0,1-.982-.368,1.211,1.211,0,0,1-.386-.909,1.173,1.173,0,0,1,.386-.909,1.548,1.548,0,0,1,1.963,0,1.171,1.171,0,0,1,.387.909,1.208,1.208,0,0,1-.387.909A1.364,1.364,0,0,1,230.629,199.2Zm-1.08,10.513v-9.072h2.16v9.072Z"/><path class="b" d="M234.229,209.711v-9.072h1.908l.144,1.511a3.161,3.161,0,0,1,1.188-1.259,3.478,3.478,0,0,1,1.836-.468,3.608,3.608,0,0,1,1.872.459,2.991,2.991,0,0,1,1.188,1.341,5.159,5.159,0,0,1,.414,2.2v5.292h-2.142v-5.076a2.741,2.741,0,0,0-.5-1.782,1.824,1.824,0,0,0-1.494-.613,2.126,2.126,0,0,0-1.152.316,2.215,2.215,0,0,0-.8.89,3.086,3.086,0,0,0-.3,1.423v4.842Z"/><path class="b" d="M248.917,213.887a7.206,7.206,0,0,1-2.241-.316,3.1,3.1,0,0,1-1.486-.953,2.445,2.445,0,0,1-.521-1.594,2.319,2.319,0,0,1,.278-1.088,3.292,3.292,0,0,1,.837-.991,5.267,5.267,0,0,1,1.441-.8l.971,1.026a2.587,2.587,0,0,0-1.223.747,1.442,1.442,0,0,0-.342.891,1.1,1.1,0,0,0,.3.783,1.845,1.845,0,0,0,.809.476,3.823,3.823,0,0,0,1.161.162,3.325,3.325,0,0,0,1.108-.162,1.591,1.591,0,0,0,.72-.476,1.211,1.211,0,0,0-.118-1.629,2.571,2.571,0,0,0-1.494-.414c-.647-.048-1.209-.114-1.682-.2a7.191,7.191,0,0,1-1.224-.315,4.472,4.472,0,0,1-.864-.414,3.454,3.454,0,0,1-.585-.459v-.414l1.853-1.962,1.6.522-2.107,2.051.559-1.025q.2.126.378.233a2.077,2.077,0,0,0,.476.2,5.031,5.031,0,0,0,.784.153q.486.063,1.259.135a5.849,5.849,0,0,1,1.971.431,2.508,2.508,0,0,1,1.108.91,2.547,2.547,0,0,1,.36,1.4,2.82,2.82,0,0,1-.441,1.5,3.161,3.161,0,0,1-1.341,1.151A5.241,5.241,0,0,1,248.917,213.887Zm0-6.894a4,4,0,0,1-1.953-.45,3.177,3.177,0,0,1-1.251-1.189,3.215,3.215,0,0,1-.433-1.656,3.119,3.119,0,0,1,.442-1.646,3.287,3.287,0,0,1,1.251-1.179,4.422,4.422,0,0,1,3.887,0,3.228,3.228,0,0,1,1.243,1.179,3.167,3.167,0,0,1,.431,1.646,3.142,3.142,0,0,1-1.674,2.845A3.941,3.941,0,0,1,248.917,206.993Zm0-1.675a1.8,1.8,0,0,0,1.241-.414,1.739,1.739,0,0,0,0-2.376,1.806,1.806,0,0,0-1.241-.414,1.882,1.882,0,0,0-1.261.414,1.7,1.7,0,0,0,0,2.376A1.871,1.871,0,0,0,248.917,205.318Zm1.493-3.095L250,200.639h3.727v1.349Z"/><path class="b" d="M48.015,154.855V140.671h-4.9v-2.615H56.15v2.615h-4.9v14.184Z"/><path class="b" d="M62.2,155.144a6.1,6.1,0,0,1-3.132-.805,5.841,5.841,0,0,1-2.184-2.232,6.558,6.558,0,0,1-.8-3.275,6.665,6.665,0,0,1,.8-3.325,5.835,5.835,0,0,1,2.2-2.232,6.18,6.18,0,0,1,3.144-.8,6.05,6.05,0,0,1,3.12.8,5.916,5.916,0,0,1,2.172,2.221,7.2,7.2,0,0,1,0,6.611,5.841,5.841,0,0,1-2.184,2.232A6.109,6.109,0,0,1,62.2,155.144Zm0-2.809a2.6,2.6,0,0,0,1.4-.4,2.865,2.865,0,0,0,1.032-1.188,4.323,4.323,0,0,0,.4-1.943,4.429,4.429,0,0,0-.384-1.956,2.828,2.828,0,0,0-1.008-1.177,2.552,2.552,0,0,0-1.392-.4,2.716,2.716,0,0,0-1.44.4,2.759,2.759,0,0,0-1.032,1.177,4.415,4.415,0,0,0-.384,1.956,4.547,4.547,0,0,0,.372,1.943,2.617,2.617,0,0,0,2.436,1.584Z"/><path class="b" d="M76.55,154.855a5.73,5.73,0,0,1-2.208-.4,2.982,2.982,0,0,1-1.488-1.319,5.109,5.109,0,0,1-.529-2.533v-5.135H70.237v-2.713h2.088l.361-3.312h2.879v3.312h3.193v2.713H75.565v5.183a1.444,1.444,0,0,0,.361,1.129,1.873,1.873,0,0,0,1.223.312H78.71v2.759Z"/><path class="b" d="M85.573,155.144a5.5,5.5,0,0,1-2.471-.493,3.452,3.452,0,0,1-1.477-1.319,3.532,3.532,0,0,1-.492-1.836,3.452,3.452,0,0,1,.564-1.969,3.651,3.651,0,0,1,1.716-1.308,7.851,7.851,0,0,1,2.928-.468h2.952a4.091,4.091,0,0,0-.228-1.487,1.649,1.649,0,0,0-.744-.865,2.785,2.785,0,0,0-1.356-.288,2.94,2.94,0,0,0-1.548.385,1.674,1.674,0,0,0-.78,1.223H81.493a4.186,4.186,0,0,1,.852-2.256A4.889,4.889,0,0,1,84.289,143a6.691,6.691,0,0,1,2.7-.528,7.2,7.2,0,0,1,2.964.564,4.155,4.155,0,0,1,1.92,1.655,5.041,5.041,0,0,1,.66,2.652v7.512H89.821l-.36-1.848a3.933,3.933,0,0,1-1.5,1.536,4.367,4.367,0,0,1-1.067.444A5.075,5.075,0,0,1,85.573,155.144Zm.792-2.5a2.53,2.53,0,0,0,1.945-.863,3.406,3.406,0,0,0,.575-.912,4.007,4.007,0,0,0,.288-1.1v-.024H86.7a3.533,3.533,0,0,0-1.236.179,1.364,1.364,0,0,0-.684.516,1.392,1.392,0,0,0-.216.769,1.37,1.37,0,0,0,.216.779,1.319,1.319,0,0,0,.636.492A2.514,2.514,0,0,0,86.365,152.647Z"/><path class="b" d="M95.533,154.855V137.576h3.24v17.279Z"/><path class="b" d="M115.214,155.144a8.239,8.239,0,0,1-4.32-1.093A7.192,7.192,0,0,1,108.1,151a11.032,11.032,0,0,1,0-9.06,7.262,7.262,0,0,1,2.8-3.071,8.178,8.178,0,0,1,4.32-1.1,7.948,7.948,0,0,1,5,1.511,6.514,6.514,0,0,1,2.412,4.272h-3.553a3.56,3.56,0,0,0-1.3-2.1,4.133,4.133,0,0,0-2.592-.757A4.29,4.29,0,0,0,111,143.4a8.678,8.678,0,0,0,0,6.155,4.408,4.408,0,0,0,1.619,1.992,4.558,4.558,0,0,0,2.568.7,4.34,4.34,0,0,0,2.592-.708,3.311,3.311,0,0,0,1.3-1.98h3.553a6.312,6.312,0,0,1-2.412,4.1A8.032,8.032,0,0,1,115.214,155.144Z"/><path class="b" d="M131.054,155.144a6.1,6.1,0,0,1-3.132-.805,5.836,5.836,0,0,1-2.185-2.232,6.558,6.558,0,0,1-.8-3.275,6.665,6.665,0,0,1,.8-3.325,5.838,5.838,0,0,1,2.2-2.232,6.174,6.174,0,0,1,3.143-.8,6.05,6.05,0,0,1,3.12.8,5.916,5.916,0,0,1,2.172,2.221,7.189,7.189,0,0,1,0,6.611,5.845,5.845,0,0,1-2.183,2.232A6.109,6.109,0,0,1,131.054,155.144Zm0-2.809a2.594,2.594,0,0,0,1.4-.4,2.851,2.851,0,0,0,1.032-1.188,4.309,4.309,0,0,0,.4-1.943,4.414,4.414,0,0,0-.385-1.956,2.828,2.828,0,0,0-1.008-1.177,2.551,2.551,0,0,0-1.391-.4,2.72,2.72,0,0,0-1.441.4,2.757,2.757,0,0,0-1.031,1.177,4.4,4.4,0,0,0-.385,1.956,4.547,4.547,0,0,0,.372,1.943,2.619,2.619,0,0,0,2.437,1.584Z"/><path class="b" d="M139.957,154.855v-12.1h2.856l.216,1.992a4.323,4.323,0,0,1,1.6-1.668,4.649,4.649,0,0,1,2.437-.611,4.771,4.771,0,0,1,2.543.635,4.123,4.123,0,0,1,1.584,1.836,6.985,6.985,0,0,1,.552,2.929v6.983H148.5V148.16a3.382,3.382,0,0,0-.624-2.184,2.3,2.3,0,0,0-1.9-.768,2.717,2.717,0,0,0-1.428.383,2.647,2.647,0,0,0-1,1.093,3.808,3.808,0,0,0-.36,1.739v6.432Z"/><path class="b" d="M160.141,155.144a5.492,5.492,0,0,1-2.964-.816,5.654,5.654,0,0,1-2.052-2.257,7.5,7.5,0,0,1,0-6.515,5.673,5.673,0,0,1,2.088-2.257,5.608,5.608,0,0,1,3-.827,5.124,5.124,0,0,1,2.292.48,4.007,4.007,0,0,1,1.572,1.367v-6.743h3.239v17.279h-2.879l-.36-1.68a4.916,4.916,0,0,1-.925,1,4.207,4.207,0,0,1-1.271.708A5.139,5.139,0,0,1,160.141,155.144Zm.767-2.832a3.179,3.179,0,0,0,1.7-.444,3.051,3.051,0,0,0,1.128-1.237,3.963,3.963,0,0,0,.408-1.847,3.919,3.919,0,0,0-.408-1.825,2.957,2.957,0,0,0-1.139-1.224,3.316,3.316,0,0,0-1.716-.431,3.111,3.111,0,0,0-1.645.444,3.035,3.035,0,0,0-1.139,1.235,4.247,4.247,0,0,0,0,3.637,3.126,3.126,0,0,0,1.139,1.235A3.083,3.083,0,0,0,160.908,152.312Z"/><path class="b" d="M172.164,141.1a2.02,2.02,0,0,1-1.44-.517,1.825,1.825,0,0,1,0-2.615,2.019,2.019,0,0,1,1.44-.516,2.063,2.063,0,0,1,1.452.516,1.8,1.8,0,0,1,0,2.615A2.063,2.063,0,0,1,172.164,141.1Zm-1.632,13.751v-12.1h3.24v12.1Z"/><path class="b" d="M182.484,154.855a5.734,5.734,0,0,1-2.208-.4,2.99,2.99,0,0,1-1.488-1.319,5.12,5.12,0,0,1-.528-2.533v-5.135h-2.088v-2.713h2.088l.36-3.312h2.88v3.312h3.192v2.713H181.5v5.183a1.444,1.444,0,0,0,.36,1.129,1.878,1.878,0,0,0,1.224.312h1.561v2.759Z"/><path class="b" d="M189.132,141.1a2.024,2.024,0,0,1-1.441-.517,1.827,1.827,0,0,1,0-2.615,2.024,2.024,0,0,1,1.441-.516,2.063,2.063,0,0,1,1.452.516,1.8,1.8,0,0,1,0,2.615A2.063,2.063,0,0,1,189.132,141.1ZM187.5,154.855v-12.1h3.24v12.1Z"/><path class="b" d="M199.739,155.144a6.1,6.1,0,0,1-3.132-.805,5.841,5.841,0,0,1-2.184-2.232,6.558,6.558,0,0,1-.8-3.275,6.665,6.665,0,0,1,.8-3.325,5.835,5.835,0,0,1,2.2-2.232,6.18,6.18,0,0,1,3.144-.8,6.05,6.05,0,0,1,3.12.8,5.916,5.916,0,0,1,2.172,2.221,7.2,7.2,0,0,1,0,6.611,5.841,5.841,0,0,1-2.184,2.232A6.109,6.109,0,0,1,199.739,155.144Zm0-2.809a2.6,2.6,0,0,0,1.4-.4,2.865,2.865,0,0,0,1.032-1.188,4.323,4.323,0,0,0,.4-1.943,4.429,4.429,0,0,0-.384-1.956,2.828,2.828,0,0,0-1.008-1.177,2.552,2.552,0,0,0-1.392-.4,2.716,2.716,0,0,0-1.44.4,2.759,2.759,0,0,0-1.032,1.177,4.415,4.415,0,0,0-.384,1.956,4.547,4.547,0,0,0,.372,1.943,2.617,2.617,0,0,0,2.436,1.584Z"/><path class="b" d="M208.643,154.855v-12.1H211.5l.216,1.992a4.323,4.323,0,0,1,1.6-1.668,4.645,4.645,0,0,1,2.436-.611,4.773,4.773,0,0,1,2.544.635,4.123,4.123,0,0,1,1.584,1.836,7,7,0,0,1,.552,2.929v6.983h-3.24V148.16a3.376,3.376,0,0,0-.625-2.184,2.294,2.294,0,0,0-1.9-.768,2.721,2.721,0,0,0-1.429.383,2.647,2.647,0,0,0-1,1.093,3.822,3.822,0,0,0-.359,1.739v6.432Z"/><path class="b" d="M225.154,141.1a2.02,2.02,0,0,1-1.44-.517,1.825,1.825,0,0,1,0-2.615,2.019,2.019,0,0,1,1.44-.516,2.063,2.063,0,0,1,1.452.516,1.8,1.8,0,0,1,0,2.615A2.063,2.063,0,0,1,225.154,141.1Zm-1.632,13.751v-12.1h3.241v12.1Z"/><path class="b" d="M230.026,154.855v-12.1h2.857l.216,1.992a4.32,4.32,0,0,1,1.595-1.668,4.651,4.651,0,0,1,2.437-.611,4.775,4.775,0,0,1,2.544.635,4.129,4.129,0,0,1,1.584,1.836,7,7,0,0,1,.552,2.929v6.983H238.57V148.16a3.382,3.382,0,0,0-.624-2.184,2.3,2.3,0,0,0-1.9-.768,2.718,2.718,0,0,0-1.429.383,2.647,2.647,0,0,0-1,1.093,3.822,3.822,0,0,0-.359,1.739v6.432Z"/><path class="b" d="M250.042,160.423a9.826,9.826,0,0,1-3.024-.42,4.211,4.211,0,0,1-2-1.272,3.353,3.353,0,0,1-.276-3.708,4.517,4.517,0,0,1,1.272-1.356,8.026,8.026,0,0,1,2.064-1.043l1.224,1.607a3.507,3.507,0,0,0-1.584.913,1.738,1.738,0,0,0-.48,1.151,1.315,1.315,0,0,0,.36.936,2.125,2.125,0,0,0,1.008.564,5.237,5.237,0,0,0,1.416.181,4.284,4.284,0,0,0,1.344-.192,2.056,2.056,0,0,0,.9-.553,1.277,1.277,0,0,0,.324-.888,1.33,1.33,0,0,0-.468-1.068,3.379,3.379,0,0,0-1.836-.491,18.649,18.649,0,0,1-2.16-.288,13.258,13.258,0,0,1-1.668-.433,5.779,5.779,0,0,1-1.212-.552,4.468,4.468,0,0,1-.816-.623v-.553l2.568-2.759,2.328.743-3.024,2.976.936-1.607a5.535,5.535,0,0,0,.5.312,2.71,2.71,0,0,0,.648.239,9.157,9.157,0,0,0,1,.18c.408.057.931.117,1.572.181a8,8,0,0,1,2.628.575,3.207,3.207,0,0,1,1.488,1.224,3.533,3.533,0,0,1,.468,1.872,3.722,3.722,0,0,1-.588,2.017,4.307,4.307,0,0,1-1.8,1.535A7.007,7.007,0,0,1,250.042,160.423Zm.024-9.144a5.49,5.49,0,0,1-2.616-.588,4.2,4.2,0,0,1-1.692-1.584,4.321,4.321,0,0,1,1.68-6.036,6.012,6.012,0,0,1,5.232,0,4.244,4.244,0,0,1,1.668,1.6,4.566,4.566,0,0,1,0,4.44,4.142,4.142,0,0,1-1.668,1.584A5.421,5.421,0,0,1,250.066,151.279Zm0-2.471a2.238,2.238,0,0,0,1.5-.48,1.789,1.789,0,0,0,.564-1.44,1.759,1.759,0,0,0-.564-1.416,2.233,2.233,0,0,0-1.5-.48,2.327,2.327,0,0,0-1.524.48,1.718,1.718,0,0,0-.588,1.416,1.767,1.767,0,0,0,.576,1.44A2.322,2.322,0,0,0,250.066,148.808Zm1.992-3.768-.528-2.281h4.992v1.921Z"/><path class="b" d="M192.661,238.563a3.1,3.1,0,0,0,1.156.223,3.132,3.132,0,0,0,2.907-1.965l.6-1.49a3.126,3.126,0,0,0-1.742-4.064h0a3.127,3.127,0,0,0-4.063,1.742l-.6,1.49a3.126,3.126,0,0,0,1.742,4.064Zm-.577-3.6.6-1.49a1.867,1.867,0,0,1,2.432-1.043h0a1.871,1.871,0,0,1,1.043,2.433l-.6,1.49a1.871,1.871,0,1,1-3.475-1.39Z"/><path class="b" d="M176.831,257.644l2.3.021h.029a3.015,3.015,0,0,0,3-2.972l0-.346a2.979,2.979,0,0,0-.85-2.143,2.931,2.931,0,0,0-2.088-.893l-2.3-.022h-.028a3.016,3.016,0,0,0-3,2.973h0l0,.346a2.986,2.986,0,0,0,.85,2.143A2.94,2.94,0,0,0,176.831,257.644Zm-1.679-3.363a1.757,1.757,0,0,1,1.741-1.738h.016l2.3.021a1.69,1.69,0,0,1,1.2.515,1.734,1.734,0,0,1,.494,1.248l-.006.346a1.744,1.744,0,0,1-1.757,1.737l-2.3-.022a1.69,1.69,0,0,1-1.2-.514,1.74,1.74,0,0,1-.494-1.248Z"/><path class="b" d="M216.981,255.584a.628.628,0,0,0-.618-.668l-15.661-.195a5.414,5.414,0,0,0,.027-.626l-.082-3.973,4.389-.1a6.559,6.559,0,0,0,1.188-.146c2.489-.605,3.871-2.338,3.607-4.522a.627.627,0,0,0-.622-.552h0l-10.976.035-.044,0a3.642,3.642,0,0,0-2.557,1.321,3.7,3.7,0,0,0-.417.63l-3.665-.011-.152-3.3-1.253.058.18,3.9a.626.626,0,0,0,.624.6l5.729.018a2.367,2.367,0,0,1-.687,1.448,2.927,2.927,0,0,1-2.327.648l-.033,0-4.136-.128a1.537,1.537,0,0,1-1.626-1.265l-.323-6.534a1.267,1.267,0,0,1,1.163-1.327l7.153-.1a2.094,2.094,0,0,1,2.057,1.785v1.361h1.254v-1.4a.684.684,0,0,0,0-.079,3.35,3.35,0,0,0-3.3-2.918h-.041l-7.164.1a2.529,2.529,0,0,0-2.37,2.642l.327,6.623a.655.655,0,0,0,.032.17,2.773,2.773,0,0,0,2.754,2.195l.033,0,4.137.128c.165.013.326.02.485.02a5,5,0,0,0,.736-.058l0,.889-6.762.046a4.911,4.911,0,0,0-3.559,1.571l-1.286,1.39a2.16,2.16,0,0,0-.5,2.051,3.558,3.558,0,0,0,.845,1.441h-8.4a1.537,1.537,0,0,0-1.535,1.535V261.8a1.537,1.537,0,0,0,1.535,1.535h2.815v8.49H176.1a.651.651,0,1,0,0,1.3h35.951a.651.651,0,0,0,0-1.3h-2.542v-8.49h2.815a1.537,1.537,0,0,0,1.535-1.535v-1.517a1.533,1.533,0,0,0-.112-.568A4.742,4.742,0,0,0,216.981,255.584Zm-23.293,3.139-.08,0c-.009,0-.017,0-.026,0l-7.343-.021a2.457,2.457,0,0,1-2.352-1.748.892.892,0,0,1,.219-.848l1.285-1.39a3.651,3.651,0,0,1,2.646-1.169l7.382-.05a.627.627,0,0,0,.623-.624l.01-1.919a3.442,3.442,0,0,0,.8-.546,3.835,3.835,0,0,0,1.107-3,.627.627,0,0,0-.625-.608l-.572,0a2.389,2.389,0,0,1,1.5-.7l10.347-.032c-.108,1.77-1.869,2.4-2.678,2.6a5.365,5.365,0,0,1-.919.111l-5.015.114a.627.627,0,0,0-.613.64l.095,4.6a4.041,4.041,0,0,1-.037.587l-1.787-.022h-.008a.628.628,0,0,0-.008,1.255l17.984.223a3.54,3.54,0,0,1-3.085,2.568l-.227.017H194.179l.022-.021Zm3.55,4.61h11.016v8.49H196.44Zm-2.058,8.49h-1.5v-8.49h2.3Zm-2.758,0h-1.7l-.8-8.49h2.5Zm-3.759-8.49.8,8.49H179.2v-8.49ZM212.6,261.8a.28.28,0,0,1-.28.28H175.131a.28.28,0,0,1-.28-.28v-1.517a.28.28,0,0,1,.28-.28h37.193a.28.28,0,0,1,.28.28Z"/><path class="b" d="M217.044,271.823h-2.216a.651.651,0,0,0,0,1.3h2.216a.651.651,0,0,0,0-1.3Z"/><path class="b" d="M87.906,45.462a3.516,3.516,0,0,0,4.562,1.9l.384-.156a3.472,3.472,0,0,0,1.917-1.883,3.42,3.42,0,0,0,.012-2.646l-1.046-2.546a3.514,3.514,0,0,0-4.562-1.9h0l-.384.155a3.471,3.471,0,0,0-1.916,1.883,3.42,3.42,0,0,0-.013,2.646Zm.165-4.687a2.184,2.184,0,0,1,1.2-1.182l.384-.156a2.21,2.21,0,0,1,2.872,1.188l1.046,2.546a2.133,2.133,0,0,1-.008,1.647A2.187,2.187,0,0,1,92.365,46l-.385.156a2.21,2.21,0,0,1-2.871-1.188l-1.046-2.546A2.133,2.133,0,0,1,88.071,40.775Z"/><path class="b" d="M86.911,53.486c.006-.02.012-.041.016-.061a3.787,3.787,0,0,1,2.443-2.759l6.412-2.228-.426-1.229-6.413,2.228a5.093,5.093,0,0,0-3.28,3.681l-2.049,6.417c-.007.02-.012.04-.017.06a3.5,3.5,0,0,0,2.04,3.946l6.514,2.782a.563.563,0,0,0,.5-.014c0,.156.026.311.026.466v.831h1.3v-.831a18.517,18.517,0,0,0-1.746-7.822l-1.462-3.109-1.177.553,1.462,3.109c.1.211.172.435.262.65a4.772,4.772,0,0,0-1.361-.737l-1.538-.525L88,60.125l1.539.525a3.56,3.56,0,0,1,2.373,3.8l-.042.337-5.721-2.443A2.193,2.193,0,0,1,84.863,59.9Z"/><path class="b" d="M108.16,42.794l.659.11a3.475,3.475,0,0,0,.562.047,3.42,3.42,0,0,0,3.366-2.855l.465-2.8a3.418,3.418,0,0,0-2.808-3.927h0l-.659-.11a3.413,3.413,0,0,0-3.928,2.808l-.465,2.8a3.414,3.414,0,0,0,2.808,3.927Zm-1.525-3.714.465-2.8a2.116,2.116,0,0,1,2.08-1.768,2.187,2.187,0,0,1,.351.029l.66.11a2.116,2.116,0,0,1,1.738,2.431l-.465,2.8a2.117,2.117,0,0,1-2.431,1.738l-.66-.11a2.113,2.113,0,0,1-1.738-2.431Z"/><path class="b" d="M111.128,44.519h-3.2c-.1,0-.2,0-.3.012a3.622,3.622,0,0,0-3.132,2.542l-1.381,4.23-1.553.616a29.824,29.824,0,0,0-.782-2.968,55.4,55.4,0,0,0-1.306-8.265,9.987,9.987,0,0,0-4.507-6L88.87,30.7l-1.781-4.134-1.195.514,1.859,4.314a.648.648,0,0,0,.241.287l6.281,4.109a8.826,8.826,0,0,1,3.941,5.236,55.992,55.992,0,0,1,1.273,8.111.623.623,0,0,0,.035.165,29.558,29.558,0,0,1,.8,3.107l-3.5,1.39a.651.651,0,0,0-.344.891l.229.464a4.178,4.178,0,0,0,4.446,2.284,82.474,82.474,0,0,1,.6,10.168h1.3a84.092,84.092,0,0,0-.627-10.544l2.216-.769.453,11.339,1.3-.053-.472-11.835a4.271,4.271,0,0,0,1.511-1.7,50.758,50.758,0,0,0,2.37-6.176l-1.243-.383a50.556,50.556,0,0,1-2.3,5.988,3,3,0,0,1-1.245,1.31l-3.272,1.135-.056.023a2.9,2.9,0,0,1-3.729-1.2l5.912-2.346a.653.653,0,0,0,.378-.4l1.477-4.52a2.355,2.355,0,0,1,2-1.649c.066-.005.132-.008.2-.008h3.2a1.532,1.532,0,0,1,1.53,1.53v1.527l-.74,18.7,1.3.051.74-18.728V47.35A2.834,2.834,0,0,0,111.128,44.519Z"/></svg>