<svg xmlns="http://www.w3.org/2000/svg" xmlns:xlink="http://www.w3.org/1999/xlink" viewBox="0 0 300 235"><defs><style>.a{isolation:isolate;}.b,.c{fill:#ffb529;}.b,.c,.d,.e,.q{mix-blend-mode:multiply;}.b{opacity:0.15;}.c{opacity:0.3;}.d{fill:url(#a);}.e{font-size:14px;}.e,.q,.u{fill:#666;}.e,.q{font-family:mplus-2p-medium, "M+ 2p";font-weight:500;}.f{letter-spacing:0.04em;}.g{letter-spacing:-0.18em;}.h{letter-spacing:-0.06em;}.i{letter-spacing:0.06em;}.j{letter-spacing:-0.51em;}.k{letter-spacing:-0.1em;}.l{letter-spacing:-0.16em;}.m{letter-spacing:-0.26em;}.n{letter-spacing:-0.1em;}.o{letter-spacing:-0.08em;}.p,.v{fill:none;stroke-miterlimit:10;}.p{stroke:#ffed57;stroke-width:8px;}.q{font-size:16px;}.r{letter-spacing:-0.06em;}.s{font-family:HiraKakuPro-W3-83pv-RKSJ-H, Hiragino Kaku Gothic Pro;font-weight:400;letter-spacing:-0.08em;}.t{fill:#ff9d00;}.u{font-size:12px;font-family:mplus-2p-regular, "M+ 2p";}.v{stroke:#b3b3b3;}</style><linearGradient id="a" x1="150" y1="221.998" x2="150" y2="148.827" gradientUnits="userSpaceOnUse"><stop offset="0" stop-color="#ffb529" stop-opacity="0.1"/><stop offset="1" stop-color="#ffb529"/></linearGradient></defs><g class="a"><polygon class="b" points="150 11.428 125.553 53.771 174.447 53.771 150 11.428"/><polygon class="c" points="174.447 53.771 125.553 53.771 101.107 96.114 84.741 124.46 215.259 124.46 198.893 96.114 174.447 53.771"/><polygon class="d" points="84.741 124.46 27.767 223.141 272.233 223.141 215.259 124.46 84.741 124.46"/><text class="e" transform="translate(105.549 76.271)">筋<tspan class="f" x="14" y="0">力</tspan><tspan class="g" x="28.56" y="0">・</tspan><tspan x="40.04" y="0">パ</tspan><tspan class="h" x="54.04" y="0">ワ</tspan><tspan class="i" x="67.2" y="0">ー</tspan><tspan class="j" x="82.04" y="0">・</tspan><tspan class="k" x="-18.41" y="21">ス</tspan><tspan class="h" x="-5.811" y="21">ピ</tspan><tspan class="l" x="7.35" y="21">ー</tspan><tspan x="19.109" y="21">ド</tspan><tspan class="m" x="33.109" y="21">・</tspan><tspan class="n" x="43.47" y="21">ア</tspan><tspan class="o" x="56.07" y="21">ジ</tspan><tspan class="k" x="68.95" y="21">リ</tspan><tspan class="l" x="81.55" y="21">テ</tspan><tspan x="93.31" y="21">ィ</tspan></text><line class="p" x1="32.25" y1="172.078" x2="267" y2="172.078"/><text class="q" transform="translate(33.36 173.14)">姿<tspan class="r" x="16" y="0">勢</tspan><tspan class="s" x="31.04" y="0.32">・</tspan><tspan x="45.76" y="0">可動</tspan><tspan class="r" x="77.76" y="0">域</tspan><tspan class="s" x="92.8" y="0.32">・</tspan><tspan x="107.52" y="0">安定</tspan><tspan class="r" x="139.52" y="0">性</tspan><tspan class="s" x="154.56" y="0.32">・</tspan><tspan x="169.279" y="0">バランス</tspan></text><path class="t" d="M111.962,199.337v-9.8h6.385v1.525h-4.494v2.618h3.611v1.485h-3.611v4.172Z"/><path class="t" d="M123.051,199.505a3.565,3.565,0,0,1-1.827-.469,3.425,3.425,0,0,1-1.275-1.3,3.833,3.833,0,0,1-.469-1.911,3.9,3.9,0,0,1,.469-1.939,3.4,3.4,0,0,1,1.281-1.3,3.6,3.6,0,0,1,1.834-.47,3.523,3.523,0,0,1,1.821.47,3.431,3.431,0,0,1,1.266,1.3,4.2,4.2,0,0,1,0,3.856,3.42,3.42,0,0,1-1.273,1.3A3.573,3.573,0,0,1,123.051,199.505Zm0-1.639a1.508,1.508,0,0,0,.818-.231,1.665,1.665,0,0,0,.6-.693,2.519,2.519,0,0,0,.23-1.134,2.573,2.573,0,0,0-.223-1.14,1.656,1.656,0,0,0-.588-.687,1.5,1.5,0,0,0-.813-.23,1.59,1.59,0,0,0-.84.23,1.606,1.606,0,0,0-.6.687,2.558,2.558,0,0,0-.225,1.14,2.636,2.636,0,0,0,.218,1.134,1.526,1.526,0,0,0,1.421.924Z"/><path class="t" d="M130.89,199.505a2.875,2.875,0,0,1-1.477-.358,2.259,2.259,0,0,1-.924-1.05,4.138,4.138,0,0,1-.315-1.715v-4.1h1.876v3.92a1.958,1.958,0,0,0,.357,1.281,1.353,1.353,0,0,0,1.1.427,1.642,1.642,0,0,0,.848-.217,1.491,1.491,0,0,0,.58-.63,2.184,2.184,0,0,0,.211-1v-3.78h1.889v7.057h-1.666l-.139-1.149a2.449,2.449,0,0,1-.917.959A2.72,2.72,0,0,1,130.89,199.505Z"/><path class="t" d="M136.868,199.337V192.28h1.666l.126,1.162a2.531,2.531,0,0,1,.931-.973,2.709,2.709,0,0,1,1.421-.357,2.781,2.781,0,0,1,1.484.371,2.407,2.407,0,0,1,.924,1.071,4.067,4.067,0,0,1,.322,1.708v4.075h-1.889V195.43a1.979,1.979,0,0,0-.365-1.274,1.342,1.342,0,0,0-1.106-.447,1.582,1.582,0,0,0-.833.223,1.554,1.554,0,0,0-.581.637,2.224,2.224,0,0,0-.21,1.016v3.752Z"/><path class="t" d="M148.642,199.505a3.2,3.2,0,0,1-1.729-.477,3.291,3.291,0,0,1-1.2-1.315,4.378,4.378,0,0,1,0-3.8,3.312,3.312,0,0,1,1.218-1.317,3.268,3.268,0,0,1,1.75-.483,3,3,0,0,1,1.337.28,2.352,2.352,0,0,1,.917.8v-3.934h1.89v10.081h-1.681l-.209-.981a2.9,2.9,0,0,1-.54.581,2.463,2.463,0,0,1-.741.413A2.988,2.988,0,0,1,148.642,199.505Zm.448-1.653a1.852,1.852,0,0,0,.994-.259,1.791,1.791,0,0,0,.658-.72,2.336,2.336,0,0,0,.237-1.078,2.3,2.3,0,0,0-.237-1.065,1.733,1.733,0,0,0-.665-.714,1.936,1.936,0,0,0-1-.252,1.816,1.816,0,0,0-.959.259,1.765,1.765,0,0,0-.665.722,2.25,2.25,0,0,0-.238,1.05,2.273,2.273,0,0,0,.238,1.07,1.83,1.83,0,0,0,.665.722A1.811,1.811,0,0,0,149.09,197.852Z"/><path class="t" d="M157.042,199.505a3.2,3.2,0,0,1-1.442-.288,2.019,2.019,0,0,1-.862-.77,2.057,2.057,0,0,1-.287-1.07,2.024,2.024,0,0,1,.329-1.149,2.135,2.135,0,0,1,1-.763,4.58,4.58,0,0,1,1.708-.273h1.723a2.383,2.383,0,0,0-.134-.868.966.966,0,0,0-.433-.5,1.635,1.635,0,0,0-.791-.168,1.713,1.713,0,0,0-.9.225.978.978,0,0,0-.455.713h-1.834a2.454,2.454,0,0,1,.5-1.316,2.858,2.858,0,0,1,1.135-.853,3.888,3.888,0,0,1,1.574-.309,4.215,4.215,0,0,1,1.73.329,2.434,2.434,0,0,1,1.12.966,2.945,2.945,0,0,1,.385,1.548v4.382H159.52l-.21-1.079a2.331,2.331,0,0,1-.372.5,2.283,2.283,0,0,1-.5.392,2.626,2.626,0,0,1-.623.26A2.985,2.985,0,0,1,157.042,199.505Zm.462-1.457a1.5,1.5,0,0,0,.637-.132,1.521,1.521,0,0,0,.5-.371,2.01,2.01,0,0,0,.336-.533,2.363,2.363,0,0,0,.168-.643v-.015H157.7a2.012,2.012,0,0,0-.72.106.792.792,0,0,0-.4.3.814.814,0,0,0-.126.449.8.8,0,0,0,.126.455.775.775,0,0,0,.371.286A1.487,1.487,0,0,0,157.5,198.048Z"/><path class="t" d="M166.029,199.337a3.355,3.355,0,0,1-1.288-.232,1.742,1.742,0,0,1-.868-.769,2.994,2.994,0,0,1-.308-1.478v-3h-1.217V192.28h1.217l.21-1.932h1.68v1.932h1.862v1.582h-1.862v3.024a.844.844,0,0,0,.21.659,1.1,1.1,0,0,0,.715.181h.909v1.611Z"/><path class="t" d="M169.907,191.314a1.18,1.18,0,0,1-.84-.3,1.065,1.065,0,0,1,0-1.526,1.185,1.185,0,0,1,.84-.3,1.212,1.212,0,0,1,.848.3,1.049,1.049,0,0,1,0,1.526A1.207,1.207,0,0,1,169.907,191.314Zm-.952,8.023V192.28h1.891v7.057Z"/><path class="t" d="M176.1,199.505a3.565,3.565,0,0,1-1.827-.469,3.418,3.418,0,0,1-1.275-1.3,3.833,3.833,0,0,1-.469-1.911,3.9,3.9,0,0,1,.469-1.939,3.4,3.4,0,0,1,1.281-1.3,3.6,3.6,0,0,1,1.834-.47,3.526,3.526,0,0,1,1.821.47,3.431,3.431,0,0,1,1.266,1.3,4.2,4.2,0,0,1,0,3.856,3.42,3.42,0,0,1-1.273,1.3A3.573,3.573,0,0,1,176.1,199.505Zm0-1.639a1.508,1.508,0,0,0,.818-.231,1.665,1.665,0,0,0,.6-.693,2.519,2.519,0,0,0,.23-1.134,2.558,2.558,0,0,0-.224-1.14,1.647,1.647,0,0,0-.587-.687,1.5,1.5,0,0,0-.813-.23,1.588,1.588,0,0,0-.84.23,1.606,1.606,0,0,0-.6.687,2.558,2.558,0,0,0-.225,1.14,2.636,2.636,0,0,0,.218,1.134,1.526,1.526,0,0,0,1.421.924Z"/><path class="t" d="M181.289,199.337V192.28h1.666l.126,1.162a2.531,2.531,0,0,1,.931-.973,2.709,2.709,0,0,1,1.421-.357,2.781,2.781,0,0,1,1.484.371,2.407,2.407,0,0,1,.924,1.071,4.067,4.067,0,0,1,.322,1.708v4.075h-1.89V195.43a1.979,1.979,0,0,0-.364-1.274,1.342,1.342,0,0,0-1.106-.447,1.582,1.582,0,0,0-.833.223,1.554,1.554,0,0,0-.581.637,2.224,2.224,0,0,0-.21,1.016v3.752Z"/><path class="t" d="M130.185,117.254v-7h2.61a3.079,3.079,0,0,1,1.42.29,1.965,1.965,0,0,1,.835.78,2.251,2.251,0,0,1,.275,1.12,2.189,2.189,0,0,1-.27,1.065,2.045,2.045,0,0,1-.82.8,2.918,2.918,0,0,1-1.44.31h-1.26v2.63Zm1.35-3.72h1.18a1.26,1.26,0,0,0,.945-.3,1.112,1.112,0,0,0,.285-.8,1.075,1.075,0,0,0-.285-.8,1.3,1.3,0,0,0-.945-.285h-1.18Z"/><path class="t" d="M136.295,117.254v-7.2h1.35v2.9a1.865,1.865,0,0,1,.67-.625,1.929,1.929,0,0,1,.96-.235,1.983,1.983,0,0,1,1.06.265,1.659,1.659,0,0,1,.65.77,3.086,3.086,0,0,1,.22,1.235v2.89h-1.34v-2.76a1.513,1.513,0,0,0-.25-.935.922.922,0,0,0-.78-.325,1.17,1.17,0,0,0-.61.16,1.115,1.115,0,0,0-.425.46,1.592,1.592,0,0,0-.155.74v2.66Z"/><path class="t" d="M143.115,119.454l1.22-2.76h-.3l-2.01-4.48h1.46l1.44,3.24,1.29-3.24h1.44l-3.11,7.24Z"/><path class="t" d="M150.575,117.374a3.015,3.015,0,0,1-1.2-.22,1.941,1.941,0,0,1-.8-.6,1.653,1.653,0,0,1-.33-.885H149.6a.866.866,0,0,0,.159.34.8.8,0,0,0,.32.25,1.167,1.167,0,0,0,.481.09,1.133,1.133,0,0,0,.444-.075.569.569,0,0,0,.26-.205.492.492,0,0,0,.086-.27.4.4,0,0,0-.125-.32,1.072,1.072,0,0,0-.356-.19,3.846,3.846,0,0,0-.559-.14,6.98,6.98,0,0,1-.705-.175,2.648,2.648,0,0,1-.616-.27,1.339,1.339,0,0,1-.429-.41,1.091,1.091,0,0,1-.16-.615,1.419,1.419,0,0,1,.239-.8,1.621,1.621,0,0,1,.705-.57,2.646,2.646,0,0,1,1.1-.21,2.313,2.313,0,0,1,1.449.41,1.661,1.661,0,0,1,.631,1.13h-1.271a.592.592,0,0,0-.265-.37,1,1,0,0,0-.544-.13.972.972,0,0,0-.545.13.385.385,0,0,0-.2.33.323.323,0,0,0,.125.25,1.039,1.039,0,0,0,.355.19,4.674,4.674,0,0,0,.56.15,7.95,7.95,0,0,1,1.02.275,1.607,1.607,0,0,1,.69.44,1.218,1.218,0,0,1,.25.825,1.473,1.473,0,0,1-.259.855,1.714,1.714,0,0,1-.736.585A2.761,2.761,0,0,1,150.575,117.374Z"/><path class="t" d="M154.545,111.524a.845.845,0,0,1-.6-.215.761.761,0,0,1,0-1.09.845.845,0,0,1,.6-.215.863.863,0,0,1,.605.215.749.749,0,0,1,0,1.09A.863.863,0,0,1,154.545,111.524Zm-.68,5.73v-5.04h1.35v5.04Z"/><path class="t" d="M159.015,117.374a2.66,2.66,0,0,1-1.35-.34,2.411,2.411,0,0,1-.92-.93,2.686,2.686,0,0,1-.33-1.34,2.822,2.822,0,0,1,.33-1.395,2.4,2.4,0,0,1,.92-.935,2.66,2.66,0,0,1,1.35-.34,2.6,2.6,0,0,1,1.63.505,2.243,2.243,0,0,1,.839,1.395h-1.429a.967.967,0,0,0-.37-.545,1.126,1.126,0,0,0-.68-.2,1.113,1.113,0,0,0-.625.18,1.2,1.2,0,0,0-.43.51,1.877,1.877,0,0,0-.155.8,2.014,2.014,0,0,0,.09.62,1.35,1.35,0,0,0,.25.47,1.1,1.1,0,0,0,.87.4,1.213,1.213,0,0,0,.474-.09.991.991,0,0,0,.366-.26.967.967,0,0,0,.21-.4h1.429a2.286,2.286,0,0,1-.844,1.38A2.557,2.557,0,0,1,159.015,117.374Z"/><path class="t" d="M164.345,117.374a2.3,2.3,0,0,1-1.031-.2,1.447,1.447,0,0,1-.615-.55,1.466,1.466,0,0,1-.205-.765,1.443,1.443,0,0,1,.235-.82,1.525,1.525,0,0,1,.715-.545,3.276,3.276,0,0,1,1.221-.2h1.23a1.715,1.715,0,0,0-.095-.62.69.69,0,0,0-.311-.36,1.151,1.151,0,0,0-.564-.12,1.235,1.235,0,0,0-.646.16.7.7,0,0,0-.324.51h-1.31a1.74,1.74,0,0,1,.355-.94,2.036,2.036,0,0,1,.81-.61,2.8,2.8,0,0,1,1.125-.22,3,3,0,0,1,1.235.235,1.739,1.739,0,0,1,.8.69,2.1,2.1,0,0,1,.274,1.1v3.13h-1.13l-.149-.77a1.661,1.661,0,0,1-.266.36,1.645,1.645,0,0,1-.359.28,1.808,1.808,0,0,1-.445.185A2.134,2.134,0,0,1,164.345,117.374Zm.33-1.04a1.077,1.077,0,0,0,.455-.095,1.037,1.037,0,0,0,.354-.265,1.384,1.384,0,0,0,.241-.38,1.735,1.735,0,0,0,.12-.46v-.01h-1.031a1.462,1.462,0,0,0-.514.075.563.563,0,0,0-.285.215.578.578,0,0,0-.09.32.572.572,0,0,0,.09.325.552.552,0,0,0,.264.2A1.055,1.055,0,0,0,164.675,116.334Z"/><path class="t" d="M168.5,117.254v-7.2h1.35v7.2Z"/><path class="t" d="M126.38,46.172v-5.91h-2.04v-1.09h5.431v1.09H127.73v5.91Z"/><path class="t" d="M133.12,46.292a2.689,2.689,0,0,1-1.345-.33,2.341,2.341,0,0,1-.91-.915,2.719,2.719,0,0,1-.325-1.345,2.869,2.869,0,0,1,.325-1.39,2.455,2.455,0,0,1,.906-.95,2.772,2.772,0,0,1,2.66-.02,2.329,2.329,0,0,1,.869.885,2.567,2.567,0,0,1,.31,1.275c0,.066,0,.142-.005.225s-.008.169-.015.255h-4.079v-.83h2.739a1.084,1.084,0,0,0-.345-.76,1.1,1.1,0,0,0-.775-.29,1.245,1.245,0,0,0-.635.165,1.2,1.2,0,0,0-.455.48,1.666,1.666,0,0,0-.17.8v.29a1.56,1.56,0,0,0,.155.715,1.15,1.15,0,0,0,.435.475,1.228,1.228,0,0,0,.65.17,1.109,1.109,0,0,0,.616-.155,1.04,1.04,0,0,0,.364-.415h1.37a2.154,2.154,0,0,1-.465.855,2.338,2.338,0,0,1-.809.6A2.566,2.566,0,0,1,133.12,46.292Z"/><path class="t" d="M139.16,46.292a2.653,2.653,0,0,1-1.349-.34,2.4,2.4,0,0,1-.92-.93,2.686,2.686,0,0,1-.33-1.34,2.822,2.822,0,0,1,.33-1.4,2.4,2.4,0,0,1,.92-.935,2.653,2.653,0,0,1,1.349-.34,2.6,2.6,0,0,1,1.63.505,2.244,2.244,0,0,1,.84,1.395H140.2a.957.957,0,0,0-.37-.545,1.2,1.2,0,0,0-1.305-.025,1.194,1.194,0,0,0-.429.51,1.859,1.859,0,0,0-.156.8,2.045,2.045,0,0,0,.09.62,1.384,1.384,0,0,0,.25.47,1.1,1.1,0,0,0,.87.4,1.222,1.222,0,0,0,.475-.09.979.979,0,0,0,.365-.26.956.956,0,0,0,.21-.4h1.43a2.282,2.282,0,0,1-.845,1.38A2.553,2.553,0,0,1,139.16,46.292Z"/><path class="t" d="M142.79,46.172v-7.2h1.35v2.9a1.86,1.86,0,0,1,.671-.625,1.923,1.923,0,0,1,.96-.235,1.981,1.981,0,0,1,1.059.265,1.659,1.659,0,0,1,.65.77,3.086,3.086,0,0,1,.22,1.235v2.89h-1.34v-2.76a1.511,1.511,0,0,0-.25-.935.92.92,0,0,0-.78-.325,1.172,1.172,0,0,0-.61.16,1.115,1.115,0,0,0-.425.46,1.592,1.592,0,0,0-.155.74v2.66Z"/><path class="t" d="M148.971,46.172v-5.04h1.189l.09.83a1.806,1.806,0,0,1,.665-.7,1.938,1.938,0,0,1,1.016-.255,1.979,1.979,0,0,1,1.059.265,1.711,1.711,0,0,1,.66.765,2.9,2.9,0,0,1,.23,1.22v2.91h-1.35v-2.79a1.419,1.419,0,0,0-.259-.91.961.961,0,0,0-.791-.32,1.123,1.123,0,0,0-.594.16,1.091,1.091,0,0,0-.415.455,1.571,1.571,0,0,0-.151.725v2.68Z"/><path class="t" d="M155.851,40.442a.846.846,0,0,1-.6-.215.763.763,0,0,1,0-1.09.846.846,0,0,1,.6-.215.86.86,0,0,1,.6.215.749.749,0,0,1,0,1.09A.86.86,0,0,1,155.851,40.442Zm-.681,5.73v-5.04h1.351v5.04Z"/><path class="t" d="M161.76,48.372v-2.9a1.875,1.875,0,0,1-.64.59,1.918,1.918,0,0,1-.97.23,2.274,2.274,0,0,1-1.255-.35,2.475,2.475,0,0,1-.86-.94,2.82,2.82,0,0,1-.315-1.35,2.787,2.787,0,0,1,.32-1.345,2.493,2.493,0,0,1,.87-.945,2.408,2.408,0,0,1,1.92-.255,1.744,1.744,0,0,1,.53.27,2.019,2.019,0,0,1,.4.4l.15-.65h1.2v7.24Zm-1.32-3.26a1.3,1.3,0,0,0,.71-.19,1.314,1.314,0,0,0,.47-.515,1.629,1.629,0,0,0,.17-.765,1.648,1.648,0,0,0-.17-.755,1.222,1.222,0,0,0-.475-.515,1.383,1.383,0,0,0-.715-.18,1.3,1.3,0,0,0-.685.185,1.271,1.271,0,0,0-.475.515,1.773,1.773,0,0,0,0,1.515,1.3,1.3,0,0,0,.475.515A1.283,1.283,0,0,0,160.44,45.112Z"/><path class="t" d="M166.31,46.292a2.051,2.051,0,0,1-1.055-.255,1.617,1.617,0,0,1-.66-.75,2.956,2.956,0,0,1-.225-1.225v-2.93h1.34v2.8a1.4,1.4,0,0,0,.255.915.966.966,0,0,0,.785.3,1.177,1.177,0,0,0,.6-.155,1.066,1.066,0,0,0,.415-.45,1.564,1.564,0,0,0,.15-.715v-2.7h1.35v5.04h-1.19l-.1-.82a1.752,1.752,0,0,1-.655.685A1.937,1.937,0,0,1,166.31,46.292Z"/><path class="t" d="M173,46.292a2.689,2.689,0,0,1-1.345-.33,2.341,2.341,0,0,1-.91-.915,2.719,2.719,0,0,1-.325-1.345,2.869,2.869,0,0,1,.325-1.39,2.46,2.46,0,0,1,.905-.95,2.564,2.564,0,0,1,1.35-.35,2.538,2.538,0,0,1,1.311.33,2.329,2.329,0,0,1,.869.885,2.567,2.567,0,0,1,.31,1.275c0,.066,0,.142,0,.225s-.008.169-.015.255h-4.079v-.83h2.739a1.084,1.084,0,0,0-.345-.76,1.1,1.1,0,0,0-.775-.29,1.243,1.243,0,0,0-.635.165,1.2,1.2,0,0,0-.455.48,1.666,1.666,0,0,0-.17.8v.29a1.56,1.56,0,0,0,.155.715,1.15,1.15,0,0,0,.435.475,1.228,1.228,0,0,0,.65.17,1.1,1.1,0,0,0,.615-.155,1.035,1.035,0,0,0,.365-.415h1.37a2.154,2.154,0,0,1-.465.855,2.332,2.332,0,0,1-.81.6A2.558,2.558,0,0,1,173,46.292Z"/><text class="u" transform="translate(15.011 70.692)">体　力</text><text class="u" transform="translate(15.012 141.876)">基本動作</text><text class="u" transform="translate(15.011 28.436)">技　術</text><line class="v" x1="285.827" y1="124.46" x2="15.012" y2="124.46"/><line class="v" x1="15.012" y1="53.771" x2="285.827" y2="53.771"/></g></svg>