<svg xmlns="http://www.w3.org/2000/svg" viewBox="0 0 50 50"><defs><style>.a{fill:#93ef90;opacity:0.5;}.b{fill:#203744;}</style></defs><rect class="a" x="8.999" y="8.999" width="38" height="38" rx="8"/><path class="b" d="M25,11.6C16.732,11.6,9.8,17,9.8,23.9c0,6.161,5.495,11.165,12.669,12.127h0a2.8,2.8,0,0,1,.534.166.128.128,0,0,1,.037.022,5.375,5.375,0,0,1-.014.712c-.009.054-.165.974-.2,1.156v0a1.657,1.657,0,0,0,.221,1.416,1.544,1.544,0,0,0,1.083.625,2.542,2.542,0,0,0,1.234-.249,36.4,36.4,0,0,0,5.214-3.119A36.184,36.184,0,0,0,36.9,31.523,11.034,11.034,0,0,0,40.2,23.9C40.2,17,33.268,11.6,25,11.6Zm0,1.9c7.447,0,13.3,4.789,13.3,10.4a8.961,8.961,0,0,1-2.8,6.335l-.009.009-.008.009a35.354,35.354,0,0,1-5.972,4.936,40.865,40.865,0,0,1-4.748,2.859c.062-.365.142-.839.142-.839l0-.016,0-.017a3.045,3.045,0,0,0-.108-1.746v0a1.79,1.79,0,0,0-.989-.952,4.265,4.265,0,0,0-.948-.3l-.037-.009-.039,0C16.307,33.316,11.7,28.939,11.7,23.9,11.7,18.289,17.553,13.5,25,13.5Zm-.64,7.028a.851.851,0,0,0-.848.857v5.13a.855.855,0,1,0,1.71,0V24.055l1.868,2.957a.856.856,0,0,0,1.552-.5v-5.13a.855.855,0,0,0-1.71,0v2.565L25.063,20.89A.833.833,0,0,0,24.36,20.529Zm-7.688,0a.855.855,0,0,0-.855.855v5.13a.855.855,0,0,0,.855.855h2.565a.855.855,0,0,0,0-1.71h-1.71V21.386A.855.855,0,0,0,16.672,20.531Zm5.13,0a.855.855,0,0,0-.855.855v5.13a.855.855,0,0,0,1.71,0v-5.13A.855.855,0,0,0,21.8,20.531Zm8.55,0a.855.855,0,0,0-.855.855v5.13a.855.855,0,0,0,.855.855h2.565a.855.855,0,0,0,0-1.71h-1.71v-.855h1.71a.855.855,0,1,0,0-1.71h-1.71v-.855h1.71a.855.855,0,1,0,0-1.71Z"/><path class="b" d="M14,4A10.015,10.015,0,0,0,4,14V36A10.015,10.015,0,0,0,14,46H36A10.015,10.015,0,0,0,46,36V14A10.015,10.015,0,0,0,36,4Zm0,2H36a7.984,7.984,0,0,1,8,8V36a7.984,7.984,0,0,1-8,8H14a7.984,7.984,0,0,1-8-8V14A7.984,7.984,0,0,1,14,6Z"/></svg>