<svg xmlns="http://www.w3.org/2000/svg" viewBox="0 0 274.772 86.684"><defs><style>.a{fill:#203744;}</style></defs><path class="a" d="M4.607,9.008h3.72a3.674,3.674,0,0,1,3.5,3.821v9.546h4.612V12.829a8.546,8.546,0,0,0-3.113-6.638H23.411c1.4,0,2.708-.016,3.975-.032a66.966,66.966,0,0,1,12.934.677l.024,0A20.283,20.283,0,0,1,51.85,12.662a17.065,17.065,0,0,1,4.593,11.971,23.245,23.245,0,0,1-1,6.853c.448.329.89.664,1.32,1.013a23.725,23.725,0,0,1,2.431,2.267,27.518,27.518,0,0,0,1.864-10.133A21.591,21.591,0,0,0,55.2,9.494a24.575,24.575,0,0,0-14.1-7.2,70.675,70.675,0,0,0-13.768-.742c-1.252.016-2.548.031-3.918.031H4.607A2.306,2.306,0,0,0,2.3,3.885V6.7A2.306,2.306,0,0,0,4.607,9.008ZM55.472,34.091a39.6,39.6,0,0,0-16.109-7.517c-6.2-1.481-13.72-2.184-22.926-2.151H11.825V54.15h2.306c16.147,0,27.47-2.245,34.617-6.864a28.1,28.1,0,0,0,5.6-4.731,16.447,16.447,0,0,0-3.059-3.282c-.041-.033-.083-.064-.123-.1a23.147,23.147,0,0,1-4.921,4.236c-6.05,3.911-15.817,5.913-29.807,6.109V29.035c17.5-.069,28.691,2.62,36.137,8.644,4.607,3.717,7.469,10.054,7.469,16.538,0,10.559-4.265,15.928-15.212,19.15-9.071,2.67-21.542,2.4-31.69,2.15a8.541,8.541,0,0,0,3.3-6.784V56.2H11.825V68.733a3.675,3.675,0,0,1-3.5,3.822H3.773a2.305,2.305,0,0,0-2.306,2.306v2.817a2.305,2.305,0,0,0,2.306,2.306H5.141c2.182,0,4.7.063,7.374.131,3.2.08,6.642.167,10.158.167,8.076,0,16.551-.457,23.461-2.491,6.543-1.926,11.165-4.7,14.131-8.5s4.39-8.709,4.39-15.078C64.655,46.373,61.136,38.66,55.472,34.091Z"/><path class="a" d="M75.506,72.23a6.775,6.775,0,0,1,.567-2.89,5.87,5.87,0,0,1,1.484-2,5.933,5.933,0,0,1,2.1-1.161,8.034,8.034,0,0,1,2.425-.374,8.569,8.569,0,0,1,2.541.348,4.442,4.442,0,0,1,1.613.787,7.561,7.561,0,0,0-.323.813,9.165,9.165,0,0,0-.245.89h-.206a3.7,3.7,0,0,0-.49-.684,4.194,4.194,0,0,0-.736-.645,4.256,4.256,0,0,0-.941-.49,3.212,3.212,0,0,0-1.135-.193,4.369,4.369,0,0,0-2,.425A3.688,3.688,0,0,0,78.8,68.231,5.078,5.078,0,0,0,78.021,70a9.394,9.394,0,0,0-.245,2.206,6.109,6.109,0,0,0,1.135,4.011,4.1,4.1,0,0,0,3.328,1.355,4.149,4.149,0,0,0,1.058-.142,5.914,5.914,0,0,0,1.057-.387,5.783,5.783,0,0,0,.968-.58,4.947,4.947,0,0,0,.787-.723l.129.078a7.556,7.556,0,0,0-.155,1.264,7.145,7.145,0,0,1-1.922,1.057,6.617,6.617,0,0,1-2.386.439,8.049,8.049,0,0,1-2.232-.323,5.433,5.433,0,0,1-2.025-1.083A5.552,5.552,0,0,1,76.06,75.2,7.108,7.108,0,0,1,75.506,72.23Zm12.847,0a7.2,7.2,0,0,1,.555-2.98,5.511,5.511,0,0,1,1.457-1.986,5.764,5.764,0,0,1,2.026-1.11,7.367,7.367,0,0,1,4.475,0,5.8,5.8,0,0,1,2.013,1.11,5.523,5.523,0,0,1,1.457,1.986,8.275,8.275,0,0,1,0,5.959A5.527,5.527,0,0,1,98.879,77.2a5.31,5.31,0,0,1-2.013,1.07,8.23,8.23,0,0,1-4.475,0,5.289,5.289,0,0,1-2.026-1.07,5.515,5.515,0,0,1-1.457-1.987A7.189,7.189,0,0,1,88.353,72.23Zm2.27,0a11.033,11.033,0,0,0,.194,2.089,5.549,5.549,0,0,0,.658,1.793,3.509,3.509,0,0,0,1.238,1.251,4.151,4.151,0,0,0,3.818,0,3.509,3.509,0,0,0,1.238-1.251,5.549,5.549,0,0,0,.658-1.793,11.35,11.35,0,0,0,0-4.179,5.558,5.558,0,0,0-.658-1.793A3.525,3.525,0,0,0,96.531,67.1a4.159,4.159,0,0,0-3.818,0,3.525,3.525,0,0,0-1.238,1.251,5.558,5.558,0,0,0-.658,1.793A11.044,11.044,0,0,0,90.623,72.23Zm20.922-4.089a2.44,2.44,0,0,0-2.063-.993,3.1,3.1,0,0,0-2.645,1.109A5.085,5.085,0,0,0,106,71.378v2.193q0,1.161.039,2.438t.167,2.309q-.594-.052-1.161-.052t-1.161.052q.129-1.032.168-2.309t.039-2.438V70.888q0-1.161-.039-2.438t-.168-2.386a6.951,6.951,0,0,0,1.161.129,2.9,2.9,0,0,0,.452-.039l.58-.09Q106,67.1,106,68.128h.051a5.407,5.407,0,0,1,1.729-1.716,4.563,4.563,0,0,1,2.4-.606,5.4,5.4,0,0,1,1.458.206,3.494,3.494,0,0,1,1.328.71,3.659,3.659,0,0,1,.968,1.367,5.6,5.6,0,0,1,.374,2.206q0,1.11-.052,2.283t-.051,2.49v1.676c0,.276,0,.546.013.813s.021.52.038.761a10.711,10.711,0,0,0-1.083-.052,10.455,10.455,0,0,0-1.058.052q.051-1.341.116-2.76t.065-2.915V71.069A4.819,4.819,0,0,0,111.545,68.141Zm15.531,7.726a6.36,6.36,0,0,1-.555.89,4.49,4.49,0,0,1-.877.89,4.439,4.439,0,0,1-1.251.671,4.983,4.983,0,0,1-1.677.258,5.7,5.7,0,0,1-1.922-.335,4.332,4.332,0,0,1-1.677-1.1,5.638,5.638,0,0,1-1.187-1.96,8.182,8.182,0,0,1-.451-2.877,7.62,7.62,0,0,1,.49-2.864,6.225,6.225,0,0,1,1.277-2.025,5.148,5.148,0,0,1,1.78-1.212,5.327,5.327,0,0,1,2-.4A3.987,3.987,0,0,1,127,68.386h.052V65.858q0-.981-.013-1.974t-.026-1.9q-.013-.9-.026-1.7t-.038-1.419q.309.053.593.091a4.158,4.158,0,0,0,.568.038,3.875,3.875,0,0,0,.554-.038q.271-.039.607-.091-.078.827-.129,2.387t-.091,3.444q-.039,1.882-.064,3.869t-.026,3.638q0,1.781.026,3.2t.051,2.915a9.931,9.931,0,0,0-1.006-.052,9.7,9.7,0,0,0-.98.052l.077-2.451Zm-7.327-3.405a8.48,8.48,0,0,0,.323,2.554,4.782,4.782,0,0,0,.825,1.612,2.658,2.658,0,0,0,1.148.839,3.711,3.711,0,0,0,1.264.232,2.953,2.953,0,0,0,1.729-.5,4.123,4.123,0,0,0,1.2-1.316,6.13,6.13,0,0,0,.7-1.844,9.918,9.918,0,0,0,.219-2.064,6.341,6.341,0,0,0-.954-3.78,3.268,3.268,0,0,0-2.812-1.3,3,3,0,0,0-1.613.426,3.426,3.426,0,0,0-1.135,1.187,5.892,5.892,0,0,0-.671,1.78A10.367,10.367,0,0,0,119.749,72.462Zm13.389-10.887a1.321,1.321,0,1,1,.387.929A1.264,1.264,0,0,1,133.138,61.575Zm.361,9.313q0-1.161-.038-2.438t-.168-2.386a5.289,5.289,0,0,0,2.322,0q-.129,1.11-.168,2.386t-.039,2.438v2.683q0,1.161.039,2.438t.168,2.309q-.594-.052-1.161-.052t-1.161.052q.129-1.032.168-2.309t.038-2.438Zm8.978-8.281q-.078.981-.116,1.922t-.09,1.9q.284,0,1.057-.013t1.677-.064a1.041,1.041,0,0,0-.026.284v.541a.905.905,0,0,0,.026.258c-.223-.017-.456-.03-.7-.038s-.5-.013-.774-.013h-1.264a8.067,8.067,0,0,0-.065.825q-.039.723-.064,1.716T142.1,72q-.014,1.085-.013,1.935,0,.723.039,1.419a4.236,4.236,0,0,0,.245,1.251,2.022,2.022,0,0,0,.619.89,1.839,1.839,0,0,0,1.187.336,3.91,3.91,0,0,0,.554-.052,4.225,4.225,0,0,0,.607-.129v.619c-.293.052-.615.116-.968.194a4.77,4.77,0,0,1-1.019.116,3.206,3.206,0,0,1-2.4-.8,3.245,3.245,0,0,1-.774-2.347q0-.7.026-1.509t.064-1.78q.039-.969.065-2.142t.026-2.618h-.826c-.138,0-.284,0-.438.013s-.319.021-.491.038c.017-.1.03-.2.039-.3s.013-.194.013-.3a2.476,2.476,0,0,0-.013-.258q-.013-.129-.039-.258,1.161.078,1.7.077c-.017-.343-.03-.774-.039-1.29s-.03-1.048-.064-1.6l2.141-.9Zm5.263-1.032a1.321,1.321,0,1,1,.387.929A1.264,1.264,0,0,1,147.74,61.575Zm.361,9.313q0-1.161-.039-2.438t-.167-2.386a5.285,5.285,0,0,0,2.321,0q-.129,1.11-.167,2.386t-.039,2.438v2.683q0,1.161.039,2.438t.167,2.309q-.593-.052-1.16-.052t-1.161.052q.129-1.032.167-2.309t.039-2.438Zm4.793,1.342a7.2,7.2,0,0,1,.555-2.98,5.513,5.513,0,0,1,1.458-1.986,5.759,5.759,0,0,1,2.025-1.11,7.37,7.37,0,0,1,4.476,0,5.791,5.791,0,0,1,2.012,1.11,5.525,5.525,0,0,1,1.458,1.986,8.289,8.289,0,0,1,0,5.959A5.529,5.529,0,0,1,163.42,77.2a5.306,5.306,0,0,1-2.012,1.07,8.233,8.233,0,0,1-4.476,0,5.285,5.285,0,0,1-2.025-1.07,5.517,5.517,0,0,1-1.458-1.987A7.189,7.189,0,0,1,152.894,72.23Zm2.271,0a11.034,11.034,0,0,0,.193,2.089,5.549,5.549,0,0,0,.658,1.793,3.517,3.517,0,0,0,1.238,1.251,4.151,4.151,0,0,0,3.818,0,3.519,3.519,0,0,0,1.239-1.251,5.6,5.6,0,0,0,.658-1.793,11.407,11.407,0,0,0,0-4.179,5.605,5.605,0,0,0-.658-1.793,3.536,3.536,0,0,0-1.239-1.251,4.159,4.159,0,0,0-3.818,0,3.533,3.533,0,0,0-1.238,1.251,5.558,5.558,0,0,0-.658,1.793A11.044,11.044,0,0,0,155.165,72.23Zm20.922-4.089a2.442,2.442,0,0,0-2.064-.993,3.1,3.1,0,0,0-2.644,1.109,5.079,5.079,0,0,0-.839,3.121v2.193q0,1.161.039,2.438t.168,2.309q-.594-.052-1.161-.052t-1.161.052q.129-1.032.167-2.309t.039-2.438V70.888q0-1.161-.039-2.438t-.167-2.386a6.93,6.93,0,0,0,1.161.129,2.9,2.9,0,0,0,.451-.039l.581-.09q-.078,1.032-.078,2.064h.052a5.4,5.4,0,0,1,1.728-1.716,4.565,4.565,0,0,1,2.4-.606,5.4,5.4,0,0,1,1.458.206,3.5,3.5,0,0,1,1.329.71,3.668,3.668,0,0,1,.967,1.367,5.6,5.6,0,0,1,.374,2.206q0,1.11-.051,2.283t-.052,2.49v1.676c0,.276,0,.546.013.813s.021.52.039.761a10.746,10.746,0,0,0-1.084-.052,10.455,10.455,0,0,0-1.058.052q.053-1.341.116-2.76t.065-2.915V71.069A4.826,4.826,0,0,0,176.087,68.141Zm7.12-6.566a1.321,1.321,0,1,1,.387.929A1.264,1.264,0,0,1,183.207,61.575Zm.361,9.313q0-1.161-.039-2.438t-.167-2.386a5.285,5.285,0,0,0,2.321,0q-.129,1.11-.167,2.386t-.039,2.438v2.683q0,1.161.039,2.438t.167,2.309q-.592-.052-1.16-.052t-1.161.052q.129-1.032.167-2.309t.039-2.438Zm14.292-2.747a2.442,2.442,0,0,0-2.064-.993,3.1,3.1,0,0,0-2.644,1.109,5.085,5.085,0,0,0-.838,3.121v2.193q0,1.161.038,2.438t.168,2.309q-.594-.052-1.161-.052t-1.161.052q.129-1.032.168-2.309t.039-2.438V70.888q0-1.161-.039-2.438t-.168-2.386a6.93,6.93,0,0,0,1.161.129,2.885,2.885,0,0,0,.451-.039l.581-.09q-.078,1.032-.077,2.064h.051a5.4,5.4,0,0,1,1.729-1.716,4.56,4.56,0,0,1,2.4-.606,5.4,5.4,0,0,1,1.457.206,3.49,3.49,0,0,1,1.329.71,3.657,3.657,0,0,1,.967,1.367,5.584,5.584,0,0,1,.374,2.206q0,1.11-.051,2.283t-.052,2.49v1.676c0,.276,0,.546.013.813s.022.52.039.761a10.731,10.731,0,0,0-1.084-.052,10.421,10.421,0,0,0-1.057.052q.051-1.341.116-2.76t.064-2.915V71.069A4.819,4.819,0,0,0,197.86,68.141Zm5.621,1.87a4.2,4.2,0,0,1,.387-1.87,3.587,3.587,0,0,1,1.07-1.3,4.813,4.813,0,0,1,1.574-.774,6.776,6.776,0,0,1,1.9-.258q.491,0,.942.026t1.148.077c.4.035.748.061,1.057.078s.559.025.749.025a11.79,11.79,0,0,0,2.089-.129c-.017.087-.03.177-.039.271s-.012.185-.012.271,0,.177.012.271a2.716,2.716,0,0,0,.039.271q-.749-.051-1.457-.116t-1.406-.09l-.052.051a3.235,3.235,0,0,1,1.29,1.354,3.981,3.981,0,0,1,.49,1.9,3.746,3.746,0,0,1-1.3,3.031,5.251,5.251,0,0,1-3.5,1.1q-.362,0-.71-.025c-.232-.017-.469-.026-.709-.026a1.32,1.32,0,0,0-.864.335,1.063,1.063,0,0,0-.4.851,1.308,1.308,0,0,0,.322.981,1.832,1.832,0,0,0,1.2.335c.481.018.954.03,1.419.039s.937.022,1.419.039a7.545,7.545,0,0,1,2.025.283,3.946,3.946,0,0,1,1.367.7,2.71,2.71,0,0,1,.774,1.006,3.1,3.1,0,0,1,.245,1.238,5.2,5.2,0,0,1-.348,1.832,4.768,4.768,0,0,1-1.084,1.677,5.77,5.77,0,0,1-1.9,1.238,7.142,7.142,0,0,1-2.786.49,6.874,6.874,0,0,1-3.947-.993,3.131,3.131,0,0,1-1.445-2.722,3.1,3.1,0,0,1,.245-1.238,3.751,3.751,0,0,1,.632-1.006,3.064,3.064,0,0,1,.877-.7,4.537,4.537,0,0,1,1.007-.387v-.051a2.257,2.257,0,0,1-1.213-.774,2.067,2.067,0,0,1-.413-1.29,1.876,1.876,0,0,1,.168-.8,2.553,2.553,0,0,1,.426-.645,2.188,2.188,0,0,1,.593-.464,2.093,2.093,0,0,1,.645-.232v-.052a4.343,4.343,0,0,1-1.858-1.457A3.97,3.97,0,0,1,203.481,70.011Zm9.158,11.042a2.438,2.438,0,0,0-.9-2.167,5.463,5.463,0,0,0-2.992-.62,5.863,5.863,0,0,0-2.993.633,2.434,2.434,0,0,0-1.058,2.283,3.438,3.438,0,0,0,.3,1.5,2.72,2.72,0,0,0,.8,1.006,3.29,3.29,0,0,0,1.2.567,5.92,5.92,0,0,0,1.5.181,5.735,5.735,0,0,0,1.523-.206,4.235,4.235,0,0,0,1.328-.619,3.249,3.249,0,0,0,.942-1.045A3,3,0,0,0,212.639,81.053Zm-1.393-11.171a3.56,3.56,0,0,0-.774-2.476,2.915,2.915,0,0,0-4.205.09,3.839,3.839,0,0,0-.774,2.515,4.173,4.173,0,0,0,.709,2.567,2.736,2.736,0,0,0,4.36-.155,3.568,3.568,0,0,0,.516-1.161A5.55,5.55,0,0,0,211.246,69.882Zm13.862.129a4.2,4.2,0,0,1,.387-1.87,3.587,3.587,0,0,1,1.07-1.3,4.813,4.813,0,0,1,1.574-.774,6.776,6.776,0,0,1,1.9-.258q.49,0,.942.026t1.148.077c.4.035.748.061,1.057.078s.559.025.749.025a11.8,11.8,0,0,0,2.089-.129c-.017.087-.03.177-.039.271s-.012.185-.012.271,0,.177.012.271a2.716,2.716,0,0,0,.039.271q-.749-.051-1.457-.116t-1.406-.09l-.052.051a3.235,3.235,0,0,1,1.29,1.354,3.981,3.981,0,0,1,.49,1.9,3.749,3.749,0,0,1-1.3,3.031,5.251,5.251,0,0,1-3.5,1.1q-.361,0-.71-.025c-.232-.017-.469-.026-.709-.026a1.32,1.32,0,0,0-.864.335,1.063,1.063,0,0,0-.4.851,1.308,1.308,0,0,0,.322.981,1.832,1.832,0,0,0,1.2.335c.481.018.954.03,1.419.039s.937.022,1.418.039a7.547,7.547,0,0,1,2.026.283,3.946,3.946,0,0,1,1.367.7,2.71,2.71,0,0,1,.774,1.006,3.1,3.1,0,0,1,.245,1.238,5.2,5.2,0,0,1-.348,1.832,4.768,4.768,0,0,1-1.084,1.677,5.77,5.77,0,0,1-1.9,1.238,7.142,7.142,0,0,1-2.786.49,6.874,6.874,0,0,1-3.947-.993,3.131,3.131,0,0,1-1.445-2.722,3.078,3.078,0,0,1,.245-1.238,3.751,3.751,0,0,1,.632-1.006,3.064,3.064,0,0,1,.877-.7,4.548,4.548,0,0,1,1.006-.387v-.051a2.258,2.258,0,0,1-1.212-.774,2.067,2.067,0,0,1-.413-1.29,1.876,1.876,0,0,1,.168-.8,2.577,2.577,0,0,1,.425-.645,2.208,2.208,0,0,1,.594-.464,2.084,2.084,0,0,1,.645-.232v-.052a4.343,4.343,0,0,1-1.858-1.457A3.97,3.97,0,0,1,225.108,70.011Zm9.158,11.042a2.438,2.438,0,0,0-.9-2.167,5.467,5.467,0,0,0-2.993-.62,5.862,5.862,0,0,0-2.992.633,2.434,2.434,0,0,0-1.058,2.283,3.438,3.438,0,0,0,.3,1.5,2.72,2.72,0,0,0,.8,1.006,3.29,3.29,0,0,0,1.2.567,5.92,5.92,0,0,0,1.5.181,5.735,5.735,0,0,0,1.523-.206,4.235,4.235,0,0,0,1.328-.619,3.249,3.249,0,0,0,.942-1.045A3,3,0,0,0,234.266,81.053Zm-1.393-11.171a3.56,3.56,0,0,0-.774-2.476,2.915,2.915,0,0,0-4.2.09,3.839,3.839,0,0,0-.774,2.515,4.173,4.173,0,0,0,.709,2.567,2.736,2.736,0,0,0,4.36-.155,3.568,3.568,0,0,0,.516-1.161A5.55,5.55,0,0,0,232.873,69.882Zm9.7,8.462q-.285-.7-.735-1.806T240.87,74.2q-.516-1.224-1.058-2.5t-1.019-2.4l-.838-1.974q-.362-.851-.542-1.264.336.053.619.09a4.156,4.156,0,0,0,1.136,0q.284-.037.619-.09.8,2.477,1.78,4.9t2.064,5q1.083-2.27,2.076-4.85t1.767-5.056a2.875,2.875,0,0,0,1.7,0q-.18.362-.58,1.225l-.955,2.064q-.555,1.2-1.212,2.657T245.088,75q-.684,1.534-1.354,3.044T242.5,80.911q-.569,1.354-.994,2.45T240.87,85.1a3.046,3.046,0,0,0-1.754,0A52.426,52.426,0,0,0,242.573,78.344Zm9.274-9.894q-.039-1.276-.167-2.386a6.93,6.93,0,0,0,1.16.129,2.9,2.9,0,0,0,.452-.039l.58-.09q-.077,1.032-.077,2.064h.052A4.32,4.32,0,0,1,258.954,66a4.413,4.413,0,0,1,1.123.529,3.556,3.556,0,0,1,.864.813,2.72,2.72,0,0,1,.49,1.019h.052a4.545,4.545,0,0,1,1.689-1.9,4.607,4.607,0,0,1,2.464-.658,5.113,5.113,0,0,1,1.574.232,3.186,3.186,0,0,1,2.077,1.987,5.212,5.212,0,0,1,.3,1.857q0,.439-.026.955t-.051,1.2q-.025.684-.052,1.548t-.026,2q0,.7.013,1.342t.065,1.393a3.126,3.126,0,0,0-.568-.052h-1.109a3.118,3.118,0,0,0-.568.052q.078-.645.168-2.606t.09-5.469a5.015,5.015,0,0,0-.141-1.212,2.734,2.734,0,0,0-.452-.981,2.175,2.175,0,0,0-.825-.657,3,3,0,0,0-1.29-.245,3.175,3.175,0,0,0-1.574.361,3.123,3.123,0,0,0-1.006.851,2.71,2.71,0,0,0-.323.568,3.45,3.45,0,0,0-.18.864c-.043.387-.074.928-.09,1.625s-.026,1.656-.026,2.877q0,1.109.038,2.025t.091,2q-.594-.052-1.135-.052t-1.135.052q.127-1.419.18-2.889t.052-2.89q0-1.212-.013-1.9a10.357,10.357,0,0,0-.065-1.083,3.3,3.3,0,0,0-.142-.658,4.965,4.965,0,0,0-.245-.568,2.341,2.341,0,0,0-.89-.838,2.481,2.481,0,0,0-1.251-.348,2.876,2.876,0,0,0-2.5,1.109,5.262,5.262,0,0,0-.8,3.121v2.193q0,1.161.039,2.438T254,78.318q-.594-.052-1.161-.052t-1.16.052q.127-1.032.167-2.309t.039-2.438V70.888Q251.886,69.727,251.847,68.45ZM75.666,36.651q0-3.027-.119-5.962t-.262-5.87q1.239.091,2.526.16t2.526.069q1.239,0,2.526-.115t2.526-.114a23.761,23.761,0,0,1,3.861.3,9.977,9.977,0,0,1,3.193,1.055,5.569,5.569,0,0,1,3,5.251,6.678,6.678,0,0,1-2.216,5.32,12.826,12.826,0,0,1-5.791,2.706v.091a12.09,12.09,0,0,1,6.7,1.972q2.454,1.789,2.455,5.733a7.942,7.942,0,0,1-1.1,4.311,8.672,8.672,0,0,1-2.859,2.821,12.031,12.031,0,0,1-3.885,1.513,20.878,20.878,0,0,1-4.218.436q-1.143,0-2.311-.046t-2.312-.046H77.6q-1.168,0-2.312.092.142-2.934.262-5.847t.119-5.94ZM82.148,38.9a17.174,17.174,0,0,0,3.313-.321A9.208,9.208,0,0,0,88.392,37.5a5.62,5.62,0,0,0,2.86-5.206,5.548,5.548,0,0,0-.715-3,5.118,5.118,0,0,0-1.811-1.742,7.153,7.153,0,0,0-2.479-.826,18.643,18.643,0,0,0-2.764-.206q-1.24,0-2.1.068t-1.526.161q-.1,2.2-.19,4.357t-.095,4.357V38.9Zm-2.573,6.375q0,2.338.095,4.632t.19,4.632q.906.093,2.145.161t2.526.069a8.594,8.594,0,0,0,2.931-.505,6.983,6.983,0,0,0,2.455-1.49,7.158,7.158,0,0,0,1.668-2.431,8.247,8.247,0,0,0,.62-3.279,6.338,6.338,0,0,0-.739-3.233,5.1,5.1,0,0,0-2.121-1.973,10.481,10.481,0,0,0-3.312-.986,30.82,30.82,0,0,0-4.314-.275H79.575ZM107.8,30.758q-.12-2.911-.263-5.939.62.091,1.192.16a9.518,9.518,0,0,0,2.288,0q.572-.069,1.191-.16-.142,3.027-.262,5.939T111.83,36.7q0,5.778.048,10.021t.095,7.59q3.384,0,6.482-.069a63.758,63.758,0,0,0,6.673-.527,5.107,5.107,0,0,0-.239,1.376,4.114,4.114,0,0,0,.239,1.238q-2.193-.093-4.385-.092h-8.794q-2.121,0-4.409.092.144-2.844.263-5.779t.119-5.962V36.7Q107.922,33.67,107.8,30.758Zm26.989-.069q-.119-2.934-.262-5.87,2.145.091,4.266.16t4.266.069q2.144,0,4.242-.069t4.241-.16a6.692,6.692,0,0,0,0,2.752q-1.525-.093-2.788-.184t-2.669-.183q-1.405-.091-3.074-.161t-4-.069q-.048,1.468-.119,2.8T138.82,32.8q0,1.788.024,3.485t.023,2.568q2.1,0,3.766-.045t3.05-.115q1.382-.069,2.55-.138t2.216-.16a6.992,6.992,0,0,0-.143,1.422,6.759,6.759,0,0,0,.143,1.375q-1.239-.136-2.883-.229t-3.289-.115l-3.1-.045q-1.455-.023-2.312-.023,0,.413-.023.894c-.017.321-.024.727-.024,1.215v4.541q0,2.614.024,4.311t.071,2.568h3.336q1.812,0,3.551-.069t3.289-.183a22.15,22.15,0,0,0,2.693-.344,3.157,3.157,0,0,0-.12.711c-.016.26-.023.5-.023.711a4.074,4.074,0,0,0,.143,1.192q-2.145-.093-4.266-.092h-8.651q-2.143,0-4.337.092.144-2.934.262-5.847t.12-5.94V36.651Q134.912,33.624,134.792,30.689Zm28.83,21.349a7.683,7.683,0,0,0,1.573,1.536,8.148,8.148,0,0,0,2.169,1.124,8.271,8.271,0,0,0,2.764.436,7.3,7.3,0,0,0,2.836-.528,6.46,6.46,0,0,0,2.144-1.422,6.183,6.183,0,0,0,1.359-2.109,7.047,7.047,0,0,0,.476-2.591,4.8,4.8,0,0,0-1.12-3.348,9.212,9.212,0,0,0-2.788-2.064,33.278,33.278,0,0,0-3.6-1.514,18.85,18.85,0,0,1-3.6-1.719A9.369,9.369,0,0,1,163.05,37.2a7.4,7.4,0,0,1-1.12-4.311,8.417,8.417,0,0,1,.715-3.508,7.68,7.68,0,0,1,2.073-2.729,9.906,9.906,0,0,1,3.265-1.788,13.394,13.394,0,0,1,4.29-.642,13.211,13.211,0,0,1,3.956.527,9.989,9.989,0,0,1,3.1,1.628,9.736,9.736,0,0,0-.714,1.651,21.951,21.951,0,0,0-.572,2.2h-.572a11.579,11.579,0,0,0-.644-1.4,5.377,5.377,0,0,0-1.1-1.4,6.17,6.17,0,0,0-1.644-1.078,5.484,5.484,0,0,0-2.288-.436,7.055,7.055,0,0,0-2.455.413,5.916,5.916,0,0,0-1.954,1.17,5.15,5.15,0,0,0-1.286,1.811,5.736,5.736,0,0,0-.453,2.293A4.869,4.869,0,0,0,166.768,35a9.516,9.516,0,0,0,2.788,2.087,28.043,28.043,0,0,0,3.6,1.513,20.673,20.673,0,0,1,3.6,1.628,9.068,9.068,0,0,1,2.788,2.477,6.637,6.637,0,0,1,1.12,4.036,10.244,10.244,0,0,1-.786,3.99,9.382,9.382,0,0,1-2.288,3.279,10.254,10.254,0,0,1-3.67,2.155,14.919,14.919,0,0,1-4.933.757,12.723,12.723,0,0,1-4.79-.757,13.152,13.152,0,0,1-3.074-1.719,10.577,10.577,0,0,0,.6-1.9q.166-.848.309-2.178h.572A9.127,9.127,0,0,0,163.622,52.038Zm26.953,0a7.708,7.708,0,0,0,1.573,1.536,8.148,8.148,0,0,0,2.169,1.124,8.275,8.275,0,0,0,2.764.436,7.288,7.288,0,0,0,2.836-.528,6.464,6.464,0,0,0,2.145-1.422,6.2,6.2,0,0,0,1.358-2.109,7.048,7.048,0,0,0,.477-2.591,4.807,4.807,0,0,0-1.12-3.348,9.217,9.217,0,0,0-2.789-2.064,33.278,33.278,0,0,0-3.6-1.514,18.812,18.812,0,0,1-3.6-1.719A9.373,9.373,0,0,1,190,37.2a7.4,7.4,0,0,1-1.12-4.311,8.432,8.432,0,0,1,.715-3.508,7.671,7.671,0,0,1,2.074-2.729,9.891,9.891,0,0,1,3.264-1.788,13.4,13.4,0,0,1,4.29-.642,13.211,13.211,0,0,1,3.956.527,9.983,9.983,0,0,1,3.1,1.628,9.739,9.739,0,0,0-.715,1.651,22.227,22.227,0,0,0-.572,2.2h-.572a11.562,11.562,0,0,0-.643-1.4,5.381,5.381,0,0,0-1.1-1.4,6.17,6.17,0,0,0-1.644-1.078,5.484,5.484,0,0,0-2.288-.436,7.045,7.045,0,0,0-2.454.413,5.9,5.9,0,0,0-1.954,1.17,5.14,5.14,0,0,0-1.287,1.811,5.736,5.736,0,0,0-.453,2.293A4.869,4.869,0,0,0,193.721,35a9.53,9.53,0,0,0,2.788,2.087,28.058,28.058,0,0,0,3.6,1.513,20.7,20.7,0,0,1,3.6,1.628,9.068,9.068,0,0,1,2.788,2.477,6.637,6.637,0,0,1,1.12,4.036,10.244,10.244,0,0,1-.786,3.99,9.368,9.368,0,0,1-2.288,3.279,10.246,10.246,0,0,1-3.67,2.155,14.914,14.914,0,0,1-4.933.757,12.723,12.723,0,0,1-4.79-.757,13.172,13.172,0,0,1-3.074-1.719,10.577,10.577,0,0,0,.6-1.9q.166-.848.31-2.178h.572A9.12,9.12,0,0,0,190.575,52.038Zm25.844-21.349q-.119-2.934-.262-5.87,2.145.091,4.266.16t4.265.069q2.145,0,4.242-.069t4.242-.16a6.692,6.692,0,0,0,0,2.752q-1.525-.093-2.788-.184t-2.669-.183q-1.407-.091-3.074-.161t-4-.069q-.048,1.468-.119,2.8t-.071,3.027q0,1.788.023,3.485t.024,2.568q2.1,0,3.765-.045t3.051-.115q1.381-.069,2.55-.138t2.216-.16a6.992,6.992,0,0,0-.143,1.422,6.759,6.759,0,0,0,.143,1.375q-1.24-.136-2.884-.229t-3.288-.115l-3.1-.045q-1.455-.023-2.312-.023,0,.413-.024.894c-.016.321-.023.727-.023,1.215v4.541q0,2.614.023,4.311t.072,2.568h3.336q1.811,0,3.551-.069t3.289-.183a22.105,22.105,0,0,0,2.692-.344,3.159,3.159,0,0,0-.119.711q-.024.39-.024.711a4.108,4.108,0,0,0,.143,1.192q-2.143-.093-4.265-.092h-8.651q-2.145,0-4.337.092.143-2.934.262-5.847t.119-5.94V36.651Q216.538,33.624,216.419,30.689ZM242.787,36.7q0-3.027-.119-5.939t-.262-5.939q1.81.091,3.6.16t3.6.069q1.81,0,3.6-.115t3.6-.114a21.591,21.591,0,0,1,7.173,1.055,12.569,12.569,0,0,1,4.885,3,11.693,11.693,0,0,1,2.788,4.769A21.251,21.251,0,0,1,272.528,40a16.516,16.516,0,0,1-1.644,7.728,14.89,14.89,0,0,1-4.195,5.068,15.893,15.893,0,0,1-5.624,2.728,23.249,23.249,0,0,1-5.886.8q-1.621,0-3.193-.046t-3.194-.046H245.6q-1.572,0-3.193.092.142-2.844.262-5.779t.119-5.962Zm3.908,7.888q0,4.953.286,9.723a18.091,18.091,0,0,0,2.717.344q1.716.115,3.527.115a23.552,23.552,0,0,0,5.243-.6,11.538,11.538,0,0,0,4.694-2.247,12.034,12.034,0,0,0,3.384-4.517A17.918,17.918,0,0,0,267.857,40a17.883,17.883,0,0,0-1.025-6.558,9.96,9.96,0,0,0-2.812-4.059,10.118,10.118,0,0,0-4.266-2.064,24.117,24.117,0,0,0-5.433-.573q-2.145,0-4,.138t-3.337.321q-.142,2.2-.214,4.609T246.7,36.7Z"/></svg>