<svg xmlns="http://www.w3.org/2000/svg" viewBox="0 0 197.243 32.416"><defs><style>.a{fill:#fff;}</style></defs><path class="a" d="M.381,12.429Q.381,9.4.262,6.466T0,.6Q1.239.689,2.526.757T5.052.826q1.239,0,2.526-.115T10.1.6a23.873,23.873,0,0,1,3.861.3,10,10,0,0,1,3.193,1.055A5.9,5.9,0,0,1,19.351,3.99a5.91,5.91,0,0,1,.81,3.21,6.678,6.678,0,0,1-2.216,5.32,12.815,12.815,0,0,1-5.791,2.706v.092a12.082,12.082,0,0,1,6.7,1.972q2.454,1.788,2.455,5.733a7.946,7.946,0,0,1-1.1,4.311,8.679,8.679,0,0,1-2.859,2.82,12.01,12.01,0,0,1-3.885,1.514,20.876,20.876,0,0,1-4.218.435q-1.143,0-2.311-.046t-2.312-.045H2.312q-1.168,0-2.312.091.143-2.934.262-5.847t.119-5.939Zm6.482,2.247a17.253,17.253,0,0,0,3.313-.321,9.209,9.209,0,0,0,2.931-1.078,5.969,5.969,0,0,0,2.073-2.018,5.918,5.918,0,0,0,.787-3.187,5.544,5.544,0,0,0-.715-3,5.121,5.121,0,0,0-1.811-1.743A7.153,7.153,0,0,0,10.962,2.5,18.779,18.779,0,0,0,8.2,2.293q-1.24,0-2.1.069t-1.525.16q-.1,2.2-.191,4.357T4.29,11.236v3.44ZM4.29,21.051q0,2.339.095,4.632t.191,4.632q.9.091,2.144.16t2.526.069a8.618,8.618,0,0,0,2.931-.5,6.971,6.971,0,0,0,2.455-1.491A7.148,7.148,0,0,0,16.3,26.118a8.243,8.243,0,0,0,.62-3.279,6.338,6.338,0,0,0-.739-3.233,5.094,5.094,0,0,0-2.121-1.972,10.429,10.429,0,0,0-3.312-.986,30.668,30.668,0,0,0-4.314-.275H4.29ZM32.518,6.535Q32.4,3.624,32.255.6q.619.093,1.192.161a9.544,9.544,0,0,0,1.144.069A9.556,9.556,0,0,0,35.735.757Q36.307.688,36.926.6q-.142,3.027-.262,5.939t-.119,5.939q0,5.78.048,10.021t.095,7.59q3.384,0,6.482-.068a63.773,63.773,0,0,0,6.673-.528,5.113,5.113,0,0,0-.239,1.376,4.1,4.1,0,0,0,.239,1.238q-2.193-.092-4.385-.091H36.664q-2.121,0-4.409.091.144-2.843.263-5.778t.119-5.962V12.474Q32.637,9.449,32.518,6.535Zm26.989-.069Q59.388,3.532,59.245.6q2.145.093,4.266.161t4.266.069q2.144,0,4.242-.069T76.26.6a6.692,6.692,0,0,0,0,2.752q-1.526-.091-2.788-.184T70.8,2.981q-1.405-.091-3.074-.16t-4-.069q-.048,1.467-.119,2.8t-.071,3.027q0,1.79.024,3.486t.023,2.568q2.1,0,3.766-.046t3.05-.115q1.382-.068,2.55-.137t2.216-.161a7,7,0,0,0-.143,1.422,6.769,6.769,0,0,0,.143,1.376q-1.239-.138-2.883-.229t-3.289-.115q-1.644-.023-3.1-.046t-2.312-.023q0,.412-.023.895c-.017.321-.024.726-.024,1.215v4.54q0,2.615.024,4.311t.071,2.568h3.336q1.812,0,3.551-.068t3.289-.184a21.953,21.953,0,0,0,2.693-.344,3.177,3.177,0,0,0-.12.711c-.016.26-.023.5-.023.711A4.074,4.074,0,0,0,76.5,32.1q-2.145-.092-4.266-.091H63.582q-2.144,0-4.337.091.144-2.934.262-5.847t.12-5.939V12.429Q59.627,9.4,59.507,6.466Zm28.83,21.349a7.713,7.713,0,0,0,1.573,1.537,8.175,8.175,0,0,0,2.169,1.123,8.271,8.271,0,0,0,2.764.436,7.313,7.313,0,0,0,2.836-.527,6.475,6.475,0,0,0,2.144-1.422,6.178,6.178,0,0,0,1.359-2.11,7.043,7.043,0,0,0,.476-2.591,4.8,4.8,0,0,0-1.12-3.348,9.245,9.245,0,0,0-2.788-2.064,33.278,33.278,0,0,0-3.6-1.513,18.853,18.853,0,0,1-3.6-1.72,9.366,9.366,0,0,1-2.788-2.637,7.4,7.4,0,0,1-1.12-4.311,8.421,8.421,0,0,1,.715-3.509,7.677,7.677,0,0,1,2.073-2.728A9.907,9.907,0,0,1,92.7.642,13.394,13.394,0,0,1,96.988,0a13.211,13.211,0,0,1,3.956.527,9.992,9.992,0,0,1,3.1,1.629,9.726,9.726,0,0,0-.714,1.65,22.1,22.1,0,0,0-.572,2.2h-.572a11.65,11.65,0,0,0-.644-1.4,5.41,5.41,0,0,0-1.1-1.4A6.144,6.144,0,0,0,98.8,2.133,5.469,5.469,0,0,0,96.511,1.7a7.031,7.031,0,0,0-2.455.413A5.931,5.931,0,0,0,92.1,3.279a5.163,5.163,0,0,0-1.286,1.812,5.729,5.729,0,0,0-.453,2.293,4.872,4.872,0,0,0,1.12,3.394,9.514,9.514,0,0,0,2.788,2.086,28.045,28.045,0,0,0,3.6,1.514,20.6,20.6,0,0,1,3.6,1.628,9.065,9.065,0,0,1,2.788,2.476,6.637,6.637,0,0,1,1.12,4.036,10.237,10.237,0,0,1-.786,3.99,9.382,9.382,0,0,1-2.288,3.279,10.271,10.271,0,0,1-3.67,2.156A14.945,14.945,0,0,1,93.7,32.7a12.743,12.743,0,0,1-4.79-.757,13.188,13.188,0,0,1-3.074-1.72,10.569,10.569,0,0,0,.6-1.9q.166-.849.309-2.179h.572A9.061,9.061,0,0,0,88.337,27.815Zm26.953,0a7.738,7.738,0,0,0,1.573,1.537,8.175,8.175,0,0,0,2.169,1.123,8.275,8.275,0,0,0,2.764.436,7.306,7.306,0,0,0,2.836-.527,6.479,6.479,0,0,0,2.145-1.422,6.19,6.19,0,0,0,1.358-2.11,7.044,7.044,0,0,0,.477-2.591,4.808,4.808,0,0,0-1.12-3.348,9.25,9.25,0,0,0-2.789-2.064,33.278,33.278,0,0,0-3.6-1.513,18.815,18.815,0,0,1-3.6-1.72,9.369,9.369,0,0,1-2.789-2.637,7.4,7.4,0,0,1-1.12-4.311,8.437,8.437,0,0,1,.715-3.509,7.668,7.668,0,0,1,2.074-2.728A9.892,9.892,0,0,1,119.651.642,13.4,13.4,0,0,1,123.941,0,13.211,13.211,0,0,1,127.9.527,9.986,9.986,0,0,1,131,2.156a9.729,9.729,0,0,0-.715,1.65,22.376,22.376,0,0,0-.572,2.2h-.572a11.632,11.632,0,0,0-.643-1.4,5.414,5.414,0,0,0-1.1-1.4,6.144,6.144,0,0,0-1.644-1.077,5.469,5.469,0,0,0-2.288-.436,7.022,7.022,0,0,0-2.454.413,5.911,5.911,0,0,0-1.954,1.169,5.152,5.152,0,0,0-1.287,1.812,5.729,5.729,0,0,0-.453,2.293,4.872,4.872,0,0,0,1.12,3.394,9.527,9.527,0,0,0,2.788,2.086,28.06,28.06,0,0,0,3.6,1.514,20.622,20.622,0,0,1,3.6,1.628,9.065,9.065,0,0,1,2.788,2.476,6.637,6.637,0,0,1,1.12,4.036,10.237,10.237,0,0,1-.786,3.99,9.368,9.368,0,0,1-2.288,3.279,10.262,10.262,0,0,1-3.67,2.156,14.94,14.94,0,0,1-4.933.757,12.743,12.743,0,0,1-4.79-.757,13.209,13.209,0,0,1-3.074-1.72,10.569,10.569,0,0,0,.6-1.9q.166-.849.31-2.179h.572A9.054,9.054,0,0,0,115.29,27.815ZM141.134,6.466q-.118-2.934-.262-5.87,2.145.093,4.266.161T149.4.826q2.145,0,4.242-.069T157.887.6a6.692,6.692,0,0,0,0,2.752q-1.525-.091-2.788-.184t-2.669-.183q-1.407-.091-3.074-.16t-4-.069q-.048,1.467-.119,2.8t-.071,3.027q0,1.79.023,3.486t.024,2.568q2.1,0,3.765-.046t3.051-.115q1.381-.068,2.55-.137t2.216-.161a7,7,0,0,0-.143,1.422,6.769,6.769,0,0,0,.143,1.376q-1.24-.138-2.884-.229t-3.288-.115q-1.644-.023-3.1-.046t-2.312-.023q0,.412-.024.895t-.023,1.215v4.54q0,2.615.023,4.311t.072,2.568h3.336q1.811,0,3.551-.068t3.289-.184a21.909,21.909,0,0,0,2.692-.344,3.178,3.178,0,0,0-.119.711c-.016.26-.024.5-.024.711a4.108,4.108,0,0,0,.143,1.192q-2.144-.092-4.265-.091h-8.651q-2.145,0-4.337.091.142-2.934.262-5.847t.119-5.939V12.429Q141.253,9.4,141.134,6.466ZM167.5,12.474q0-3.025-.119-5.939T167.121.6q1.81.093,3.6.161t3.6.069q1.81,0,3.6-.115t3.6-.115a21.591,21.591,0,0,1,7.173,1.055,12.592,12.592,0,0,1,4.885,3,11.7,11.7,0,0,1,2.788,4.77,21.242,21.242,0,0,1,.882,6.352A16.515,16.515,0,0,1,195.6,23.5a14.871,14.871,0,0,1-4.195,5.068A15.912,15.912,0,0,1,185.78,31.3a23.292,23.292,0,0,1-5.886.8q-1.622,0-3.193-.046t-3.194-.045h-3.193q-1.572,0-3.193.091.143-2.843.262-5.778t.119-5.962Zm3.908,7.889q0,4.953.286,9.722a17.961,17.961,0,0,0,2.717.344q1.716.116,3.527.115a23.55,23.55,0,0,0,5.243-.6,11.551,11.551,0,0,0,4.694-2.247,12.038,12.038,0,0,0,3.384-4.518,17.912,17.912,0,0,0,1.311-7.406,17.892,17.892,0,0,0-1.025-6.559,9.96,9.96,0,0,0-2.812-4.059A10.105,10.105,0,0,0,184.469,3.1a24.115,24.115,0,0,0-5.433-.574q-2.145,0-4,.138t-3.337.321q-.143,2.2-.214,4.609t-.072,4.884Z"/></svg>