<svg xmlns="http://www.w3.org/2000/svg" viewBox="0 0 133.088 49.686"><path d="M1.274,1.08H12a9.253,9.253,0,0,1,6.587,2.232,5.6,5.6,0,0,1,1.62,4.031v.072a6.083,6.083,0,0,1-4,5.832c2.988.9,5.4,2.627,5.4,6.083V19.4c0,4.319-3.635,6.875-9.143,6.875H1.274ZM17.329,7.739c0-2.484-1.98-4.1-5.58-4.1H4.082v8.675h7.451c3.42,0,5.8-1.548,5.8-4.5ZM12.037,14.83H4.082v8.891h8.459c3.815,0,6.191-1.692,6.191-4.5V19.15C18.732,16.414,16.429,14.83,12.037,14.83ZM27.05,0h2.772V26.277H27.05Zm8.064,17.026v-.072c0-5.363,3.779-9.683,8.927-9.683,5.507,0,8.674,4.392,8.674,9.827a7.435,7.435,0,0,1-.035.9H37.921c.4,4.031,3.24,6.3,6.552,6.3a7.7,7.7,0,0,0,5.867-2.628l1.727,1.548A9.6,9.6,0,0,1,44.4,26.709C39.289,26.709,35.114,22.785,35.114,17.026Zm14.794-1.08c-.288-3.384-2.232-6.335-5.939-6.335-3.24,0-5.688,2.7-6.048,6.335ZM56.03,23.9l1.4-1.98A10.875,10.875,0,0,0,63.877,24.3c2.231,0,3.851-1.152,3.851-2.951v-.073c0-1.871-2.195-2.591-4.643-3.275-2.916-.828-6.155-1.836-6.155-5.255V12.67c0-3.2,2.663-5.327,6.335-5.327A12.721,12.721,0,0,1,69.96,9.4L68.7,11.483a10.52,10.52,0,0,0-5.507-1.8c-2.2,0-3.6,1.152-3.6,2.7v.072c0,1.763,2.3,2.447,4.788,3.2,2.879.864,5.975,1.98,5.975,5.327v.073c0,3.527-2.916,5.579-6.623,5.579A12.8,12.8,0,0,1,56.03,23.9Zm17.928,0,1.4-1.98A10.88,10.88,0,0,0,81.805,24.3c2.231,0,3.851-1.152,3.851-2.951v-.073c0-1.871-2.2-2.591-4.643-3.275-2.916-.828-6.156-1.836-6.156-5.255V12.67c0-3.2,2.664-5.327,6.335-5.327a12.724,12.724,0,0,1,6.7,2.052l-1.26,2.088a10.523,10.523,0,0,0-5.507-1.8c-2.2,0-3.6,1.152-3.6,2.7v.072c0,1.763,2.3,2.447,4.788,3.2,2.879.864,5.975,1.98,5.975,5.327v.073c0,3.527-2.916,5.579-6.623,5.579A12.8,12.8,0,0,1,73.958,23.9Zm18.323-6.875v-.072c0-5.363,3.78-9.683,8.927-9.683,5.507,0,8.675,4.392,8.675,9.827a7.23,7.23,0,0,1-.036.9H95.089c.4,4.031,3.24,6.3,6.551,6.3a7.7,7.7,0,0,0,5.867-2.628l1.728,1.548a9.6,9.6,0,0,1-7.667,3.492C96.457,26.709,92.281,22.785,92.281,17.026Zm14.794-1.08c-.288-3.384-2.231-6.335-5.939-6.335-3.24,0-5.687,2.7-6.047,6.335Zm6.59,1.08v-.072c0-6.083,4.428-9.683,8.891-9.683a8.4,8.4,0,0,1,7.127,3.96V0h2.772V26.277h-2.772V22.533a8.366,8.366,0,0,1-7.127,4.14C118.093,26.673,113.665,23.145,113.665,17.026Zm16.126-.036v-.072a6.916,6.916,0,0,0-6.731-7.163c-3.6,0-6.551,2.663-6.551,7.163v.072c0,4.391,3.059,7.2,6.551,7.2A6.949,6.949,0,0,0,129.791,16.99ZM0,42.528V42.5a4.939,4.939,0,0,1,4.958-5.07,5.107,5.107,0,0,1,3.825,1.554l-.757.813a4.259,4.259,0,0,0-3.082-1.345,3.844,3.844,0,0,0-3.8,4.02V42.5a3.869,3.869,0,0,0,3.8,4.048A4.257,4.257,0,0,0,8.11,45.134l.729.714a5.106,5.106,0,0,1-3.922,1.723A4.891,4.891,0,0,1,0,42.528Zm10.836,1.289v-.028a3.775,3.775,0,0,1,7.55-.028v.028a3.76,3.76,0,0,1-3.8,3.782A3.71,3.71,0,0,1,10.836,43.817Zm6.443,0v-.028a2.74,2.74,0,0,0-2.689-2.83,2.674,2.674,0,0,0-2.648,2.8v.028A2.717,2.717,0,0,0,14.618,46.6,2.671,2.671,0,0,0,17.279,43.817Zm3.749-3.656h1.078v1.26a2.744,2.744,0,0,1,2.48-1.414,2.645,2.645,0,0,1,2.773,2.9v4.5H26.281V43.172a1.931,1.931,0,0,0-2-2.185,2.132,2.132,0,0,0-2.172,2.27V47.4H21.028Zm8.9,3.642v-.028a3.554,3.554,0,0,1,3.46-3.768,3.266,3.266,0,0,1,2.773,1.541V37.177h1.079V47.4H36.165V45.946a3.255,3.255,0,0,1-2.773,1.611A3.533,3.533,0,0,1,29.932,43.8Zm6.276-.014v-.028a2.692,2.692,0,0,0-2.62-2.788,2.556,2.556,0,0,0-2.549,2.788v.028a2.615,2.615,0,0,0,2.549,2.8A2.7,2.7,0,0,0,36.208,43.789Zm4.167-6.4h1.233v1.191H40.375Zm.071,2.774h1.078V47.4H40.446Zm4.662,5.323V41.113H44.1v-.952h1.009V37.976h1.079v2.185h2.3v.952h-2.3v4.231a1.071,1.071,0,0,0,1.218,1.2,2.261,2.261,0,0,0,1.051-.252v.925a2.718,2.718,0,0,1-1.3.308A1.843,1.843,0,0,1,45.108,45.484Zm6.006-8.1h1.232v1.191H51.114Zm.07,2.774h1.078V47.4H51.184Zm3.835,3.656v-.028a3.775,3.775,0,0,1,7.55-.028v.028a3.761,3.761,0,0,1-3.8,3.782A3.71,3.71,0,0,1,55.019,43.817Zm6.443,0v-.028a2.741,2.741,0,0,0-2.69-2.83,2.673,2.673,0,0,0-2.647,2.8v.028A2.717,2.717,0,0,0,58.8,46.6,2.671,2.671,0,0,0,61.462,43.817Zm3.749-3.656H66.29v1.26a2.741,2.741,0,0,1,2.479-1.414,2.645,2.645,0,0,1,2.773,2.9v4.5H70.464V43.172a1.931,1.931,0,0,0-2-2.185,2.131,2.131,0,0,0-2.171,2.27V47.4H65.211Zm9.352-2.774H75.8v1.191H74.563Zm.07,2.774h1.078V47.4H74.633Zm4.284,0H80v1.26a2.743,2.743,0,0,1,2.48-1.414,2.645,2.645,0,0,1,2.773,2.9v4.5H84.169V43.172a1.93,1.93,0,0,0-2-2.185A2.131,2.131,0,0,0,80,43.257V47.4H78.917Zm9.24,8.5.49-.841a4.631,4.631,0,0,0,2.788.925,2.381,2.381,0,0,0,2.633-2.578v-.854a3.434,3.434,0,0,1-2.843,1.527,3.348,3.348,0,0,1-3.4-3.39v-.028a3.428,3.428,0,0,1,6.233-1.961v-1.3h1.078v5.981a3.492,3.492,0,0,1-.924,2.564,3.81,3.81,0,0,1-2.759.966A5.679,5.679,0,0,1,88.157,48.664ZM94.1,43.438v-.027a2.538,2.538,0,0,0-2.661-2.452A2.4,2.4,0,0,0,88.927,43.4v.029a2.452,2.452,0,0,0,2.508,2.465A2.555,2.555,0,0,0,94.1,43.438Zm8.956,5.226.49-.841a4.631,4.631,0,0,0,2.788.925,2.38,2.38,0,0,0,2.633-2.578v-.854a3.433,3.433,0,0,1-2.843,1.527,3.349,3.349,0,0,1-3.4-3.39v-.028a3.428,3.428,0,0,1,6.233-1.961v-1.3h1.079v5.981a3.492,3.492,0,0,1-.924,2.564,3.811,3.811,0,0,1-2.76.966A5.681,5.681,0,0,1,103.052,48.664Zm5.94-5.226v-.027a2.538,2.538,0,0,0-2.662-2.452,2.4,2.4,0,0,0-2.507,2.437v.029a2.451,2.451,0,0,0,2.507,2.465A2.556,2.556,0,0,0,108.992,43.438Zm9.561-3.277H119.7l-3.04,7.48c-.617,1.5-1.317,2.045-2.41,2.045a3.3,3.3,0,0,1-1.541-.364l.365-.855a2.264,2.264,0,0,0,1.134.266c.645,0,1.051-.336,1.485-1.358L112.4,40.161h1.191l2.634,6.037Zm3.553,0h1.079v1.218a2.645,2.645,0,0,1,2.339-1.372,2.458,2.458,0,0,1,2.325,1.443,2.885,2.885,0,0,1,2.549-1.443,2.6,2.6,0,0,1,2.69,2.913V47.4h-1.079V43.172c0-1.4-.7-2.185-1.877-2.185a2.019,2.019,0,0,0-1.989,2.242V47.4h-1.078V43.145c0-1.359-.715-2.158-1.863-2.158a2.1,2.1,0,0,0-2.017,2.284V47.4h-1.079Z"/></svg>