<svg xmlns="http://www.w3.org/2000/svg" viewBox="0 0 300 234.818"><defs><style>.a{isolation:isolate;}.b{fill:#00b5ff;}.b,.c,.d{mix-blend-mode:multiply;opacity:0.25;}.c{fill:#ffae00;}.d{fill:#7de100;}.e,.k{fill:none;stroke:#fff;}.e{stroke-miterlimit:10;stroke-width:2.5px;}.f{fill:#fff;}.g,.k,.l{font-size:16px;font-family:mplus-2p-bold, "M+ 2p";font-weight:700;}.g,.m,.n,.p{fill:#666;}.h{letter-spacing:0.06em;}.i{letter-spacing:0.04em;}.j{letter-spacing:-0.02em;}.k{stroke-linecap:round;stroke-linejoin:round;stroke-width:3px;}.l{fill:#ff7e44;}.m,.n,.p{font-size:14px;font-family:mplus-2p-medium, "M+ 2p";font-weight:500;}.n{letter-spacing:-0.2em;}.o{letter-spacing:-0.1em;}.p{letter-spacing:-0.14em;}.q{letter-spacing:-0.12em;}.r{letter-spacing:-0.1em;}.s{letter-spacing:-0.16em;}.t{letter-spacing:-0.08em;}.u{letter-spacing:-0.14em;}.v{fill:#ccc;}</style></defs><g class="a"><path class="b" d="M236.741,86.74a86.742,86.742,0,1,1-25.406-61.335A86.473,86.473,0,0,1,236.741,86.74Z"/><path class="c" d="M175.406,148.076A86.742,86.742,0,1,1,150,86.74,86.471,86.471,0,0,1,175.406,148.076Z"/><path class="d" d="M124.594,148.076A86.742,86.742,0,1,0,150,86.74,86.471,86.471,0,0,0,124.594,148.076Z"/><line class="e" x1="120.18" y1="165.119" x2="179.82" y2="165.119"/><line class="e" x1="150" y1="57.978" x2="233.17" y2="165.119"/><line class="e" x1="150" y1="57.978" x2="66.83" y2="165.119"/><circle class="f" cx="66.83" cy="165.119" r="53.35"/><circle class="f" cx="233.17" cy="165.119" r="53.35"/><circle class="f" cx="150" cy="57.978" r="53.35"/><text class="g" transform="translate(125.04 127.382)"><tspan class="h">健康で</tspan><tspan class="i" x="-24" y="22">動</tspan><tspan class="j" x="-7.36" y="22">け</tspan><tspan x="8.32" y="22">る</tspan><tspan class="h" x="24.32" y="22">身</tspan><tspan class="i" x="41.28" y="22">体</tspan><tspan class="h" x="57.92" y="22">に</tspan></text><text class="k" transform="translate(125.04 127.382)"><tspan class="h">健康で</tspan><tspan class="i" x="-24" y="22">動</tspan><tspan class="j" x="-7.36" y="22">け</tspan><tspan x="8.32" y="22">る</tspan><tspan class="h" x="24.32" y="22">身</tspan><tspan class="i" x="41.28" y="22">体</tspan><tspan class="h" x="57.92" y="22">に</tspan></text><text class="l" transform="translate(125.04 127.382)"><tspan class="h">健康で</tspan><tspan class="i" x="-24" y="22">動</tspan><tspan class="j" x="-7.36" y="22">け</tspan><tspan x="8.32" y="22">る</tspan><tspan class="h" x="24.32" y="22">身</tspan><tspan class="i" x="41.28" y="22">体</tspan><tspan class="h" x="57.92" y="22">に</tspan></text><text class="m" transform="translate(122 85.323)">生活習慣</text><text class="n" transform="translate(30.353 190.121)">ト<tspan class="o" x="11.2" y="0">レ</tspan></text><text class="p" transform="translate(54.153 190.121) scale(0.85 1)">ー</text><text class="m" transform="translate(64.387 190.121)"><tspan class="q">ニ</tspan><tspan class="r" x="12.32" y="0">ン</tspan><tspan x="24.92" y="0">グ</tspan></text><text class="m" transform="translate(195.37 190.122)"><tspan class="s">メ</tspan><tspan class="r" x="11.76" y="0">ン</tspan><tspan class="t" x="24.36" y="0">テ</tspan><tspan class="q" x="37.24" y="0">ナ</tspan><tspan class="u" x="49.56" y="0">ン</tspan><tspan x="61.6" y="0">ス</tspan></text><path class="v" d="M231.117,133.392a3.1,3.1,0,0,0,1.156.224,3.134,3.134,0,0,0,2.907-1.966l.6-1.49a3.124,3.124,0,0,0-1.742-4.063h0a3.126,3.126,0,0,0-4.063,1.741l-.6,1.491a3.125,3.125,0,0,0,1.742,4.063Zm-.577-3.6.6-1.491a1.867,1.867,0,0,1,2.432-1.043h0a1.871,1.871,0,0,1,1.043,2.433l-.595,1.49a1.872,1.872,0,1,1-3.476-1.389Z"/><path class="v" d="M215.287,152.473l2.295.021h.029a3.014,3.014,0,0,0,3-2.972l0-.346a2.98,2.98,0,0,0-.85-2.143,2.939,2.939,0,0,0-2.088-.893l-2.3-.022h-.028a3.016,3.016,0,0,0-3,2.973h0l0,.346a2.986,2.986,0,0,0,.85,2.143A2.94,2.94,0,0,0,215.287,152.473Zm-1.679-3.363a1.756,1.756,0,0,1,1.741-1.737h.016l2.3.021a1.69,1.69,0,0,1,1.2.515,1.734,1.734,0,0,1,.494,1.248l0,.346a1.744,1.744,0,0,1-1.758,1.737l-2.295-.022a1.69,1.69,0,0,1-1.2-.514,1.734,1.734,0,0,1-.493-1.248Z"/><path class="v" d="M255.437,150.413a.629.629,0,0,0-.618-.668l-15.661-.195a5.414,5.414,0,0,0,.027-.626l-.082-3.973,4.389-.1a6.471,6.471,0,0,0,1.188-.146c2.489-.605,3.871-2.338,3.607-4.522a.627.627,0,0,0-.622-.552h0l-10.976.035-.044,0a3.642,3.642,0,0,0-2.557,1.321,3.7,3.7,0,0,0-.417.63L230,141.608l-.152-3.3-1.253.058.18,3.9a.627.627,0,0,0,.625.6l5.728.018a2.367,2.367,0,0,1-.687,1.448,2.926,2.926,0,0,1-2.326.648l-.034,0-4.136-.128a1.537,1.537,0,0,1-1.626-1.265L226,137.045a1.267,1.267,0,0,1,1.163-1.327l7.153-.1a2.093,2.093,0,0,1,2.057,1.786v1.361h1.254v-1.4a.7.7,0,0,0,0-.079,3.35,3.35,0,0,0-3.3-2.918h-.041l-7.164.1a2.529,2.529,0,0,0-2.37,2.642l.327,6.623a.647.647,0,0,0,.032.17,2.773,2.773,0,0,0,2.754,2.195l.033,0,4.137.128c.165.014.327.02.485.02a5,5,0,0,0,.736-.058l0,.889-6.762.046a4.911,4.911,0,0,0-3.559,1.571l-1.285,1.39a2.158,2.158,0,0,0-.5,2.051,3.558,3.558,0,0,0,.845,1.441h-8.4a1.537,1.537,0,0,0-1.535,1.535v1.517a1.537,1.537,0,0,0,1.535,1.535H216.4v8.49h-1.846a.651.651,0,1,0,0,1.3h35.951a.651.651,0,0,0,0-1.3h-2.542v-8.49h2.815a1.537,1.537,0,0,0,1.535-1.535V155.11a1.533,1.533,0,0,0-.112-.568A4.741,4.741,0,0,0,255.437,150.413Zm-23.293,3.139-.08,0c-.009,0-.017,0-.026,0l-7.343-.021a2.457,2.457,0,0,1-2.352-1.747.893.893,0,0,1,.219-.849l1.285-1.39a3.646,3.646,0,0,1,2.646-1.168l7.382-.051a.627.627,0,0,0,.623-.624l.01-1.919a3.442,3.442,0,0,0,.8-.546,3.835,3.835,0,0,0,1.107-3,.627.627,0,0,0-.625-.608l-.572,0a2.385,2.385,0,0,1,1.5-.7l10.346-.033c-.108,1.771-1.869,2.4-2.678,2.6a5.365,5.365,0,0,1-.919.111l-5.015.114a.627.627,0,0,0-.613.64l.095,4.6a4.063,4.063,0,0,1-.037.588l-1.787-.023H236.1a.628.628,0,0,0-.008,1.255l17.984.224a3.541,3.541,0,0,1-3.085,2.567l-.227.017H232.635l.022-.021Zm3.55,4.61h11.017v8.49H234.9Zm-2.058,8.49h-1.5v-8.49h2.3Zm-2.758,0h-1.7l-.8-8.49h2.5Zm-3.759-8.49.8,8.49H217.656v-8.49Zm23.941-1.535a.28.28,0,0,1-.28.28H213.587a.28.28,0,0,1-.28-.28V155.11a.28.28,0,0,1,.28-.28H250.78a.28.28,0,0,1,.28.28Z"/><path class="v" d="M255.5,166.652h-2.216a.651.651,0,0,0,0,1.3H255.5a.651.651,0,0,0,0-1.3Z"/><path class="v" d="M153.624,25.908l-.274-.111a2.662,2.662,0,0,0-3.456,1.44l-.743,1.811a2.592,2.592,0,0,0,.009,2.007,2.63,2.63,0,0,0,1.452,1.427l.273.11a2.662,2.662,0,0,0,3.456-1.439l.744-1.811a2.6,2.6,0,0,0-.009-2.007A2.63,2.63,0,0,0,153.624,25.908Zm.3,2.958-.744,1.811a1.407,1.407,0,0,1-1.829.754l-.273-.11a1.39,1.39,0,0,1-.767-.752,1.348,1.348,0,0,1,0-1.045l.743-1.811a1.4,1.4,0,0,1,1.3-.859,1.432,1.432,0,0,1,.533.1l.273.111a1.387,1.387,0,0,1,.767.752A1.348,1.348,0,0,1,153.927,28.866Z"/><path class="v" d="M158.132,41.624a.418.418,0,0,0-.016-.058l-1.509-4.728a3.9,3.9,0,0,0-2.514-2.815l-4.731-1.644-.411,1.182,4.732,1.645a2.647,2.647,0,0,1,1.707,1.928.547.547,0,0,0,.015.058l1.509,4.724a1.471,1.471,0,0,1-.864,1.633l-4.043,1.727L152,45.219a2.481,2.481,0,0,1,1.654-2.647l1.135-.387-.4-1.186-1.135.388a3.683,3.683,0,0,0-.691.328c.091-.228.185-.455.29-.678l1.237-2.631-1.134-.532-1.236,2.63a13.446,13.446,0,0,0-1.184,7.327l1.972,16.49h-1.241l-4.052-17.074a.627.627,0,0,0-1.229.051L143.39,64.321h-1.67l.991-16.594a38.379,38.379,0,0,1,2.378-11.2l.991-2.641a.615.615,0,0,0,.037-.17,39.611,39.611,0,0,1,.9-5.737,6.127,6.127,0,0,1,2.75-3.639l4.45-2.912a.618.618,0,0,0,.232-.276l1.322-3.067-1.15-.5-1.247,2.894L149.1,23.278a7.276,7.276,0,0,0-3.3,4.374,39.459,39.459,0,0,0-.931,5.876l-.96,2.559a39.612,39.612,0,0,0-2.456,11.566l-1,16.668h-4.841v1.252h20.387V64.321h-2.247l-1.989-16.638c-.038-.308-.06-.615-.074-.923.011,0,.023,0,.034-.006l4.806-2.053A2.725,2.725,0,0,0,158.132,41.624Zm-11.4,9.045,3.24,13.652h-5.319Z"/><rect class="v" x="157.583" y="64.321" width="2.615" height="1.252"/><path class="v" d="M51.653,149.681a3.03,3.03,0,0,0,.837-.117l.349-.1a3,3,0,0,0,1.82-1.444,2.952,2.952,0,0,0,.253-2.273l-.675-2.314a3.039,3.039,0,0,0-3.749-2.05h0l-.349.1a3,3,0,0,0-1.82,1.444,2.958,2.958,0,0,0-.252,2.274l.674,2.313A3.031,3.031,0,0,0,51.653,149.681Zm-2.4-6.24a1.945,1.945,0,0,1,1.18-.935l.349-.1a1.971,1.971,0,0,1,2.435,1.325l.675,2.313a1.9,1.9,0,0,1-.163,1.461,1.945,1.945,0,0,1-1.18.935l-.349.1a1.971,1.971,0,0,1-2.435-1.325l-.675-2.314A1.9,1.9,0,0,1,49.251,143.441Z"/><path class="v" d="M59.8,148.958a.532.532,0,0,0,.072.527l3.306,4.259a.531.531,0,0,0,.42.206.436.436,0,0,0,.072,0,.531.531,0,0,0,.421-.326l2.036-4.992a.532.532,0,0,0-.565-.728l-5.341.733A.531.531,0,0,0,59.8,148.958Zm4.993.12-1.34,3.286-2.174-2.8Z"/><path class="v" d="M81.3,166.889a4.357,4.357,0,0,0,1.706-2.049c.215-.5-.2-.746-1.123-1.287-.562-.332-1.383-.792-2.437-1.368-1.784-.974-4.24-2.28-6.917-3.678a8.8,8.8,0,0,0-5.414-.642l-.039.007-7.694,1.686-.3-.884,3.327-2.543.006.007a1.754,1.754,0,0,0,1.4.687,1.9,1.9,0,0,0,.249-.016,1.761,1.761,0,0,0,1.4-1.09l3.112-7.631A1.753,1.753,0,0,0,68.6,146.8l7.689-5.966a.532.532,0,0,0-.653-.841l-7.689,5.966a1.752,1.752,0,0,0-1.249-.3l-2.193.3a.532.532,0,0,0,.145,1.054l2.192-.3a.7.7,0,0,1,.66.269h0a.7.7,0,0,1,.1.705l-3.113,7.631a.712.712,0,0,1-1.222.168h0l.128-.1a.533.533,0,0,0,.012-.837l-.534-.433a4.5,4.5,0,0,0-1.2-.683h0l-3.461-4.46a.7.7,0,0,1-.1-.706.7.7,0,0,1,.562-.437l3.982-.546a.532.532,0,0,0-.145-1.054l-3.981.546a1.776,1.776,0,0,0-1.162,2.85l2.7,3.485h0a4.543,4.543,0,0,0-2.65.806,5.649,5.649,0,0,0-3.347-2.908l-1.438-.458a3.057,3.057,0,0,0-3.021.652,4.22,4.22,0,0,0-1.322,2.6c0,.009,0,.018,0,.028l0,.018a3.644,3.644,0,0,0,.059,1.108l.208,3.905a4.018,4.018,0,0,0,1.03,3.024,3.83,3.83,0,0,0,1.28.93l.338,1.043a5.737,5.737,0,0,0,2.327,3.028H48.726v1.064H70.863v-1.064H61.331l6.652-2.547a5.4,5.4,0,0,1,3.123.033l5.757,2.515H72.314v1.064H83.531v-1.064ZM60.885,153.2h0Zm-11.264,5.719a.5.5,0,0,0,0-.077l-.264-4.94a3.148,3.148,0,0,1,.984-1.923,1.942,1.942,0,0,1,1.332-.515,2.125,2.125,0,0,1,.64.1l1.437.458a4.589,4.589,0,0,1,2.805,2.545l-2.392,1.892-.218-1.228a.532.532,0,0,0-1.048.187l.373,2.1a.532.532,0,0,0,.854.324l3.658-2.893a3.505,3.505,0,0,1,4.41-.011l.009.008-9.1,6.955a1.271,1.271,0,0,1-.714.168h-.006a2.7,2.7,0,0,1-2.009-.905A2.951,2.951,0,0,1,49.621,158.921Zm21.834,4.447a6.471,6.471,0,0,0-3.791-.043l-.04.014-8.069,3.089a6.1,6.1,0,0,1-4.808-.069,4.736,4.736,0,0,1-2.529-2.828l-.138-.424c.1.009.2.032.3.033h.009a2.273,2.273,0,0,0,1.343-.375l4.459-3.408.334.993a.532.532,0,0,0,.618.35l8.141-1.784a7.8,7.8,0,0,1,4.753.534c5.691,2.972,8.886,4.735,9.818,5.329a3.042,3.042,0,0,1-3.95,1.4l-6.4-2.8C71.49,163.38,71.472,163.374,71.455,163.368Z"/></g></svg>