<svg xmlns="http://www.w3.org/2000/svg" viewBox="0 0 50 50"><defs><style>.a{opacity:0.15;}.b{fill:#203744;}</style></defs><rect class="a" x="8.999" y="8.989" width="38" height="38" rx="8"/><path class="b" d="M14,3.99a10.015,10.015,0,0,0-10,10v22a10.015,10.015,0,0,0,10,10H36a10.015,10.015,0,0,0,10-10v-22a10.015,10.015,0,0,0-10-10Zm0,2H36a7.984,7.984,0,0,1,8,8v22a7.984,7.984,0,0,1-8,8H14a7.984,7.984,0,0,1-8-8v-22A7.984,7.984,0,0,1,14,5.99Zm4.049,5.045a6.135,6.135,0,0,0-4.574,1.623,5.45,5.45,0,0,0-1.082,1.434,2.775,2.775,0,0,0-.4,1.351c0-.044-.011.19-.018.461s-.005.638.02,1.08a16.39,16.39,0,0,0,.6,3.5A24.085,24.085,0,0,0,19.07,30.93,24.105,24.105,0,0,0,29.516,37.4a16.39,16.39,0,0,0,3.5.6c.442.025.806.026,1.078.019S34.6,38,34.557,38a2.775,2.775,0,0,0,1.351-.4,5.45,5.45,0,0,0,1.434-1.082,6.135,6.135,0,0,0,1.623-4.574A2.965,2.965,0,0,0,37.582,29.6l-2.828-1.81a4.745,4.745,0,0,0-4.824-.164l.086-.043-1.178.506-.086.06a.989.989,0,0,1-.963.1,11.272,11.272,0,0,1-6.041-6.041.989.989,0,0,1,.1-.963l.06-.086.506-1.178-.043.086a4.742,4.742,0,0,0-.164-4.824c-.8-1.252-1.415-2.21-1.811-2.828A2.961,2.961,0,0,0,18.049,11.035Zm-.086,2a.968.968,0,0,1,.754.463c.4.618,1.011,1.578,1.81,2.828a2.762,2.762,0,0,1,.094,2.785l-.023.043-.483,1.127.1-.181a3.008,3.008,0,0,0-.313,2.884A13.283,13.283,0,0,0,27.018,30.1a3.009,3.009,0,0,0,2.884-.313l-.181.1,1.127-.483.043-.023a2.765,2.765,0,0,1,2.785.095h0c1.25.8,2.21,1.414,2.828,1.81a.967.967,0,0,1,.463.754A3.991,3.991,0,0,1,35.9,35.142a3.556,3.556,0,0,1-.906.69c-.272.141-.532.17-.433.17-.184,0-.28.012-.51.017s-.538.006-.918-.015a14.374,14.374,0,0,1-3.074-.528,22.013,22.013,0,0,1-9.571-5.96,22.017,22.017,0,0,1-5.961-9.571A14.435,14.435,0,0,1,14,16.871c-.021-.38-.021-.688-.016-.918s.018-.326.018-.51c0,.1.029-.161.17-.433a3.57,3.57,0,0,1,.689-.907A3.993,3.993,0,0,1,17.963,13.033Z"/></svg>