<svg xmlns="http://www.w3.org/2000/svg" viewBox="0 0 50 50"><defs><style>.a{fill:#fff;}</style></defs><path class="a" d="M19.825,12.35a7.484,7.484,0,0,0-7.475,7.475v10.35a7.484,7.484,0,0,0,7.475,7.475h10.35a7.484,7.484,0,0,0,7.475-7.475V19.825a7.484,7.484,0,0,0-7.475-7.475ZM31.9,16.95a1.15,1.15,0,1,0,1.15,1.15A1.15,1.15,0,0,0,31.9,16.95ZM25,18.675A6.325,6.325,0,1,0,31.325,25,6.334,6.334,0,0,0,25,18.675ZM19.825,35.649a5.481,5.481,0,0,1-5.474-5.474V19.825a5.481,5.481,0,0,1,5.474-5.475h10.35a5.481,5.481,0,0,1,5.474,5.475v10.35a5.481,5.481,0,0,1-5.474,5.474ZM25,29.324A4.324,4.324,0,1,1,29.324,25,4.328,4.328,0,0,1,25,29.324Z"/><path class="a" d="M14,4A10.015,10.015,0,0,0,4,14V36A10.015,10.015,0,0,0,14,46H36A10.015,10.015,0,0,0,46,36V14A10.015,10.015,0,0,0,36,4Zm0,2H36a7.984,7.984,0,0,1,8,8V36a7.984,7.984,0,0,1-8,8H14a7.984,7.984,0,0,1-8-8V14A7.984,7.984,0,0,1,14,6Z"/></svg>