<svg xmlns="http://www.w3.org/2000/svg" viewBox="0 0 50 50"><defs><style>.a{fill:#93e3ff;opacity:0.5;}.b{fill:#203744;}</style></defs><rect class="a" x="8.999" y="8.999" width="38" height="38" rx="8"/><path class="b" d="M14,4A10.015,10.015,0,0,0,4,14V36A10.015,10.015,0,0,0,14,46H36A10.015,10.015,0,0,0,46,36V14A10.015,10.015,0,0,0,36,4Zm0,2H36a7.984,7.984,0,0,1,8,8V36a7.984,7.984,0,0,1-8,8H14a7.984,7.984,0,0,1-8-8V14A7.984,7.984,0,0,1,14,6Z"/><path class="b" d="M13.414,17h23.17l-8.906,8.892a3.785,3.785,0,0,1-5.373,0ZM13,15a3.015,3.015,0,0,0-3,3V32a3.015,3.015,0,0,0,3,3H37a3.015,3.015,0,0,0,3-3V18a3.015,3.015,0,0,0-3-3ZM38,31.863A1.142,1.142,0,0,1,37,33H13a1.014,1.014,0,0,1-1-1V18.414L18.586,25l2.3,2.3a5.815,5.815,0,0,0,8.2,0l.9-.9L31.4,25,38,18.412V31.863"/></svg>