<svg xmlns="http://www.w3.org/2000/svg" viewBox="0 0 550.55 554.074"><defs><style>.a{fill:#fff;}</style></defs><path class="a" d="M.616,517.926A18.873,18.873,0,0,1,2.2,509.861,16.067,16.067,0,0,1,12.21,501.04,22.41,22.41,0,0,1,18.978,500a23.91,23.91,0,0,1,7.093.972,12.407,12.407,0,0,1,4.5,2.2,20.751,20.751,0,0,0-.9,2.268,24.736,24.736,0,0,0-.685,2.484h-.576a10.187,10.187,0,0,0-1.368-1.908,11.6,11.6,0,0,0-2.052-1.8,11.915,11.915,0,0,0-2.628-1.369,8.963,8.963,0,0,0-3.169-.54,12.19,12.19,0,0,0-5.58,1.188A10.306,10.306,0,0,0,9.8,506.765a14.218,14.218,0,0,0-2.16,4.932,26.256,26.256,0,0,0-.684,6.157q0,7.417,3.168,11.2t9.289,3.781a11.634,11.634,0,0,0,2.953-.4,16.726,16.726,0,0,0,2.952-1.081,15.964,15.964,0,0,0,2.7-1.62,13.7,13.7,0,0,0,2.2-2.016l.36.216a21.275,21.275,0,0,0-.432,3.529,19.933,19.933,0,0,1-5.365,2.952,18.533,18.533,0,0,1-6.661,1.224,22.464,22.464,0,0,1-6.228-.9,15.186,15.186,0,0,1-5.653-3.024,15.466,15.466,0,0,1-4.068-5.509A19.827,19.827,0,0,1,.616,517.926Zm35.86,0a20.1,20.1,0,0,1,1.548-8.317,15.438,15.438,0,0,1,4.069-5.545,16.1,16.1,0,0,1,5.652-3.1,20.56,20.56,0,0,1,12.494,0,16.172,16.172,0,0,1,5.616,3.1,15.461,15.461,0,0,1,4.069,5.545,23.117,23.117,0,0,1,0,16.634,15.431,15.431,0,0,1-4.069,5.544,14.807,14.807,0,0,1-5.616,2.989,23.016,23.016,0,0,1-12.494,0,14.761,14.761,0,0,1-5.652-2.989,15.408,15.408,0,0,1-4.069-5.544A20.1,20.1,0,0,1,36.476,517.926Zm6.337,0a30.841,30.841,0,0,0,.54,5.833,15.534,15.534,0,0,0,1.836,5,9.83,9.83,0,0,0,3.457,3.493,10.187,10.187,0,0,0,5.328,1.3,10.193,10.193,0,0,0,5.329-1.3,9.836,9.836,0,0,0,3.456-3.493,15.534,15.534,0,0,0,1.836-5,31.774,31.774,0,0,0,0-11.666,15.542,15.542,0,0,0-1.836-5A9.833,9.833,0,0,0,59.3,503.6a10.194,10.194,0,0,0-5.329-1.3,10.187,10.187,0,0,0-5.328,1.3,9.827,9.827,0,0,0-3.457,3.492,15.542,15.542,0,0,0-1.836,5A30.841,30.841,0,0,0,42.813,517.926Zm58.4-11.413a6.813,6.813,0,0,0-5.76-2.772q-5.041,0-7.381,3.1t-2.34,8.713v6.12q0,3.242.108,6.805t.468,6.445q-1.658-.145-3.241-.144t-3.24.144q.36-2.88.468-6.445t.108-6.805v-7.488q0-3.242-.108-6.805t-.468-6.661a19.247,19.247,0,0,0,3.24.36,8.123,8.123,0,0,0,1.26-.108q.684-.108,1.621-.252-.216,2.881-.216,5.761h.144a15.053,15.053,0,0,1,4.824-4.789A12.745,12.745,0,0,1,97.4,500a15,15,0,0,1,4.068.576,9.763,9.763,0,0,1,3.709,1.981,10.224,10.224,0,0,1,2.7,3.816,15.624,15.624,0,0,1,1.044,6.156q0,3.1-.144,6.373t-.144,6.949v4.68q0,1.154.036,2.268c.024.746.06,1.453.108,2.125a30.145,30.145,0,0,0-3.024-.144,29.38,29.38,0,0,0-2.953.144q.144-3.744.324-7.7t.18-8.137v-4.392Q103.3,509.285,101.211,506.513Zm43.349,21.566a17.722,17.722,0,0,1-1.548,2.484,12.583,12.583,0,0,1-2.448,2.485,12.443,12.443,0,0,1-3.493,1.872,13.925,13.925,0,0,1-4.68.72,15.9,15.9,0,0,1-5.365-.936,12.1,12.1,0,0,1-4.681-3.06,15.715,15.715,0,0,1-3.312-5.473,22.828,22.828,0,0,1-1.26-8.029,21.273,21.273,0,0,1,1.368-7.993,17.377,17.377,0,0,1,3.564-5.653,14.333,14.333,0,0,1,4.969-3.384A14.855,14.855,0,0,1,133.255,500q7.992,0,11.089,7.2h.144V500.14q0-2.736-.036-5.509t-.072-5.292q-.038-2.52-.072-4.753t-.108-3.96q.864.146,1.656.252a11.7,11.7,0,0,0,1.584.108,10.934,10.934,0,0,0,1.548-.108q.756-.108,1.693-.252-.218,2.306-.36,6.661t-.253,9.613q-.107,5.256-.179,10.8t-.073,10.153q0,4.968.073,8.929t.143,8.137a27.923,27.923,0,0,0-2.808-.144,27.247,27.247,0,0,0-2.736.144l.216-6.841Zm-20.45-9.5a23.732,23.732,0,0,0,.9,7.129,13.367,13.367,0,0,0,2.3,4.5,7.43,7.43,0,0,0,3.2,2.341,10.381,10.381,0,0,0,3.529.648,8.221,8.221,0,0,0,4.824-1.4,11.478,11.478,0,0,0,3.349-3.672,17.163,17.163,0,0,0,1.944-5.149,27.7,27.7,0,0,0,.612-5.76q0-6.912-2.664-10.549a9.119,9.119,0,0,0-7.849-3.637,8.343,8.343,0,0,0-4.5,1.189,9.551,9.551,0,0,0-3.168,3.312,16.429,16.429,0,0,0-1.872,4.968A28.835,28.835,0,0,0,124.11,518.574Zm37.372-30.387a3.687,3.687,0,1,1,1.08,2.592A3.535,3.535,0,0,1,161.482,488.187Zm1.008,26q0-3.242-.108-6.805t-.468-6.661a14.76,14.76,0,0,0,6.48,0q-.36,3.1-.468,6.661t-.108,6.805v7.488q0,3.242.108,6.805t.468,6.445q-1.656-.145-3.24-.144t-3.24.144q.358-2.88.468-6.445t.108-6.805Zm25.059-23.115q-.216,2.737-.324,5.365t-.252,5.292q.79,0,2.952-.036t4.68-.18a2.9,2.9,0,0,0-.072.792v1.513a2.513,2.513,0,0,0,.072.719q-.936-.07-1.944-.107t-2.16-.036h-3.528a22.955,22.955,0,0,0-.18,2.3q-.11,2.016-.181,4.788t-.107,5.8q-.038,3.024-.037,5.4,0,2.016.108,3.96a11.864,11.864,0,0,0,.685,3.492,5.647,5.647,0,0,0,1.728,2.485,5.135,5.135,0,0,0,3.312.936,10.992,10.992,0,0,0,1.548-.144,12.139,12.139,0,0,0,1.692-.36v1.728q-1.224.216-2.7.54a13.266,13.266,0,0,1-2.844.324q-4.536,0-6.7-2.232t-2.16-6.553q0-1.944.072-4.212t.18-4.969q.108-2.7.18-5.977t.072-7.308h-2.3c-.385,0-.792.012-1.224.036s-.889.06-1.369.107q.072-.43.108-.828t.036-.828q0-.358-.036-.719t-.108-.721q3.241.216,4.753.216-.072-1.439-.108-3.6t-.18-4.465l5.977-2.52Zm14.689-2.88a3.687,3.687,0,1,1,1.08,2.592A3.535,3.535,0,0,1,202.238,488.187Zm1.008,26q0-3.242-.108-6.805t-.468-6.661a14.765,14.765,0,0,0,6.481,0q-.362,3.1-.468,6.661t-.108,6.805v7.488q0,3.242.108,6.805t.468,6.445q-1.658-.145-3.24-.144t-3.241.144q.36-2.88.468-6.445t.108-6.805Zm13.38,3.744a20.088,20.088,0,0,1,1.548-8.317,15.436,15.436,0,0,1,4.068-5.545,16.1,16.1,0,0,1,5.653-3.1,20.557,20.557,0,0,1,12.493,0,16.168,16.168,0,0,1,5.617,3.1,15.447,15.447,0,0,1,4.068,5.545,23.1,23.1,0,0,1,0,16.634,15.417,15.417,0,0,1-4.068,5.544,14.8,14.8,0,0,1-5.617,2.989,23.012,23.012,0,0,1-12.493,0,14.765,14.765,0,0,1-5.653-2.989,15.406,15.406,0,0,1-4.068-5.544A20.081,20.081,0,0,1,216.626,517.926Zm6.337,0a30.841,30.841,0,0,0,.54,5.833,15.534,15.534,0,0,0,1.836,5,9.836,9.836,0,0,0,3.456,3.493,11.6,11.6,0,0,0,10.657,0,9.838,9.838,0,0,0,3.457-3.493,15.534,15.534,0,0,0,1.836-5,31.774,31.774,0,0,0,0-11.666,15.542,15.542,0,0,0-1.836-5,9.836,9.836,0,0,0-3.457-3.492,11.594,11.594,0,0,0-10.657,0,9.833,9.833,0,0,0-3.456,3.492,15.542,15.542,0,0,0-1.836,5A30.841,30.841,0,0,0,222.963,517.926Zm58.4-11.413a6.815,6.815,0,0,0-5.761-2.772q-5.042,0-7.381,3.1t-2.34,8.713v6.12q0,3.242.108,6.805t.468,6.445q-1.657-.145-3.24-.144t-3.24.144q.358-2.88.468-6.445t.108-6.805v-7.488q0-3.242-.108-6.805t-.468-6.661a19.247,19.247,0,0,0,3.24.36,8.133,8.133,0,0,0,1.26-.108q.684-.108,1.62-.252-.216,2.881-.216,5.761h.144a15.056,15.056,0,0,1,4.825-4.789,12.742,12.742,0,0,1,6.7-1.692,15.006,15.006,0,0,1,4.069.576,9.759,9.759,0,0,1,3.708,1.981,10.215,10.215,0,0,1,2.7,3.816,15.624,15.624,0,0,1,1.044,6.156q0,3.1-.144,6.373t-.144,6.949v4.68q0,1.154.036,2.268c.023.746.059,1.453.108,2.125a30.151,30.151,0,0,0-3.025-.144,29.36,29.36,0,0,0-2.952.144q.144-3.744.324-7.7t.18-8.137v-4.392Q283.449,509.285,281.361,506.513Zm19.874-18.326a3.687,3.687,0,1,1,1.08,2.592A3.535,3.535,0,0,1,301.235,488.187Zm1.008,26q0-3.242-.108-6.805t-.468-6.661a14.765,14.765,0,0,0,6.481,0q-.362,3.1-.468,6.661t-.108,6.805v7.488q0,3.242.108,6.805t.468,6.445q-1.658-.145-3.241-.144t-3.24.144q.36-2.88.468-6.445t.108-6.805Zm39.892-7.669a6.813,6.813,0,0,0-5.76-2.772q-5.041,0-7.381,3.1t-2.34,8.713v6.12q0,3.242.108,6.805t.468,6.445q-1.658-.145-3.241-.144t-3.24.144q.36-2.88.468-6.445t.108-6.805v-7.488q0-3.242-.108-6.805t-.468-6.661a19.258,19.258,0,0,0,3.24.36,8.145,8.145,0,0,0,1.261-.108q.683-.108,1.62-.252-.216,2.881-.216,5.761h.144a15.053,15.053,0,0,1,4.824-4.789,12.745,12.745,0,0,1,6.7-1.692,15,15,0,0,1,4.068.576,9.756,9.756,0,0,1,3.709,1.981,10.213,10.213,0,0,1,2.7,3.816,15.624,15.624,0,0,1,1.044,6.156q0,3.1-.144,6.373t-.144,6.949v4.68q0,1.154.036,2.268c.024.746.06,1.453.108,2.125a30.145,30.145,0,0,0-3.024-.144,29.345,29.345,0,0,0-2.952.144q.142-3.744.324-7.7t.18-8.137v-4.392Q344.224,509.285,342.135,506.513Zm15.689,5.22a11.716,11.716,0,0,1,1.08-5.22,10.042,10.042,0,0,1,2.988-3.637,13.456,13.456,0,0,1,4.393-2.16,18.961,18.961,0,0,1,5.292-.72q1.368,0,2.628.072t3.205.216q1.656.145,2.952.216t2.088.072a33.116,33.116,0,0,0,5.833-.36,7.238,7.238,0,0,0-.108.756c-.025.264-.036.517-.036.756s.011.493.036.756a7.087,7.087,0,0,0,.108.756q-2.09-.142-4.068-.324t-3.925-.252l-.144.144a9.013,9.013,0,0,1,3.6,3.781,11.081,11.081,0,0,1,1.369,5.292,10.463,10.463,0,0,1-3.637,8.461q-3.636,3.062-9.757,3.061-1.01,0-1.98-.072t-1.98-.072a3.681,3.681,0,0,0-2.412.936,2.964,2.964,0,0,0-1.116,2.376,3.641,3.641,0,0,0,.9,2.736,5.1,5.1,0,0,0,3.348.937q2.014.072,3.96.107t3.961.109a20.952,20.952,0,0,1,5.652.792,10.977,10.977,0,0,1,3.817,1.944,7.535,7.535,0,0,1,2.16,2.808,8.623,8.623,0,0,1,.684,3.457,14.494,14.494,0,0,1-.972,5.112,13.293,13.293,0,0,1-3.024,4.68,16.1,16.1,0,0,1-5.293,3.457,19.962,19.962,0,0,1-7.777,1.368q-6.986,0-11.017-2.772a8.742,8.742,0,0,1-4.032-7.6,8.6,8.6,0,0,1,.684-3.456,10.465,10.465,0,0,1,1.764-2.809A8.551,8.551,0,0,1,361.5,535.5a12.484,12.484,0,0,1,2.808-1.08v-.144a6.3,6.3,0,0,1-3.384-2.16,5.769,5.769,0,0,1-1.152-3.6,5.224,5.224,0,0,1,.468-2.232,7.1,7.1,0,0,1,1.188-1.8,6.2,6.2,0,0,1,1.656-1.3,5.9,5.9,0,0,1,1.8-.648v-.143a12.118,12.118,0,0,1-5.184-4.069A11.066,11.066,0,0,1,357.824,511.733Zm25.563,30.82q0-4.32-2.521-6.049t-8.353-1.728q-5.4,0-8.353,1.764t-2.952,6.373a9.6,9.6,0,0,0,.828,4.176,7.637,7.637,0,0,0,2.232,2.809,9.231,9.231,0,0,0,3.349,1.584,16.64,16.64,0,0,0,4.176.5,15.951,15.951,0,0,0,4.249-.576,11.753,11.753,0,0,0,3.708-1.728,9.05,9.05,0,0,0,2.629-2.917A8.366,8.366,0,0,0,383.387,542.553ZM379.5,511.374q0-4.538-2.16-6.913a7.32,7.32,0,0,0-5.689-2.377,7.4,7.4,0,0,0-6.048,2.628,10.717,10.717,0,0,0-2.161,7.021,11.642,11.642,0,0,0,1.981,7.165q1.978,2.629,6.156,2.628a7.176,7.176,0,0,0,3.565-.828,7.266,7.266,0,0,0,2.448-2.232,9.976,9.976,0,0,0,1.44-3.24A15.538,15.538,0,0,0,379.5,511.374Zm38.692.359a11.7,11.7,0,0,1,1.08-5.22,10.032,10.032,0,0,1,2.988-3.637,13.441,13.441,0,0,1,4.392-2.16,18.973,18.973,0,0,1,5.293-.72q1.366,0,2.628.072t3.2.216q1.655.145,2.952.216t2.088.072a33.124,33.124,0,0,0,5.833-.36,6.981,6.981,0,0,0-.108.756c-.025.264-.036.517-.036.756s.011.493.036.756a6.841,6.841,0,0,0,.108.756q-2.09-.142-4.069-.324t-3.924-.252l-.144.144a9.019,9.019,0,0,1,3.6,3.781,11.079,11.079,0,0,1,1.368,5.292,10.462,10.462,0,0,1-3.636,8.461q-3.637,3.062-9.757,3.061-1.01,0-1.98-.072t-1.98-.072a3.683,3.683,0,0,0-2.413.936,2.964,2.964,0,0,0-1.116,2.376,3.645,3.645,0,0,0,.9,2.736,5.108,5.108,0,0,0,3.349.937q2.014.072,3.96.107t3.96.109a20.954,20.954,0,0,1,5.653.792,10.977,10.977,0,0,1,3.817,1.944A7.535,7.535,0,0,1,448.4,536a8.64,8.64,0,0,1,.684,3.457,14.494,14.494,0,0,1-.972,5.112,13.282,13.282,0,0,1-3.025,4.68,16.088,16.088,0,0,1-5.292,3.457,19.965,19.965,0,0,1-7.777,1.368q-6.986,0-11.017-2.772a8.743,8.743,0,0,1-4.033-7.6,8.6,8.6,0,0,1,.685-3.456,10.465,10.465,0,0,1,1.764-2.809,8.537,8.537,0,0,1,2.448-1.944,12.466,12.466,0,0,1,2.808-1.08v-.144a6.3,6.3,0,0,1-3.384-2.16,5.763,5.763,0,0,1-1.152-3.6,5.224,5.224,0,0,1,.468-2.232,7.05,7.05,0,0,1,1.188-1.8,6.2,6.2,0,0,1,1.656-1.3,5.89,5.89,0,0,1,1.8-.648v-.143a12.112,12.112,0,0,1-5.184-4.069A11.066,11.066,0,0,1,418.19,511.733Zm25.562,30.82q0-4.32-2.52-6.049t-8.353-1.728q-5.4,0-8.353,1.764t-2.952,6.373a9.6,9.6,0,0,0,.828,4.176,7.637,7.637,0,0,0,2.232,2.809,9.231,9.231,0,0,0,3.349,1.584,16.64,16.64,0,0,0,4.176.5,15.962,15.962,0,0,0,4.249-.576,11.764,11.764,0,0,0,3.708-1.728,9.047,9.047,0,0,0,2.628-2.917A8.356,8.356,0,0,0,443.752,542.553Zm-3.888-31.179q0-4.538-2.16-6.913a7.322,7.322,0,0,0-5.689-2.377,7.4,7.4,0,0,0-6.049,2.628,10.723,10.723,0,0,0-2.16,7.021,11.642,11.642,0,0,0,1.98,7.165q1.98,2.629,6.157,2.628a7.176,7.176,0,0,0,3.565-.828,7.266,7.266,0,0,0,2.448-2.232,9.976,9.976,0,0,0,1.44-3.24A15.538,15.538,0,0,0,439.864,511.374Zm27.075,23.618q-.793-1.944-2.052-5.041t-2.7-6.516q-1.442-3.42-2.953-6.985t-2.844-6.7q-1.334-3.132-2.34-5.508t-1.513-3.529q.936.145,1.729.252a11.67,11.67,0,0,0,3.168,0q.792-.108,1.728-.252,2.232,6.912,4.969,13.682t5.76,13.969q3.026-6.334,5.8-13.537t4.933-14.114a8.021,8.021,0,0,0,4.752,0q-.5,1.01-1.62,3.421t-2.664,5.76q-1.55,3.348-3.385,7.417t-3.744,8.353q-1.909,4.284-3.781,8.5t-3.456,7.993q-1.584,3.78-2.772,6.84t-1.764,4.861a8.507,8.507,0,0,0-4.9,0A146.333,146.333,0,0,0,466.939,534.992Zm25.887-27.615q-.108-3.564-.468-6.661a19.247,19.247,0,0,0,3.24.36,8.123,8.123,0,0,0,1.26-.108q.684-.108,1.621-.252-.217,2.881-.217,5.761h.144q3.816-6.48,10.73-6.481a11.766,11.766,0,0,1,3.528.54,12.168,12.168,0,0,1,3.132,1.476,9.9,9.9,0,0,1,2.412,2.268,7.632,7.632,0,0,1,1.369,2.845h.144a12.693,12.693,0,0,1,4.716-5.293A12.869,12.869,0,0,1,531.314,500a14.294,14.294,0,0,1,4.393.648,8.876,8.876,0,0,1,5.8,5.545,14.522,14.522,0,0,1,.828,5.185q0,1.224-.072,2.664t-.144,3.348q-.072,1.908-.144,4.32t-.072,5.581q0,1.944.036,3.745t.18,3.888a8.755,8.755,0,0,0-1.584-.144h-3.1a8.75,8.75,0,0,0-1.585.144q.217-1.8.469-7.273t.252-15.265a13.973,13.973,0,0,0-.4-3.385,7.566,7.566,0,0,0-1.261-2.736,6.072,6.072,0,0,0-2.3-1.836,8.379,8.379,0,0,0-3.6-.684,8.873,8.873,0,0,0-4.393,1.008,8.692,8.692,0,0,0-2.808,2.376,7.573,7.573,0,0,0-.9,1.584,9.544,9.544,0,0,0-.5,2.412q-.181,1.622-.252,4.537t-.072,8.029q0,3.1.108,5.652t.252,5.581q-1.658-.145-3.169-.144t-3.168.144q.36-3.96.5-8.065t.144-8.065q0-3.384-.036-5.293a29.474,29.474,0,0,0-.18-3.024,9.3,9.3,0,0,0-.4-1.836,13.981,13.981,0,0,0-.684-1.584,6.549,6.549,0,0,0-2.484-2.341,6.928,6.928,0,0,0-3.493-.971q-4.752,0-6.984,3.1t-2.233,8.713v6.12q0,3.242.109,6.805t.467,6.445q-1.656-.145-3.24-.144t-3.24.144q.358-2.88.468-6.445t.108-6.805v-7.488Q492.934,510.94,492.826,507.377ZM1.064,418.618q0-8.449-.332-16.642T0,385.591q3.458.258,7.051.448t7.051.192q3.457,0,7.05-.32t7.051-.32a66.473,66.473,0,0,1,10.776.832,27.875,27.875,0,0,1,8.913,2.945,15.547,15.547,0,0,1,8.382,14.657q0,9.474-6.187,14.849t-16.163,7.553v.256q11.838.513,18.691,5.5t6.851,16a22.179,22.179,0,0,1-3.06,12.033,24.225,24.225,0,0,1-7.981,7.872,33.57,33.57,0,0,1-10.843,4.225,58.3,58.3,0,0,1-11.773,1.216q-3.194,0-6.452-.128t-6.453-.128H6.452q-3.261,0-6.452.256.4-8.192.732-16.321t.332-16.578Zm18.093,6.272A48.1,48.1,0,0,0,28.4,424a25.672,25.672,0,0,0,8.181-3.009,15.68,15.68,0,0,0,7.983-14.529,15.47,15.47,0,0,0-2-8.385,14.266,14.266,0,0,0-5.055-4.864A19.932,19.932,0,0,0,30.6,390.9a52.2,52.2,0,0,0-7.716-.575q-3.461,0-5.853.191t-4.258.449q-.267,6.144-.532,12.161t-.266,12.161v9.6Zm-7.184,17.794q0,6.529.266,12.93t.532,12.929q2.526.256,5.987.448t7.051.192a24.04,24.04,0,0,0,8.181-1.408,19.491,19.491,0,0,0,6.852-4.161A20.021,20.021,0,0,0,45.5,456.83a23.054,23.054,0,0,0,1.729-9.153,17.686,17.686,0,0,0-2.062-9.025,14.234,14.234,0,0,0-5.92-5.5A29.176,29.176,0,0,0,30,430.4a85.813,85.813,0,0,0-12.039-.768H11.973Zm78.791-40.515q-.333-8.128-.732-16.578,1.728.258,3.326.448a26.646,26.646,0,0,0,6.386,0q1.6-.192,3.326-.448-.4,8.449-.732,16.578t-.332,16.577q0,16.13.132,27.971t.267,21.185q9.444,0,18.092-.192a177.567,177.567,0,0,0,18.625-1.472,14.313,14.313,0,0,0-.665,3.841,11.506,11.506,0,0,0,.665,3.456q-6.12-.258-12.239-.256H102.338q-5.92,0-12.306.256.4-7.936.732-16.129t.333-16.642V418.746Q91.1,410.3,90.764,402.169Zm75.335-.193q-.333-8.19-.732-16.385,5.987.258,11.907.448t11.906.192q5.986,0,11.84-.192t11.84-.448a18.683,18.683,0,0,0,0,7.681q-4.259-.257-7.782-.512t-7.45-.512q-3.925-.257-8.581-.448t-11.175-.192q-.134,4.1-.332,7.808t-.2,8.449q0,4.992.067,9.729t.066,7.169q5.853,0,10.51-.128t8.514-.321q3.856-.19,7.118-.384t6.186-.448a19.48,19.48,0,0,0-.4,3.969,18.829,18.829,0,0,0,.4,3.84q-3.462-.384-8.049-.64t-9.179-.32q-4.59-.063-8.648-.128t-6.452-.064q0,1.152-.066,2.5t-.067,3.392V448.7q0,7.3.067,12.033t.2,7.168h9.313q5.054,0,9.911-.192t9.179-.512a61.545,61.545,0,0,0,7.516-.96,8.834,8.834,0,0,0-.332,1.984c-.046.727-.067,1.389-.067,1.985a11.443,11.443,0,0,0,.4,3.328q-5.985-.258-11.906-.256H177.473q-5.987,0-12.106.256.4-8.192.732-16.321t.332-16.578V418.618Q166.431,410.169,166.1,401.976Zm80.47,59.59a21.51,21.51,0,0,0,4.39,4.288,22.766,22.766,0,0,0,6.053,3.137,23.112,23.112,0,0,0,7.716,1.216,20.375,20.375,0,0,0,7.916-1.472,18.069,18.069,0,0,0,5.986-3.969,17.279,17.279,0,0,0,3.792-5.888,19.667,19.667,0,0,0,1.33-7.233q0-5.886-3.126-9.345a25.752,25.752,0,0,0-7.783-5.76,92.991,92.991,0,0,0-10.044-4.225,52.571,52.571,0,0,1-10.044-4.8,26.152,26.152,0,0,1-7.782-7.361q-3.127-4.479-3.127-12.033a23.522,23.522,0,0,1,2-9.793,21.4,21.4,0,0,1,5.787-7.617,27.671,27.671,0,0,1,9.113-4.992,37.4,37.4,0,0,1,11.973-1.792,36.859,36.859,0,0,1,11.042,1.472,27.871,27.871,0,0,1,8.647,4.545,27.1,27.1,0,0,0-2,4.608,62.1,62.1,0,0,0-1.6,6.145h-1.6a32.224,32.224,0,0,0-1.8-3.905,15.058,15.058,0,0,0-3.059-3.9,17.21,17.21,0,0,0-4.59-3.009,15.3,15.3,0,0,0-6.386-1.216,19.666,19.666,0,0,0-6.851,1.152,16.508,16.508,0,0,0-5.454,3.265,14.408,14.408,0,0,0-3.592,5.056,16.036,16.036,0,0,0-1.264,6.4q0,6.018,3.126,9.473a26.577,26.577,0,0,0,7.783,5.824,78.166,78.166,0,0,0,10.044,4.224A57.578,57.578,0,0,1,283.22,428.6,25.313,25.313,0,0,1,291,435.516q3.123,4.224,3.126,11.264a28.57,28.57,0,0,1-2.195,11.137,26.167,26.167,0,0,1-6.386,9.153,28.633,28.633,0,0,1-10.244,6.017,41.673,41.673,0,0,1-13.768,2.112q-8.251,0-13.37-2.112a36.722,36.722,0,0,1-8.581-4.8,29.462,29.462,0,0,0,1.663-5.312q.465-2.367.865-6.081h1.6A25.376,25.376,0,0,0,246.569,461.566Zm75.233,0a21.51,21.51,0,0,0,4.39,4.288,22.766,22.766,0,0,0,6.053,3.137,23.108,23.108,0,0,0,7.716,1.216,20.375,20.375,0,0,0,7.916-1.472,18.069,18.069,0,0,0,5.986-3.969,17.279,17.279,0,0,0,3.792-5.888,19.667,19.667,0,0,0,1.33-7.233q0-5.886-3.126-9.345a25.752,25.752,0,0,0-7.783-5.76,92.991,92.991,0,0,0-10.044-4.225,52.542,52.542,0,0,1-10.044-4.8,26.14,26.14,0,0,1-7.782-7.361q-3.128-4.479-3.127-12.033a23.522,23.522,0,0,1,2-9.793,21.4,21.4,0,0,1,5.787-7.617,27.651,27.651,0,0,1,9.113-4.992,37.4,37.4,0,0,1,11.973-1.792A36.859,36.859,0,0,1,356.99,385.4a27.871,27.871,0,0,1,8.647,4.545,27.1,27.1,0,0,0-2,4.608,62.1,62.1,0,0,0-1.6,6.145h-1.6a32.054,32.054,0,0,0-1.8-3.905,15.058,15.058,0,0,0-3.059-3.9,17.21,17.21,0,0,0-4.59-3.009,15.3,15.3,0,0,0-6.386-1.216,19.666,19.666,0,0,0-6.851,1.152,16.5,16.5,0,0,0-5.454,3.265,14.408,14.408,0,0,0-3.592,5.056,16.036,16.036,0,0,0-1.264,6.4q0,6.018,3.126,9.473a26.577,26.577,0,0,0,7.783,5.824,78.166,78.166,0,0,0,10.044,4.224,57.578,57.578,0,0,1,10.044,4.545,25.309,25.309,0,0,1,7.782,6.913q3.124,4.224,3.127,11.264a28.57,28.57,0,0,1-2.2,11.137,26.167,26.167,0,0,1-6.386,9.153,28.633,28.633,0,0,1-10.244,6.017,41.675,41.675,0,0,1-13.769,2.112q-8.25,0-13.37-2.112a36.735,36.735,0,0,1-8.58-4.8,29.462,29.462,0,0,0,1.663-5.312q.464-2.367.864-6.081h1.6A25.376,25.376,0,0,0,321.8,461.566Zm72.136-59.59q-.333-8.19-.732-16.385,5.986.258,11.907.448t11.906.192q5.986,0,11.84-.192t11.841-.448a18.637,18.637,0,0,0,0,7.681q-4.26-.257-7.783-.512t-7.45-.512q-3.925-.257-8.581-.448t-11.174-.192q-.135,4.1-.333,7.808t-.2,8.449q0,4.992.067,9.729t.066,7.169q5.853,0,10.51-.128t8.514-.321q3.856-.19,7.118-.384t6.186-.448a19.48,19.48,0,0,0-.4,3.969,18.827,18.827,0,0,0,.4,3.84q-3.462-.384-8.049-.64t-9.179-.32q-4.59-.063-8.648-.128t-6.452-.064q0,1.152-.066,2.5t-.067,3.392V448.7q0,7.3.067,12.033t.2,7.168h9.313q5.054,0,9.911-.192t9.179-.512a61.545,61.545,0,0,0,7.516-.96,8.834,8.834,0,0,0-.332,1.984c-.046.727-.067,1.389-.067,1.985a11.477,11.477,0,0,0,.4,3.328q-5.985-.258-11.906-.256H405.312q-5.986,0-12.106.256.4-8.192.732-16.321t.332-16.578V418.618Q394.27,410.169,393.938,401.976Zm73.6,16.77q0-8.448-.332-16.577t-.732-16.578q5.053.258,10.044.448t10.044.192q5.054,0,10.044-.32t10.044-.32a60.234,60.234,0,0,1,20.022,2.945,35.131,35.131,0,0,1,13.636,8.384,32.652,32.652,0,0,1,7.782,13.313,59.35,59.35,0,0,1,2.461,17.73q0,12.8-4.589,21.57a41.507,41.507,0,0,1-11.708,14.145,44.4,44.4,0,0,1-15.7,7.617,65,65,0,0,1-16.429,2.24q-4.524,0-8.913-.128t-8.914-.128h-8.913q-4.391,0-8.913.256.4-7.936.732-16.129t.332-16.642Zm10.909,22.018q0,13.825.8,27.138a50.174,50.174,0,0,0,7.583.96q4.789.321,9.844.321a65.715,65.715,0,0,0,14.634-1.665,32.232,32.232,0,0,0,13.1-6.272,33.619,33.619,0,0,0,9.445-12.609q3.659-8,3.659-20.674,0-11.137-2.861-18.306a27.839,27.839,0,0,0-7.848-11.329,28.234,28.234,0,0,0-11.907-5.76,67.294,67.294,0,0,0-15.166-1.6q-5.986,0-11.175.384t-9.312.9q-.4,6.144-.6,12.865t-.2,13.633ZM144.68,33.4h16.588c8.6,0,15.6,7.645,15.6,17.042V93.005h20.568V50.437a38.118,38.118,0,0,0-13.884-29.6h44.986c6.235,0,12.076-.071,17.723-.14,20.206-.249,37.654-.461,57.682,3.016.035.007.07.013.107.018,20.4,3.321,38.62,12.542,51.308,25.965,13.4,14.177,20.482,32.637,20.482,53.382a103.716,103.716,0,0,1-4.471,30.565c2,1.466,3.968,2.961,5.888,4.514A106.191,106.191,0,0,1,388.1,148.264a122.8,122.8,0,0,0,8.31-45.191c0-26.1-9.026-49.443-26.1-67.511C354.319,18.65,332.571,7.54,307.4,3.434,285.53-.357,267.216-.134,246.01.126c-5.587.067-11.363.138-17.473.138H144.68A10.284,10.284,0,0,0,134.4,10.548V23.11A10.284,10.284,0,0,0,144.68,33.4ZM371.511,145.253c-19.32-15.63-42.818-26.594-71.837-33.52-27.672-6.605-61.187-9.74-102.239-9.595H176.867V234.707h10.284c72.008,0,122.5-10.014,154.373-30.612a125.349,125.349,0,0,0,24.97-21.1,73.276,73.276,0,0,0-13.643-14.636c-.18-.146-.367-.285-.548-.43a103.273,103.273,0,0,1-21.944,18.89c-26.979,17.438-70.535,26.369-132.924,27.241V122.707c78.02-.311,127.945,11.682,161.151,38.545,20.546,16.576,33.309,44.837,33.309,73.753,0,47.085-19.019,71.027-67.836,85.4-40.452,11.906-96.069,10.72-141.323,9.588a38.08,38.08,0,0,0,14.7-30.251v-55.9H176.867v55.9c0,9.4-7,17.043-15.6,17.043H140.961a10.284,10.284,0,0,0-10.285,10.284v12.562a10.284,10.284,0,0,0,10.285,10.284h6.1c9.73,0,20.976.282,32.883.582,14.281.359,29.621.745,45.3.745,36.014,0,73.807-2.036,104.622-11.105,29.179-8.589,49.793-20.983,63.017-37.889,13.175-16.842,19.579-38.836,19.579-67.239C412.463,200.023,396.767,165.629,371.511,145.253Z"/></svg>