<?xml version="1.0" encoding="utf-8"?>
<!-- Generator: Adobe Illustrator 25.4.1, SVG Export Plug-In . SVG Version: 6.00 Build 0)  -->
<svg version="1.1" id="レイヤー_1" xmlns="http://www.w3.org/2000/svg" xmlns:xlink="http://www.w3.org/1999/xlink" x="0px"
	 y="0px" viewBox="0 0 274.8 86.7" style="enable-background:new 0 0 274.8 86.7;" xml:space="preserve">
<style type="text/css">
	.st0{fill:#203744;}
</style>
<path class="st0" d="M4.6,9h3.7c1.9,0,3.5,1.7,3.5,3.8v9.5h4.6v-9.5c0-2.7-1.2-5.1-3.1-6.6h0.8h9.3c1.4,0,2.7,0,4,0
	c4.5-0.1,8.4-0.1,12.9,0.7c0,0,0,0,0,0c4.6,0.7,8.7,2.8,11.5,5.8c3,3.2,4.6,7.3,4.6,12c0,2.4-0.3,4.7-1,6.9c0.4,0.3,0.9,0.7,1.3,1
	c0.9,0.7,1.7,1.5,2.4,2.3c1.2-3.1,1.9-6.5,1.9-10.1c0-5.9-2-11.1-5.9-15.1c-3.6-3.8-8.5-6.3-14.1-7.2c-4.9-0.9-9-0.8-13.8-0.7
	c-1.3,0-2.5,0-3.9,0h-9.3H4.6c-1.3,0-2.3,1-2.3,2.3v2.8C2.3,8,3.3,9,4.6,9z M55.5,34.1c-4.3-3.5-9.6-6-16.1-7.5
	c-6.2-1.5-13.7-2.2-22.9-2.2h-4.6v25.1v3v1.6h2.3c16.1,0,27.5-2.2,34.6-6.9c2.1-1.4,4-3,5.6-4.7c-0.9-1.2-1.9-2.4-3.1-3.3
	c0,0-0.1-0.1-0.1-0.1c-1.4,1.6-3,3-4.9,4.2c-6,3.9-15.8,5.9-29.8,6.1V29c17.5-0.1,28.7,2.6,36.1,8.6c4.6,3.7,7.5,10.1,7.5,16.5
	c0,10.6-4.3,15.9-15.2,19.1c-9.1,2.7-21.5,2.4-31.7,2.1c2-1.5,3.3-4,3.3-6.8V56.2h-4.6v12.5c0,2.1-1.6,3.8-3.5,3.8H3.8
	c-1.3,0-2.3,1-2.3,2.3v2.8c0,1.3,1,2.3,2.3,2.3h1.4c2.2,0,4.7,0.1,7.4,0.1c3.2,0.1,6.6,0.2,10.2,0.2c8.1,0,16.6-0.5,23.5-2.5
	c6.5-1.9,11.2-4.7,14.1-8.5c3-3.8,4.4-8.7,4.4-15.1C64.7,46.4,61.1,38.7,55.5,34.1z"/>
<path class="st0" d="M75.5,72.2c0-1.1,0.2-2.1,0.6-2.9c0.4-0.8,0.9-1.5,1.5-2c0.6-0.5,1.3-0.9,2.1-1.2c0.8-0.2,1.6-0.4,2.4-0.4
	c0.9,0,1.8,0.1,2.5,0.3c0.7,0.2,1.3,0.5,1.6,0.8c-0.1,0.3-0.2,0.5-0.3,0.8c-0.1,0.3-0.2,0.6-0.2,0.9h-0.2c-0.1-0.2-0.3-0.5-0.5-0.7
	c-0.2-0.2-0.5-0.4-0.7-0.6c-0.3-0.2-0.6-0.4-0.9-0.5c-0.3-0.1-0.7-0.2-1.1-0.2c-0.8,0-1.4,0.1-2,0.4c-0.6,0.3-1,0.7-1.4,1.2
	c-0.4,0.5-0.6,1.1-0.8,1.8c-0.2,0.7-0.2,1.4-0.2,2.2c0,1.8,0.4,3.1,1.1,4c0.8,0.9,1.9,1.4,3.3,1.4c0.3,0,0.7,0,1.1-0.1
	c0.4-0.1,0.7-0.2,1.1-0.4c0.3-0.2,0.7-0.4,1-0.6c0.3-0.2,0.6-0.5,0.8-0.7l0.1,0.1c-0.1,0.4-0.1,0.8-0.2,1.3
	c-0.5,0.4-1.2,0.8-1.9,1.1c-0.8,0.3-1.6,0.4-2.4,0.4c-0.7,0-1.5-0.1-2.2-0.3c-0.7-0.2-1.4-0.6-2-1.1c-0.6-0.5-1.1-1.2-1.5-2
	C75.7,74.4,75.5,73.4,75.5,72.2z M88.4,72.2c0-1.2,0.2-2.2,0.6-3c0.4-0.8,0.9-1.5,1.5-2c0.6-0.5,1.3-0.9,2-1.1s1.5-0.3,2.2-0.3
	c0.8,0,1.5,0.1,2.2,0.3c0.7,0.2,1.4,0.6,2,1.1c0.6,0.5,1.1,1.2,1.5,2c0.4,0.8,0.6,1.8,0.6,3c0,1.2-0.2,2.2-0.6,3
	c-0.4,0.8-0.9,1.5-1.5,2c-0.6,0.5-1.3,0.9-2,1.1c-0.7,0.2-1.5,0.3-2.2,0.3c-0.7,0-1.5-0.1-2.2-0.3s-1.4-0.6-2-1.1
	c-0.6-0.5-1.1-1.2-1.5-2C88.5,74.4,88.4,73.4,88.4,72.2z M90.6,72.2c0,0.7,0.1,1.4,0.2,2.1c0.1,0.7,0.3,1.3,0.7,1.8
	c0.3,0.5,0.7,0.9,1.2,1.3c0.5,0.3,1.2,0.5,1.9,0.5c0.8,0,1.4-0.2,1.9-0.5c0.5-0.3,0.9-0.7,1.2-1.3c0.3-0.5,0.5-1.1,0.7-1.8
	c0.1-0.7,0.2-1.4,0.2-2.1c0-0.7-0.1-1.4-0.2-2.1c-0.1-0.7-0.3-1.3-0.7-1.8c-0.3-0.5-0.7-0.9-1.2-1.3c-0.5-0.3-1.2-0.5-1.9-0.5
	c-0.8,0-1.4,0.2-1.9,0.5c-0.5,0.3-0.9,0.7-1.2,1.3c-0.3,0.5-0.5,1.1-0.7,1.8C90.7,70.8,90.6,71.5,90.6,72.2z M111.5,68.1
	c-0.5-0.7-1.2-1-2.1-1c-1.2,0-2.1,0.4-2.6,1.1c-0.6,0.7-0.8,1.8-0.8,3.1v2.2c0,0.8,0,1.6,0,2.4c0,0.9,0.1,1.6,0.2,2.3
	c-0.4,0-0.8-0.1-1.2-0.1c-0.4,0-0.8,0-1.2,0.1c0.1-0.7,0.1-1.5,0.2-2.3c0-0.9,0-1.7,0-2.4v-2.7c0-0.8,0-1.6,0-2.4
	c0-0.9-0.1-1.6-0.2-2.4c0.5,0.1,0.9,0.1,1.2,0.1c0.1,0,0.3,0,0.5,0c0.2,0,0.4-0.1,0.6-0.1c-0.1,0.7-0.1,1.4-0.1,2.1h0.1
	c0.5-0.7,1.1-1.3,1.7-1.7c0.7-0.4,1.5-0.6,2.4-0.6c0.5,0,1,0.1,1.5,0.2c0.5,0.1,0.9,0.4,1.3,0.7c0.4,0.3,0.7,0.8,1,1.4
	c0.2,0.6,0.4,1.3,0.4,2.2c0,0.7,0,1.5-0.1,2.3c0,0.8-0.1,1.6-0.1,2.5v1.7c0,0.3,0,0.5,0,0.8c0,0.3,0,0.5,0,0.8
	c-0.3,0-0.7-0.1-1.1-0.1c-0.4,0-0.7,0-1.1,0.1c0-0.9,0.1-1.8,0.1-2.8c0-0.9,0.1-1.9,0.1-2.9v-1.6C112.3,69.8,112,68.8,111.5,68.1z
	 M127.1,75.9c-0.1,0.3-0.3,0.6-0.6,0.9c-0.2,0.3-0.5,0.6-0.9,0.9c-0.4,0.3-0.8,0.5-1.3,0.7c-0.5,0.2-1,0.3-1.7,0.3
	c-0.7,0-1.3-0.1-1.9-0.3c-0.6-0.2-1.2-0.6-1.7-1.1c-0.5-0.5-0.9-1.2-1.2-2c-0.3-0.8-0.5-1.8-0.5-2.9c0-1.1,0.2-2.1,0.5-2.9
	c0.3-0.8,0.8-1.5,1.3-2c0.5-0.5,1.1-0.9,1.8-1.2c0.7-0.3,1.3-0.4,2-0.4c1.9,0,3.2,0.9,4,2.6h0.1v-2.5c0-0.7,0-1.3,0-2
	c0-0.7,0-1.3,0-1.9c0-0.6,0-1.2,0-1.7c0-0.5,0-1,0-1.4c0.2,0,0.4,0.1,0.6,0.1c0.2,0,0.4,0,0.6,0c0.2,0,0.4,0,0.6,0
	c0.2,0,0.4-0.1,0.6-0.1c-0.1,0.6-0.1,1.3-0.1,2.4c0,1-0.1,2.2-0.1,3.4c0,1.3,0,2.5-0.1,3.9c0,1.3,0,2.5,0,3.6c0,1.2,0,2.3,0,3.2
	c0,0.9,0,1.9,0.1,2.9c-0.3,0-0.7-0.1-1-0.1c-0.3,0-0.6,0-1,0.1L127.1,75.9L127.1,75.9z M119.7,72.5c0,1,0.1,1.9,0.3,2.6
	c0.2,0.7,0.5,1.2,0.8,1.6c0.3,0.4,0.7,0.7,1.1,0.8c0.4,0.2,0.9,0.2,1.3,0.2c0.7,0,1.2-0.2,1.7-0.5c0.5-0.3,0.9-0.8,1.2-1.3
	c0.3-0.5,0.6-1.2,0.7-1.8c0.1-0.7,0.2-1.4,0.2-2.1c0-1.7-0.3-2.9-1-3.8c-0.6-0.9-1.6-1.3-2.8-1.3c-0.6,0-1.2,0.1-1.6,0.4
	c-0.5,0.3-0.8,0.7-1.1,1.2c-0.3,0.5-0.5,1.1-0.7,1.8C119.8,71,119.7,71.7,119.7,72.5z M133.1,61.6c0-0.4,0.1-0.7,0.4-0.9
	c0.3-0.3,0.6-0.4,0.9-0.4c0.4,0,0.7,0.1,0.9,0.4c0.3,0.3,0.4,0.6,0.4,0.9s-0.1,0.7-0.4,0.9c-0.3,0.3-0.6,0.4-0.9,0.4
	c-0.4,0-0.7-0.1-0.9-0.4C133.3,62.2,133.1,61.9,133.1,61.6z M133.5,70.9c0-0.8,0-1.6,0-2.4c0-0.9-0.1-1.6-0.2-2.4
	c0.5,0.1,0.9,0.1,1.2,0.1c0.3,0,0.7,0,1.2-0.1c-0.1,0.7-0.1,1.5-0.2,2.4c0,0.9,0,1.7,0,2.4v2.7c0,0.8,0,1.6,0,2.4
	c0,0.9,0.1,1.6,0.2,2.3c-0.4,0-0.8-0.1-1.2-0.1c-0.4,0-0.8,0-1.2,0.1c0.1-0.7,0.1-1.5,0.2-2.3s0-1.7,0-2.4V70.9z M142.5,62.6
	c-0.1,0.7-0.1,1.3-0.1,1.9c0,0.6-0.1,1.3-0.1,1.9c0.2,0,0.5,0,1.1,0c0.5,0,1.1,0,1.7-0.1c0,0.1,0,0.1,0,0.3v0.3v0.3
	c0,0.1,0,0.2,0,0.3c-0.2,0-0.5,0-0.7,0c-0.2,0-0.5,0-0.8,0h-1.3c0,0.1,0,0.3-0.1,0.8c0,0.5,0,1.1-0.1,1.7c0,0.7,0,1.4,0,2.1
	c0,0.7,0,1.4,0,1.9c0,0.5,0,1,0,1.4c0,0.5,0.1,0.9,0.2,1.3c0.1,0.4,0.3,0.7,0.6,0.9c0.3,0.2,0.7,0.3,1.2,0.3c0.1,0,0.3,0,0.6-0.1
	c0.2,0,0.4-0.1,0.6-0.1v0.6c-0.3,0.1-0.6,0.1-1,0.2c-0.4,0.1-0.7,0.1-1,0.1c-1.1,0-1.9-0.3-2.4-0.8c-0.5-0.5-0.8-1.3-0.8-2.3
	c0-0.5,0-1,0-1.5c0-0.5,0-1.1,0.1-1.8c0-0.6,0-1.4,0.1-2.1c0-0.8,0-1.7,0-2.6h-0.8c-0.1,0-0.3,0-0.4,0c-0.2,0-0.3,0-0.5,0
	c0-0.1,0-0.2,0-0.3c0-0.1,0-0.2,0-0.3c0-0.1,0-0.2,0-0.3c0-0.1,0-0.2,0-0.3c0.8,0.1,1.3,0.1,1.7,0.1c0-0.3,0-0.8,0-1.3
	c0-0.5,0-1-0.1-1.6l2.1-0.9H142.5z M147.7,61.6c0-0.4,0.1-0.7,0.4-0.9c0.3-0.3,0.6-0.4,0.9-0.4s0.7,0.1,0.9,0.4
	c0.3,0.3,0.4,0.6,0.4,0.9s-0.1,0.7-0.4,0.9c-0.3,0.3-0.6,0.4-0.9,0.4s-0.7-0.1-0.9-0.4C147.9,62.2,147.7,61.9,147.7,61.6z
	 M148.1,70.9c0-0.8,0-1.6,0-2.4c0-0.9-0.1-1.6-0.2-2.4c0.5,0.1,0.9,0.1,1.2,0.1c0.3,0,0.7,0,1.2-0.1c-0.1,0.7-0.1,1.5-0.2,2.4
	c0,0.9,0,1.7,0,2.4v2.7c0,0.8,0,1.6,0,2.4c0,0.9,0.1,1.6,0.2,2.3c-0.4,0-0.8-0.1-1.2-0.1c-0.4,0-0.8,0-1.2,0.1
	c0.1-0.7,0.1-1.5,0.2-2.3s0-1.7,0-2.4V70.9z M152.9,72.2c0-1.2,0.2-2.2,0.6-3c0.4-0.8,0.9-1.5,1.5-2c0.6-0.5,1.3-0.9,2-1.1
	c0.7-0.2,1.5-0.3,2.2-0.3c0.8,0,1.5,0.1,2.2,0.3c0.7,0.2,1.4,0.6,2,1.1c0.6,0.5,1.1,1.2,1.5,2c0.4,0.8,0.6,1.8,0.6,3
	c0,1.2-0.2,2.2-0.6,3c-0.4,0.8-0.9,1.5-1.5,2c-0.6,0.5-1.3,0.9-2,1.1c-0.7,0.2-1.5,0.3-2.2,0.3c-0.7,0-1.5-0.1-2.2-0.3
	c-0.7-0.2-1.4-0.6-2-1.1c-0.6-0.5-1.1-1.2-1.5-2C153.1,74.4,152.9,73.4,152.9,72.2z M155.2,72.2c0,0.7,0.1,1.4,0.2,2.1
	c0.1,0.7,0.3,1.3,0.7,1.8c0.3,0.5,0.7,0.9,1.2,1.3c0.5,0.3,1.2,0.5,1.9,0.5c0.8,0,1.4-0.2,1.9-0.5c0.5-0.3,0.9-0.7,1.2-1.3
	c0.3-0.5,0.5-1.1,0.7-1.8c0.1-0.7,0.2-1.4,0.2-2.1c0-0.7-0.1-1.4-0.2-2.1c-0.1-0.7-0.3-1.3-0.7-1.8c-0.3-0.5-0.7-0.9-1.2-1.3
	c-0.5-0.3-1.2-0.5-1.9-0.5c-0.8,0-1.4,0.2-1.9,0.5c-0.5,0.3-0.9,0.7-1.2,1.3c-0.3,0.5-0.5,1.1-0.7,1.8
	C155.2,70.8,155.2,71.5,155.2,72.2z M176.1,68.1c-0.5-0.7-1.2-1-2.1-1c-1.2,0-2.1,0.4-2.6,1.1c-0.6,0.7-0.8,1.8-0.8,3.1v2.2
	c0,0.8,0,1.6,0,2.4c0,0.9,0.1,1.6,0.2,2.3c-0.4,0-0.8-0.1-1.2-0.1c-0.4,0-0.8,0-1.2,0.1c0.1-0.7,0.1-1.5,0.2-2.3c0-0.9,0-1.7,0-2.4
	v-2.7c0-0.8,0-1.6,0-2.4c0-0.9-0.1-1.6-0.2-2.4c0.5,0.1,0.9,0.1,1.2,0.1c0.1,0,0.3,0,0.5,0c0.2,0,0.4-0.1,0.6-0.1
	c-0.1,0.7-0.1,1.4-0.1,2.1h0.1c0.5-0.7,1.1-1.3,1.7-1.7c0.7-0.4,1.5-0.6,2.4-0.6c0.5,0,1,0.1,1.5,0.2c0.5,0.1,0.9,0.4,1.3,0.7
	c0.4,0.3,0.7,0.8,1,1.4c0.2,0.6,0.4,1.3,0.4,2.2c0,0.7,0,1.5-0.1,2.3c0,0.8-0.1,1.6-0.1,2.5v1.7c0,0.3,0,0.5,0,0.8
	c0,0.3,0,0.5,0,0.8c-0.3,0-0.7-0.1-1.1-0.1c-0.4,0-0.7,0-1.1,0.1c0-0.9,0.1-1.8,0.1-2.8c0-0.9,0.1-1.9,0.1-2.9v-1.6
	C176.8,69.8,176.6,68.8,176.1,68.1z M183.2,61.6c0-0.4,0.1-0.7,0.4-0.9c0.3-0.3,0.6-0.4,0.9-0.4c0.4,0,0.7,0.1,0.9,0.4
	c0.3,0.3,0.4,0.6,0.4,0.9s-0.1,0.7-0.4,0.9c-0.3,0.3-0.6,0.4-0.9,0.4c-0.4,0-0.7-0.1-0.9-0.4C183.3,62.2,183.2,61.9,183.2,61.6z
	 M183.6,70.9c0-0.8,0-1.6,0-2.4c0-0.9-0.1-1.6-0.2-2.4c0.5,0.1,0.9,0.1,1.2,0.1c0.3,0,0.7,0,1.2-0.1c-0.1,0.7-0.1,1.5-0.2,2.4
	c0,0.9,0,1.7,0,2.4v2.7c0,0.8,0,1.6,0,2.4c0,0.9,0.1,1.6,0.2,2.3c-0.4,0-0.8-0.1-1.2-0.1c-0.4,0-0.8,0-1.2,0.1
	c0.1-0.7,0.1-1.5,0.2-2.3c0-0.9,0-1.7,0-2.4V70.9z M197.9,68.1c-0.5-0.7-1.2-1-2.1-1c-1.2,0-2.1,0.4-2.6,1.1
	c-0.6,0.7-0.8,1.8-0.8,3.1v2.2c0,0.8,0,1.6,0,2.4s0.1,1.6,0.2,2.3c-0.4,0-0.8-0.1-1.2-0.1c-0.4,0-0.8,0-1.2,0.1
	c0.1-0.7,0.1-1.5,0.2-2.3c0-0.9,0-1.7,0-2.4v-2.7c0-0.8,0-1.6,0-2.4c0-0.9-0.1-1.6-0.2-2.4c0.5,0.1,0.9,0.1,1.2,0.1
	c0.1,0,0.3,0,0.5,0c0.2,0,0.4-0.1,0.6-0.1c-0.1,0.7-0.1,1.4-0.1,2.1h0.1c0.5-0.7,1.1-1.3,1.7-1.7c0.7-0.4,1.5-0.6,2.4-0.6
	c0.5,0,1,0.1,1.5,0.2c0.5,0.1,0.9,0.4,1.3,0.7c0.4,0.3,0.7,0.8,1,1.4c0.2,0.6,0.4,1.3,0.4,2.2c0,0.7,0,1.5-0.1,2.3
	c0,0.8-0.1,1.6-0.1,2.5v1.7c0,0.3,0,0.5,0,0.8c0,0.3,0,0.5,0,0.8c-0.3,0-0.7-0.1-1.1-0.1c-0.4,0-0.7,0-1.1,0.1
	c0-0.9,0.1-1.8,0.1-2.8c0-0.9,0.1-1.9,0.1-2.9v-1.6C198.6,69.8,198.4,68.8,197.9,68.1z M203.5,70c0-0.7,0.1-1.3,0.4-1.9
	c0.3-0.5,0.6-1,1.1-1.3c0.5-0.3,1-0.6,1.6-0.8c0.6-0.2,1.2-0.3,1.9-0.3c0.3,0,0.6,0,0.9,0c0.3,0,0.7,0,1.1,0.1
	c0.4,0,0.7,0.1,1.1,0.1c0.3,0,0.6,0,0.7,0c1,0,1.7,0,2.1-0.1c0,0.1,0,0.2,0,0.3c0,0.1,0,0.2,0,0.3c0,0.1,0,0.2,0,0.3
	c0,0.1,0,0.2,0,0.3c-0.5,0-1-0.1-1.5-0.1c-0.5,0-0.9-0.1-1.4-0.1l-0.1,0.1c0.5,0.3,1,0.7,1.3,1.4c0.3,0.6,0.5,1.2,0.5,1.9
	c0,1.3-0.4,2.3-1.3,3c-0.9,0.7-2,1.1-3.5,1.1c-0.2,0-0.5,0-0.7,0c-0.2,0-0.5,0-0.7,0c-0.3,0-0.6,0.1-0.9,0.3
	c-0.3,0.2-0.4,0.5-0.4,0.9c0,0.4,0.1,0.8,0.3,1c0.2,0.2,0.6,0.3,1.2,0.3c0.5,0,1,0,1.4,0c0.5,0,0.9,0,1.4,0c0.8,0,1.5,0.1,2,0.3
	c0.6,0.2,1,0.4,1.4,0.7c0.4,0.3,0.6,0.6,0.8,1c0.2,0.4,0.2,0.8,0.2,1.2c0,0.6-0.1,1.2-0.3,1.8c-0.2,0.6-0.6,1.2-1.1,1.7
	c-0.5,0.5-1.1,0.9-1.9,1.2c-0.8,0.3-1.7,0.5-2.8,0.5c-1.7,0-3-0.3-3.9-1c-1-0.7-1.4-1.6-1.4-2.7c0-0.4,0.1-0.9,0.2-1.2
	c0.2-0.4,0.4-0.7,0.6-1c0.3-0.3,0.6-0.5,0.9-0.7c0.3-0.2,0.7-0.3,1-0.4v-0.1c-0.5-0.2-0.9-0.4-1.2-0.8c-0.3-0.4-0.4-0.8-0.4-1.3
	c0-0.3,0.1-0.6,0.2-0.8c0.1-0.2,0.3-0.5,0.4-0.6c0.2-0.2,0.4-0.3,0.6-0.5c0.2-0.1,0.4-0.2,0.6-0.2v-0.1c-0.8-0.3-1.4-0.8-1.9-1.5
	C203.7,71.7,203.5,71,203.5,70z M212.6,81.1c0-1-0.3-1.8-0.9-2.2c-0.6-0.4-1.6-0.6-3-0.6c-1.3,0-2.3,0.2-3,0.6
	c-0.7,0.4-1.1,1.2-1.1,2.3c0,0.6,0.1,1.1,0.3,1.5c0.2,0.4,0.5,0.7,0.8,1c0.3,0.3,0.7,0.4,1.2,0.6c0.5,0.1,1,0.2,1.5,0.2
	c0.5,0,1-0.1,1.5-0.2c0.5-0.1,0.9-0.3,1.3-0.6c0.4-0.3,0.7-0.6,0.9-1C212.5,82.1,212.6,81.6,212.6,81.1z M211.2,69.9
	c0-1.1-0.3-1.9-0.8-2.5c-0.5-0.6-1.2-0.9-2-0.9c-0.9,0-1.7,0.3-2.2,0.9c-0.5,0.6-0.8,1.5-0.8,2.5c0,1.1,0.2,1.9,0.7,2.6
	c0.5,0.6,1.2,0.9,2.2,0.9c0.5,0,0.9-0.1,1.3-0.3c0.4-0.2,0.6-0.5,0.9-0.8c0.2-0.3,0.4-0.7,0.5-1.2C211.2,70.8,211.2,70.4,211.2,69.9
	z M225.1,70c0-0.7,0.1-1.3,0.4-1.9c0.3-0.5,0.6-1,1.1-1.3c0.5-0.3,1-0.6,1.6-0.8c0.6-0.2,1.2-0.3,1.9-0.3c0.3,0,0.6,0,0.9,0
	c0.3,0,0.7,0,1.1,0.1c0.4,0,0.7,0.1,1.1,0.1c0.3,0,0.6,0,0.7,0c1,0,1.7,0,2.1-0.1c0,0.1,0,0.2,0,0.3c0,0.1,0,0.2,0,0.3
	c0,0.1,0,0.2,0,0.3c0,0.1,0,0.2,0,0.3c-0.5,0-1-0.1-1.5-0.1c-0.5,0-0.9-0.1-1.4-0.1l-0.1,0.1c0.5,0.3,1,0.7,1.3,1.4
	c0.3,0.6,0.5,1.2,0.5,1.9c0,1.3-0.4,2.3-1.3,3c-0.9,0.7-2,1.1-3.5,1.1c-0.2,0-0.5,0-0.7,0c-0.2,0-0.5,0-0.7,0
	c-0.3,0-0.6,0.1-0.9,0.3c-0.3,0.2-0.4,0.5-0.4,0.9c0,0.4,0.1,0.8,0.3,1c0.2,0.2,0.6,0.3,1.2,0.3c0.5,0,1,0,1.4,0c0.5,0,0.9,0,1.4,0
	c0.8,0,1.5,0.1,2,0.3c0.6,0.2,1,0.4,1.4,0.7c0.4,0.3,0.6,0.6,0.8,1c0.2,0.4,0.2,0.8,0.2,1.2c0,0.6-0.1,1.2-0.3,1.8
	c-0.2,0.6-0.6,1.2-1.1,1.7c-0.5,0.5-1.1,0.9-1.9,1.2c-0.8,0.3-1.7,0.5-2.8,0.5c-1.7,0-3-0.3-3.9-1c-1-0.7-1.4-1.6-1.4-2.7
	c0-0.4,0.1-0.9,0.2-1.2c0.2-0.4,0.4-0.7,0.6-1c0.3-0.3,0.6-0.5,0.9-0.7c0.3-0.2,0.7-0.3,1-0.4v-0.1c-0.5-0.2-0.9-0.4-1.2-0.8
	c-0.3-0.4-0.4-0.8-0.4-1.3c0-0.3,0.1-0.6,0.2-0.8c0.1-0.2,0.3-0.5,0.4-0.6c0.2-0.2,0.4-0.3,0.6-0.5c0.2-0.1,0.4-0.2,0.6-0.2v-0.1
	c-0.8-0.3-1.4-0.8-1.9-1.5C225.3,71.7,225.1,71,225.1,70z M234.3,81.1c0-1-0.3-1.8-0.9-2.2c-0.6-0.4-1.6-0.6-3-0.6
	c-1.3,0-2.3,0.2-3,0.6c-0.7,0.4-1.1,1.2-1.1,2.3c0,0.6,0.1,1.1,0.3,1.5c0.2,0.4,0.5,0.7,0.8,1c0.3,0.3,0.7,0.4,1.2,0.6
	c0.5,0.1,1,0.2,1.5,0.2c0.5,0,1-0.1,1.5-0.2c0.5-0.1,0.9-0.3,1.3-0.6c0.4-0.3,0.7-0.6,0.9-1C234.1,82.1,234.3,81.6,234.3,81.1z
	 M232.9,69.9c0-1.1-0.3-1.9-0.8-2.5c-0.5-0.6-1.2-0.9-2-0.9c-0.9,0-1.7,0.3-2.2,0.9c-0.5,0.6-0.8,1.5-0.8,2.5c0,1.1,0.2,1.9,0.7,2.6
	c0.5,0.6,1.2,0.9,2.2,0.9c0.5,0,0.9-0.1,1.3-0.3c0.4-0.2,0.6-0.5,0.9-0.8c0.2-0.3,0.4-0.7,0.5-1.2C232.8,70.8,232.9,70.4,232.9,69.9
	z M242.6,78.3c-0.2-0.5-0.4-1.1-0.7-1.8c-0.3-0.7-0.6-1.5-1-2.3c-0.3-0.8-0.7-1.7-1.1-2.5c-0.4-0.9-0.7-1.7-1-2.4
	c-0.3-0.7-0.6-1.4-0.8-2c-0.2-0.6-0.4-1-0.5-1.3c0.2,0,0.4,0.1,0.6,0.1c0.2,0,0.4,0,0.6,0c0.2,0,0.4,0,0.6,0c0.2,0,0.4-0.1,0.6-0.1
	c0.5,1.7,1.1,3.3,1.8,4.9c0.7,1.6,1.3,3.3,2.1,5c0.7-1.5,1.4-3.1,2.1-4.9c0.7-1.7,1.3-3.4,1.8-5.1c0.3,0.1,0.6,0.1,0.9,0.1
	c0.2,0,0.5,0,0.9-0.1c-0.1,0.2-0.3,0.6-0.6,1.2c-0.3,0.6-0.6,1.3-1,2.1c-0.4,0.8-0.8,1.7-1.2,2.7c-0.4,1-0.9,2-1.3,3
	c-0.5,1-0.9,2-1.4,3c-0.4,1-0.9,2-1.2,2.9c-0.4,0.9-0.7,1.7-1,2.5c-0.3,0.7-0.5,1.3-0.6,1.7c-0.3-0.1-0.6-0.1-0.9-0.1
	c-0.2,0-0.5,0-0.9,0.1C240.5,82.8,241.6,80.6,242.6,78.3z M251.8,68.5c0-0.9-0.1-1.6-0.2-2.4c0.5,0.1,0.9,0.1,1.2,0.1
	c0.1,0,0.3,0,0.5,0c0.2,0,0.4-0.1,0.6-0.1c-0.1,0.7-0.1,1.4-0.1,2.1h0.1c0.9-1.5,2.2-2.3,3.8-2.3c0.4,0,0.9,0.1,1.3,0.2
	c0.4,0.1,0.8,0.3,1.1,0.5c0.3,0.2,0.6,0.5,0.9,0.8c0.2,0.3,0.4,0.7,0.5,1h0.1c0.4-0.8,1-1.5,1.7-1.9c0.7-0.4,1.5-0.7,2.5-0.7
	c0.6,0,1.1,0.1,1.6,0.2c0.5,0.2,0.9,0.4,1.3,0.7c0.4,0.3,0.6,0.7,0.8,1.3c0.2,0.5,0.3,1.1,0.3,1.9c0,0.3,0,0.6,0,1
	c0,0.3,0,0.7-0.1,1.2c0,0.5,0,1-0.1,1.5c0,0.6,0,1.2,0,2c0,0.5,0,0.9,0,1.3c0,0.4,0,0.9,0.1,1.4c-0.2,0-0.4-0.1-0.6-0.1
	c-0.2,0-0.4,0-0.5,0c-0.2,0-0.4,0-0.6,0c-0.2,0-0.4,0-0.6,0.1c0.1-0.4,0.1-1.3,0.2-2.6c0.1-1.3,0.1-3.1,0.1-5.5c0-0.4,0-0.8-0.1-1.2
	c-0.1-0.4-0.2-0.7-0.5-1c-0.2-0.3-0.5-0.5-0.8-0.7c-0.3-0.2-0.8-0.2-1.3-0.2c-0.6,0-1.1,0.1-1.6,0.4c-0.4,0.2-0.8,0.5-1,0.9
	c-0.1,0.2-0.2,0.4-0.3,0.6c-0.1,0.2-0.1,0.5-0.2,0.9c0,0.4-0.1,0.9-0.1,1.6c0,0.7,0,1.7,0,2.9c0,0.7,0,1.4,0,2c0,0.6,0.1,1.3,0.1,2
	c-0.4,0-0.8-0.1-1.1-0.1c-0.4,0-0.7,0-1.1,0.1c0.1-0.9,0.1-1.9,0.2-2.9c0-1,0.1-1.9,0.1-2.9c0-0.8,0-1.4,0-1.9c0-0.5,0-0.8-0.1-1.1
	c0-0.3-0.1-0.5-0.1-0.7c-0.1-0.2-0.1-0.4-0.2-0.6c-0.2-0.3-0.5-0.6-0.9-0.8c-0.4-0.2-0.8-0.3-1.3-0.3c-1.1,0-2,0.4-2.5,1.1
	c-0.5,0.7-0.8,1.8-0.8,3.1v2.2c0,0.8,0,1.6,0,2.4c0,0.9,0.1,1.6,0.2,2.3c-0.4,0-0.8-0.1-1.2-0.1c-0.4,0-0.8,0-1.2,0.1
	c0.1-0.7,0.1-1.5,0.2-2.3c0-0.9,0-1.7,0-2.4v-2.7C251.9,70.1,251.9,69.3,251.8,68.5z M75.7,36.7c0-2,0-4-0.1-6
	c-0.1-2-0.2-3.9-0.3-5.9c0.8,0.1,1.7,0.1,2.5,0.2c0.9,0,1.7,0.1,2.5,0.1c0.8,0,1.7,0,2.5-0.1c0.9-0.1,1.7-0.1,2.5-0.1
	c1.4,0,2.7,0.1,3.9,0.3c1.2,0.2,2.3,0.6,3.2,1.1c0.9,0.5,1.7,1.2,2.2,2c0.5,0.9,0.8,1.9,0.8,3.2c0,2.3-0.7,4-2.2,5.3
	c-1.5,1.3-3.4,2.2-5.8,2.7v0.1c2.8,0.1,5.1,0.8,6.7,2c1.6,1.2,2.5,3.1,2.5,5.7c0,1.7-0.4,3.1-1.1,4.3c-0.7,1.2-1.7,2.1-2.9,2.8
	c-1.2,0.7-2.5,1.2-3.9,1.5c-1.4,0.3-2.8,0.4-4.2,0.4c-0.8,0-1.5,0-2.3,0c-0.8,0-1.5,0-2.3,0c-0.8,0-1.5,0-2.3,0
	c-0.8,0-1.5,0-2.3,0.1c0.1-2,0.2-3.9,0.3-5.8c0.1-1.9,0.1-3.9,0.1-5.9V36.7z M82.1,38.9c1.1,0,2.2-0.1,3.3-0.3
	c1.1-0.2,2.1-0.6,2.9-1.1c0.9-0.5,1.5-1.2,2.1-2c0.5-0.8,0.8-1.9,0.8-3.2c0-1.3-0.2-2.3-0.7-3c-0.5-0.7-1.1-1.3-1.8-1.7
	c-0.7-0.4-1.6-0.7-2.5-0.8c-0.9-0.1-1.8-0.2-2.8-0.2c-0.8,0-1.5,0-2.1,0.1c-0.6,0-1.1,0.1-1.5,0.2c-0.1,1.5-0.1,2.9-0.2,4.4
	c-0.1,1.4-0.1,2.9-0.1,4.4v3.4H82.1z M79.6,45.3c0,1.6,0,3.1,0.1,4.6c0.1,1.5,0.1,3.1,0.2,4.6c0.6,0.1,1.3,0.1,2.1,0.2
	c0.8,0,1.7,0.1,2.5,0.1c1,0,2-0.2,2.9-0.5c0.9-0.3,1.8-0.8,2.5-1.5c0.7-0.7,1.3-1.5,1.7-2.4c0.4-1,0.6-2.1,0.6-3.3
	c0-1.3-0.2-2.4-0.7-3.2c-0.5-0.8-1.2-1.5-2.1-2c-0.9-0.5-2-0.8-3.3-1c-1.3-0.2-2.7-0.3-4.3-0.3h-2.1V45.3z M107.8,30.8
	c-0.1-1.9-0.2-3.9-0.3-5.9c0.4,0.1,0.8,0.1,1.2,0.2c0.4,0,0.8,0.1,1.1,0.1c0.4,0,0.8,0,1.1-0.1c0.4,0,0.8-0.1,1.2-0.2
	c-0.1,2-0.2,4-0.3,5.9c-0.1,1.9-0.1,3.9-0.1,5.9c0,3.9,0,7.2,0,10c0,2.8,0.1,5.4,0.1,7.6c2.3,0,4.4,0,6.5-0.1c2.1,0,4.3-0.2,6.7-0.5
	c-0.2,0.6-0.2,1-0.2,1.4c0,0.3,0.1,0.7,0.2,1.2c-1.5-0.1-2.9-0.1-4.4-0.1c-1.5,0-2.9,0-4.4,0c-1.5,0-3,0-4.4,0c-1.4,0-2.9,0-4.4,0.1
	c0.1-1.9,0.2-3.8,0.3-5.8c0.1-2,0.1-3.9,0.1-6v-7.9C107.9,34.7,107.9,32.7,107.8,30.8z M134.8,30.7c-0.1-2-0.2-3.9-0.3-5.9
	c1.4,0.1,2.9,0.1,4.3,0.2c1.4,0,2.8,0.1,4.3,0.1c1.4,0,2.8,0,4.2-0.1c1.4,0,2.8-0.1,4.2-0.2c-0.1,0.5-0.1,0.9-0.1,1.4
	c0,0.5,0,0.9,0.1,1.4c-1-0.1-1.9-0.1-2.8-0.2c-0.8-0.1-1.7-0.1-2.7-0.2c-0.9-0.1-2-0.1-3.1-0.2c-1.1,0-2.4-0.1-4-0.1
	c0,1-0.1,1.9-0.1,2.8c0,0.9-0.1,1.9-0.1,3c0,1.2,0,2.4,0,3.5c0,1.1,0,2,0,2.6c1.4,0,2.7,0,3.8,0c1.1,0,2.1-0.1,3.1-0.1
	c0.9,0,1.8-0.1,2.5-0.1c0.8,0,1.5-0.1,2.2-0.2c-0.1,0.5-0.1,0.9-0.1,1.4c0,0.5,0,0.9,0.1,1.4c-0.8-0.1-1.8-0.2-2.9-0.2
	c-1.1-0.1-2.2-0.1-3.3-0.1c-1.1,0-2.1,0-3.1,0c-1,0-1.7,0-2.3,0c0,0.3,0,0.6,0,0.9c0,0.3,0,0.7,0,1.2v1.8v2.8c0,1.7,0,3.2,0,4.3
	c0,1.1,0,2,0.1,2.6c1,0,2.2,0,3.3,0c1.2,0,2.4,0,3.6-0.1c1.2,0,2.3-0.1,3.3-0.2c1-0.1,1.9-0.2,2.7-0.3c-0.1,0.2-0.1,0.5-0.1,0.7
	c0,0.3,0,0.5,0,0.7c0,0.5,0,0.9,0.1,1.2c-1.4-0.1-2.9-0.1-4.3-0.1c-1.4,0-2.9,0-4.3,0c-1.5,0-2.9,0-4.3,0c-1.4,0-2.9,0-4.3,0.1
	c0.1-2,0.2-3.9,0.3-5.8c0.1-1.9,0.1-3.9,0.1-5.9v-7.9C134.9,34.6,134.9,32.6,134.8,30.7z M163.6,52c0.4,0.6,1,1.1,1.6,1.5
	c0.6,0.5,1.3,0.8,2.2,1.1c0.8,0.3,1.7,0.4,2.8,0.4c1,0,2-0.2,2.8-0.5c0.8-0.4,1.6-0.8,2.1-1.4c0.6-0.6,1-1.3,1.4-2.1
	c0.3-0.8,0.5-1.7,0.5-2.6c0-1.4-0.4-2.5-1.1-3.3c-0.7-0.8-1.7-1.5-2.8-2.1c-1.1-0.6-2.3-1.1-3.6-1.5c-1.3-0.5-2.5-1-3.6-1.7
	c-1.1-0.7-2-1.6-2.8-2.6c-0.7-1.1-1.1-2.5-1.1-4.3c0-1.3,0.2-2.5,0.7-3.5c0.5-1.1,1.2-2,2.1-2.7c0.9-0.8,2-1.4,3.3-1.8
	c1.3-0.4,2.7-0.6,4.3-0.6c1.5,0,2.8,0.2,4,0.5c1.1,0.4,2.1,0.9,3.1,1.6c-0.3,0.5-0.5,1.1-0.7,1.7c-0.2,0.6-0.4,1.3-0.6,2.2h-0.6
	c-0.2-0.4-0.4-0.9-0.6-1.4c-0.3-0.5-0.6-1-1.1-1.4c-0.5-0.4-1-0.8-1.6-1.1c-0.6-0.3-1.4-0.4-2.3-0.4c-0.9,0-1.7,0.1-2.5,0.4
	c-0.7,0.3-1.4,0.7-2,1.2c-0.6,0.5-1,1.1-1.3,1.8c-0.3,0.7-0.5,1.5-0.5,2.3c0,1.4,0.4,2.6,1.1,3.4c0.7,0.8,1.7,1.5,2.8,2.1
	c1.1,0.6,2.3,1.1,3.6,1.5c1.3,0.4,2.5,1,3.6,1.6c1.1,0.6,2,1.5,2.8,2.5c0.7,1,1.1,2.4,1.1,4c0,1.4-0.3,2.7-0.8,4
	c-0.5,1.3-1.3,2.3-2.3,3.3c-1,0.9-2.2,1.7-3.7,2.2c-1.4,0.5-3.1,0.8-4.9,0.8c-2,0-3.6-0.3-4.8-0.8c-1.2-0.5-2.2-1.1-3.1-1.7
	c0.3-0.7,0.5-1.3,0.6-1.9c0.1-0.6,0.2-1.3,0.3-2.2h0.6C162.9,50.9,163.2,51.5,163.6,52z M190.6,52c0.4,0.6,1,1.1,1.6,1.5
	c0.6,0.5,1.3,0.8,2.2,1.1c0.8,0.3,1.7,0.4,2.8,0.4c1,0,2-0.2,2.8-0.5c0.8-0.4,1.6-0.8,2.1-1.4c0.6-0.6,1-1.3,1.4-2.1
	c0.3-0.8,0.5-1.7,0.5-2.6c0-1.4-0.4-2.5-1.1-3.3c-0.7-0.8-1.7-1.5-2.8-2.1c-1.1-0.6-2.3-1.1-3.6-1.5c-1.3-0.5-2.5-1-3.6-1.7
	c-1.1-0.7-2-1.6-2.8-2.6c-0.7-1.1-1.1-2.5-1.1-4.3c0-1.3,0.2-2.5,0.7-3.5c0.5-1.1,1.2-2,2.1-2.7c0.9-0.8,2-1.4,3.3-1.8
	c1.3-0.4,2.7-0.6,4.3-0.6c1.5,0,2.8,0.2,4,0.5c1.1,0.4,2.1,0.9,3.1,1.6c-0.3,0.5-0.5,1.1-0.7,1.7c-0.2,0.6-0.4,1.3-0.6,2.2h-0.6
	c-0.2-0.4-0.4-0.9-0.6-1.4c-0.3-0.5-0.6-1-1.1-1.4c-0.5-0.4-1-0.8-1.6-1.1c-0.6-0.3-1.4-0.4-2.3-0.4c-0.9,0-1.7,0.1-2.5,0.4
	c-0.7,0.3-1.4,0.7-2,1.2c-0.6,0.5-1,1.1-1.3,1.8c-0.3,0.7-0.5,1.5-0.5,2.3c0,1.4,0.4,2.6,1.1,3.4c0.7,0.8,1.7,1.5,2.8,2.1
	c1.1,0.6,2.3,1.1,3.6,1.5c1.3,0.4,2.5,1,3.6,1.6c1.1,0.6,2,1.5,2.8,2.5c0.7,1,1.1,2.4,1.1,4c0,1.4-0.3,2.7-0.8,4
	c-0.5,1.3-1.3,2.3-2.3,3.3c-1,0.9-2.2,1.7-3.7,2.2c-1.4,0.5-3.1,0.8-4.9,0.8c-2,0-3.6-0.3-4.8-0.8c-1.2-0.5-2.2-1.1-3.1-1.7
	c0.3-0.7,0.5-1.3,0.6-1.9c0.1-0.6,0.2-1.3,0.3-2.2h0.6C189.8,50.9,190.1,51.5,190.6,52z M216.4,30.7c-0.1-2-0.2-3.9-0.3-5.9
	c1.4,0.1,2.9,0.1,4.3,0.2c1.4,0,2.8,0.1,4.3,0.1c1.4,0,2.8,0,4.2-0.1c1.4,0,2.8-0.1,4.2-0.2c-0.1,0.5-0.1,0.9-0.1,1.4
	c0,0.5,0,0.9,0.1,1.4c-1-0.1-1.9-0.1-2.8-0.2c-0.8-0.1-1.7-0.1-2.7-0.2c-0.9-0.1-2-0.1-3.1-0.2c-1.1,0-2.4-0.1-4-0.1
	c0,1-0.1,1.9-0.1,2.8c0,0.9-0.1,1.9-0.1,3c0,1.2,0,2.4,0,3.5c0,1.1,0,2,0,2.6c1.4,0,2.7,0,3.8,0c1.1,0,2.1-0.1,3.1-0.1
	c0.9,0,1.8-0.1,2.5-0.1c0.8,0,1.5-0.1,2.2-0.2c-0.1,0.5-0.1,0.9-0.1,1.4c0,0.5,0,0.9,0.1,1.4c-0.8-0.1-1.8-0.2-2.9-0.2
	c-1.1-0.1-2.2-0.1-3.3-0.1c-1.1,0-2.1,0-3.1,0c-1,0-1.7,0-2.3,0c0,0.3,0,0.6,0,0.9c0,0.3,0,0.7,0,1.2v1.8v2.8c0,1.7,0,3.2,0,4.3
	c0,1.1,0,2,0.1,2.6c1,0,2.2,0,3.3,0c1.2,0,2.4,0,3.6-0.1c1.2,0,2.3-0.1,3.3-0.2c1-0.1,1.9-0.2,2.7-0.3c-0.1,0.2-0.1,0.5-0.1,0.7
	c0,0.3,0,0.5,0,0.7c0,0.5,0,0.9,0.1,1.2c-1.4-0.1-2.9-0.1-4.3-0.1c-1.4,0-2.9,0-4.3,0c-1.5,0-2.9,0-4.3,0c-1.4,0-2.9,0-4.3,0.1
	c0.1-2,0.2-3.9,0.3-5.8c0.1-1.9,0.1-3.9,0.1-5.9v-7.9C216.5,34.6,216.5,32.6,216.4,30.7z M242.8,36.7c0-2,0-4-0.1-5.9
	c-0.1-1.9-0.2-3.9-0.3-5.9c1.2,0.1,2.4,0.1,3.6,0.2c1.2,0,2.4,0.1,3.6,0.1c1.2,0,2.4,0,3.6-0.1c1.2-0.1,2.4-0.1,3.6-0.1
	c2.8,0,5.2,0.4,7.2,1.1c2,0.7,3.6,1.7,4.9,3c1.3,1.3,2.2,2.9,2.8,4.8c0.6,1.9,0.9,4,0.9,6.4c0,3.1-0.5,5.6-1.6,7.7
	c-1.1,2.1-2.5,3.8-4.2,5.1c-1.7,1.3-3.6,2.2-5.6,2.7c-2,0.5-4,0.8-5.9,0.8c-1.1,0-2.1,0-3.2,0c-1,0-2.1,0-3.2,0c-1.1,0-2.1,0-3.2,0
	c-1,0-2.1,0-3.2,0.1c0.1-1.9,0.2-3.8,0.3-5.8c0.1-2,0.1-3.9,0.1-6V36.7z M246.7,44.6c0,3.3,0.1,6.5,0.3,9.7c0.7,0.2,1.6,0.3,2.7,0.3
	c1.1,0.1,2.3,0.1,3.5,0.1c1.7,0,3.5-0.2,5.2-0.6c1.7-0.4,3.3-1.1,4.7-2.2c1.4-1.1,2.5-2.6,3.4-4.5c0.9-1.9,1.3-4.4,1.3-7.4
	c0-2.7-0.3-4.8-1-6.6c-0.7-1.7-1.6-3.1-2.8-4.1c-1.2-1-2.6-1.7-4.3-2.1c-1.7-0.4-3.5-0.6-5.4-0.6c-1.4,0-2.8,0-4,0.1
	c-1.2,0.1-2.4,0.2-3.3,0.3c-0.1,1.5-0.2,3-0.2,4.6c0,1.6-0.1,3.2-0.1,4.9V44.6z"/>
</svg>
