<svg xmlns="http://www.w3.org/2000/svg" viewBox="0 0 500 500"><defs><style>.a{fill:#fff;}</style></defs><path class="a" d="M136.854,32.177h15.752c7.255,0,13.157,6.6,13.157,14.722V85.106h16.592V46.9A34.877,34.877,0,0,0,171.43,21.142h36.933a378.081,378.081,0,0,1,68.22,6.144l.082.014C291.889,29.926,305.86,38.6,316,51.732A78.353,78.353,0,0,1,331.89,99.5a81,81,0,0,1-3.385,23.271q.924.763,1.836,1.545A97.218,97.218,0,0,1,341.758,135.9a100.824,100.824,0,0,0,6.724-36.4c0-22-7.077-43.282-19.926-59.912-12.709-16.449-30.223-27.326-49.32-30.632a393.051,393.051,0,0,0-70.873-6.382H136.854c-4.582,0-8.3,4.155-8.3,9.282V22.9C128.558,28.021,132.272,32.177,136.854,32.177Z"/><path class="a" d="M351.329,163.232a95.981,95.981,0,0,0-24.772-33.387c-15.975-13.7-35.4-23.3-59.379-29.368-22.94-5.8-50.749-8.564-84.823-8.409H165.763V209.019h8.3c48.274,0,94.495-9.586,126.8-26.3a82.522,82.522,0,0,0,24.045-18.909A68.816,68.816,0,0,0,313.245,150.6a65.883,65.883,0,0,1-19.336,15.262c-28.387,14.682-68.67,23.479-111.554,24.488v-79.72c32.833-.162,59.439,2.457,81.165,7.952,21.6,5.462,38.913,13.965,52.954,26A77.638,77.638,0,0,1,336.516,171.6,85.284,85.284,0,0,1,344,206.909a84.4,84.4,0,0,1-15.934,49.765c-10.144,13.787-24.277,23.358-39.8,26.951-32.814,7.619-79.262,8.241-116.958,8.144A34.858,34.858,0,0,0,182.355,265.9V215.884q-4.137.093-8.3.1h-8.3V265.9c0,8.118-5.9,14.722-13.157,14.722H136.774c-4.582,0-8.3,4.156-8.3,9.283v11.035c0,5.127,3.714,9.283,8.3,9.283h5.058c4.843,0,10.1.027,15.673.056,6.393.033,13.153.069,20.17.069,37.216,0,81.451-.994,113.952-8.54,19.215-4.446,36.7-16.284,49.245-33.331,12.715-17.281,19.717-39.145,19.717-61.564A105.5,105.5,0,0,0,351.329,163.232Z"/><path class="a" d="M19.572,374.316q0-7.492-.284-14.757t-.625-14.529q2.95.228,6.017.4t6.016.17q2.95,0,6.016-.284t6.016-.283a54.637,54.637,0,0,1,9.194.737,23.187,23.187,0,0,1,7.606,2.611,14.257,14.257,0,0,1,5.221,5.051,15.083,15.083,0,0,1,1.93,7.946q0,8.4-5.278,13.168a30.045,30.045,0,0,1-13.792,6.7v.227q10.1.454,15.948,4.881T69.4,400.537a20.274,20.274,0,0,1-2.611,10.67,21.078,21.078,0,0,1-6.81,6.981,28.039,28.039,0,0,1-9.251,3.746,47.947,47.947,0,0,1-10.046,1.078q-2.724,0-5.506-.114t-5.505-.113h-5.5q-2.783,0-5.506.227.342-7.263.625-14.473t.284-14.7Zm15.437,5.561a39.561,39.561,0,0,0,7.889-.794,21.4,21.4,0,0,0,6.981-2.668,14.5,14.5,0,0,0,4.938-4.994,15.123,15.123,0,0,0,1.873-7.889,14.144,14.144,0,0,0-1.7-7.435,12.4,12.4,0,0,0-4.313-4.314,16.593,16.593,0,0,0-5.9-2.043,42.966,42.966,0,0,0-6.584-.511q-2.952,0-4.994.171t-3.632.4q-.229,5.448-.454,10.784t-.227,10.783v8.513ZM28.88,395.656q0,5.788.227,11.464t.454,11.465q2.154.228,5.108.4t6.016.171a19.811,19.811,0,0,0,6.981-1.249,16.524,16.524,0,0,0,5.846-3.689,17.782,17.782,0,0,0,3.972-6.016,21.127,21.127,0,0,0,1.476-8.116,16.19,16.19,0,0,0-1.759-8,12.34,12.34,0,0,0-5.052-4.881,24.181,24.181,0,0,0-7.889-2.44,70.349,70.349,0,0,0-10.272-.681H28.88Z"/><path class="a" d="M93.4,359.729q-.285-7.206-.624-14.7,1.473.228,2.837.4a21.917,21.917,0,0,0,5.449,0q1.362-.171,2.838-.4-.34,7.491-.624,14.7t-.284,14.7q0,14.3.113,24.8t.227,18.786q8.06,0,15.438-.17a146.073,146.073,0,0,0,15.892-1.305,13.13,13.13,0,0,0-.568,3.405,10.555,10.555,0,0,0,.568,3.065q-5.223-.228-10.444-.227H103.274q-5.053,0-10.5.227.341-7.038.624-14.3t.284-14.756V374.429Q93.682,366.938,93.4,359.729Z"/><path class="a" d="M155.441,359.559q-.285-7.263-.625-14.529,5.109.228,10.16.4t10.159.17q5.108,0,10.1-.17t10.1-.4a17.171,17.171,0,0,0,0,6.81q-3.635-.226-6.64-.454t-6.357-.454q-3.349-.226-7.321-.4t-9.535-.17q-.115,3.633-.284,6.924t-.17,7.492q0,4.427.056,8.626t.057,6.357q4.994,0,8.967-.113t7.265-.284q3.291-.171,6.073-.341t5.278-.4a17.91,17.91,0,0,0-.34,3.519,17.322,17.322,0,0,0,.34,3.4q-2.952-.34-6.867-.567t-7.832-.284q-3.916-.057-7.379-.114t-5.505-.057q0,1.022-.057,2.214t-.056,3.008v11.238q0,6.469.056,10.67t.17,6.356h7.946q4.313,0,8.457-.17t7.832-.454a50.766,50.766,0,0,0,6.414-.851,8.008,8.008,0,0,0-.284,1.759q-.058.966-.057,1.76a10.522,10.522,0,0,0,.341,2.951q-5.109-.228-10.16-.227h-20.6q-5.107,0-10.33.227.342-7.263.625-14.473t.283-14.7V374.316Q155.724,366.824,155.441,359.559Z"/><path class="a" d="M222.01,412.4a18.732,18.732,0,0,0,3.746,3.8,19,19,0,0,0,11.749,3.86,16.791,16.791,0,0,0,6.754-1.306,15.058,15.058,0,0,0,8.343-8.74,18.051,18.051,0,0,0,1.135-6.414,12.189,12.189,0,0,0-2.668-8.286,22.046,22.046,0,0,0-6.64-5.108,77.95,77.95,0,0,0-8.57-3.746,44.147,44.147,0,0,1-8.57-4.256,22.707,22.707,0,0,1-6.641-6.528q-2.668-3.971-2.667-10.669a21.554,21.554,0,0,1,1.7-8.684,18.943,18.943,0,0,1,4.938-6.754,23.342,23.342,0,0,1,7.776-4.427,30.794,30.794,0,0,1,10.216-1.589,30.335,30.335,0,0,1,9.421,1.305,23.5,23.5,0,0,1,7.378,4.03,24.643,24.643,0,0,0-1.7,4.086q-.681,2.158-1.362,5.449h-1.362a29.25,29.25,0,0,0-1.533-3.462,13.265,13.265,0,0,0-2.611-3.462,14.638,14.638,0,0,0-3.916-2.668,12.625,12.625,0,0,0-5.448-1.078,16.209,16.209,0,0,0-5.846,1.021,14,14,0,0,0-4.654,2.9,12.781,12.781,0,0,0-3.065,4.484,14.7,14.7,0,0,0-1.078,5.675q0,5.337,2.667,8.4a22.773,22.773,0,0,0,6.641,5.165,65.362,65.362,0,0,0,8.57,3.745,48.287,48.287,0,0,1,8.57,4.03,21.911,21.911,0,0,1,6.64,6.13q2.665,3.745,2.668,9.989a26.209,26.209,0,0,1-1.873,9.875,23.246,23.246,0,0,1-5.449,8.117,24.253,24.253,0,0,1-8.74,5.335,34.345,34.345,0,0,1-11.748,1.873,29.3,29.3,0,0,1-11.408-1.873,31.1,31.1,0,0,1-7.322-4.257,26.866,26.866,0,0,0,1.419-4.711q.4-2.1.738-5.392h1.362A22.724,22.724,0,0,0,222.01,412.4Z"/><path class="a" d="M289.15,412.4a18.68,18.68,0,0,0,3.746,3.8,19,19,0,0,0,11.748,3.86,16.791,16.791,0,0,0,6.754-1.306,15.058,15.058,0,0,0,8.343-8.74,18.029,18.029,0,0,0,1.135-6.414,12.193,12.193,0,0,0-2.667-8.286,22.063,22.063,0,0,0-6.641-5.108,77.866,77.866,0,0,0-8.57-3.746,44.147,44.147,0,0,1-8.57-4.256,22.692,22.692,0,0,1-6.64-6.528q-2.668-3.971-2.668-10.669a21.555,21.555,0,0,1,1.7-8.684,18.919,18.919,0,0,1,4.938-6.754,23.337,23.337,0,0,1,7.775-4.427,30.8,30.8,0,0,1,10.216-1.589,30.346,30.346,0,0,1,9.422,1.305,23.5,23.5,0,0,1,7.378,4.03,24.561,24.561,0,0,0-1.7,4.086q-.681,2.158-1.362,5.449h-1.362a29.25,29.25,0,0,0-1.533-3.462,13.261,13.261,0,0,0-2.61-3.462,14.67,14.67,0,0,0-3.916-2.668,12.63,12.63,0,0,0-5.449-1.078,16.209,16.209,0,0,0-5.846,1.021,14,14,0,0,0-4.654,2.9,12.779,12.779,0,0,0-3.064,4.484,14.683,14.683,0,0,0-1.079,5.675q0,5.337,2.668,8.4a22.768,22.768,0,0,0,6.64,5.165,65.362,65.362,0,0,0,8.57,3.745,48.254,48.254,0,0,1,8.57,4.03,21.914,21.914,0,0,1,6.641,6.13q2.665,3.745,2.667,9.989a26.189,26.189,0,0,1-1.873,9.875,23.23,23.23,0,0,1-5.448,8.117,24.257,24.257,0,0,1-8.741,5.335,34.345,34.345,0,0,1-11.748,1.873,29.3,29.3,0,0,1-11.408-1.873,31.1,31.1,0,0,1-7.322-4.257,26.781,26.781,0,0,0,1.419-4.711q.4-2.1.738-5.392h1.362A22.674,22.674,0,0,0,289.15,412.4Z"/><path class="a" d="M352.173,359.559q-.284-7.263-.624-14.529,5.108.228,10.159.4t10.16.17q5.108,0,10.1-.17t10.1-.4a17.171,17.171,0,0,0,0,6.81q-3.635-.226-6.641-.454t-6.356-.454q-3.35-.226-7.322-.4t-9.535-.17q-.114,3.633-.284,6.924t-.17,7.492q0,4.427.057,8.626t.056,6.357q5,0,8.968-.113t7.265-.284q3.291-.171,6.073-.341t5.278-.4a17.91,17.91,0,0,0-.341,3.519,17.324,17.324,0,0,0,.341,3.4q-2.953-.34-6.868-.567t-7.832-.284q-3.916-.057-7.378-.114t-5.506-.057q0,1.022-.056,2.214t-.057,3.008v11.238q0,6.469.057,10.67t.17,6.356h7.946q4.313,0,8.456-.17t7.833-.454a50.748,50.748,0,0,0,6.413-.851,8.128,8.128,0,0,0-.284,1.759c-.039.644-.056,1.231-.056,1.76a10.527,10.527,0,0,0,.34,2.951q-5.107-.228-10.159-.227h-20.6q-5.107,0-10.329.227.341-7.263.624-14.473t.284-14.7V374.316Q352.457,366.824,352.173,359.559Z"/><path class="a" d="M414.911,374.429q0-7.491-.284-14.7T414,345.03q4.313.228,8.57.4t8.57.17q4.313,0,8.57-.284t8.57-.283a49.635,49.635,0,0,1,17.084,2.61A29.838,29.838,0,0,1,477,355.075a29.231,29.231,0,0,1,6.64,11.805,54.561,54.561,0,0,1,2.1,15.722q0,11.352-3.916,19.126a36.53,36.53,0,0,1-9.989,12.544,37.324,37.324,0,0,1-13.395,6.754,53.532,53.532,0,0,1-14.018,1.986q-3.861,0-7.6-.114t-7.606-.113h-7.605q-3.746,0-7.605.227.341-7.038.624-14.3t.284-14.756Zm9.308,19.524q0,12.26.681,24.064a41.327,41.327,0,0,0,6.47.852q4.086.283,8.4.284a54.116,54.116,0,0,0,12.486-1.476,27.08,27.08,0,0,0,11.181-5.562,29.73,29.73,0,0,0,8.059-11.181q3.122-7.094,3.122-18.332,0-9.876-2.441-16.232a24.7,24.7,0,0,0-6.7-10.046,23.731,23.731,0,0,0-10.159-5.108,55.349,55.349,0,0,0-12.94-1.419q-5.109,0-9.535.341t-7.946.794q-.34,5.449-.511,11.408t-.17,12.089Z"/><path class="a" d="M20.22,467.484a16.1,16.1,0,0,1,1.352-6.881,13.7,13.7,0,0,1,8.54-7.526,19.1,19.1,0,0,1,5.775-.891,20.394,20.394,0,0,1,6.052.829,10.578,10.578,0,0,1,3.84,1.874,17.976,17.976,0,0,0-.768,1.936,21.131,21.131,0,0,0-.583,2.119h-.492a8.715,8.715,0,0,0-1.167-1.628,9.987,9.987,0,0,0-1.751-1.536,10.156,10.156,0,0,0-2.243-1.167,7.627,7.627,0,0,0-2.7-.461,10.4,10.4,0,0,0-4.762,1.014,8.782,8.782,0,0,0-3.256,2.8,12.122,12.122,0,0,0-1.844,4.209,22.447,22.447,0,0,0-.583,5.253q0,6.33,2.7,9.554t7.926,3.226a9.934,9.934,0,0,0,2.519-.338,14.249,14.249,0,0,0,2.519-.922,13.774,13.774,0,0,0,2.3-1.382,11.74,11.74,0,0,0,1.874-1.72l.307.184a18.208,18.208,0,0,0-.368,3.01,17.017,17.017,0,0,1-4.578,2.52A15.821,15.821,0,0,1,35.15,482.6a19.169,19.169,0,0,1-5.315-.768,12.974,12.974,0,0,1-4.823-2.58,13.2,13.2,0,0,1-3.471-4.7A16.922,16.922,0,0,1,20.22,467.484Z"/><path class="a" d="M50.817,467.484a17.143,17.143,0,0,1,1.321-7.1,13.176,13.176,0,0,1,3.472-4.731,13.722,13.722,0,0,1,4.823-2.642,17.549,17.549,0,0,1,10.66,0,13.782,13.782,0,0,1,4.792,2.642,13.188,13.188,0,0,1,3.472,4.731,19.722,19.722,0,0,1,0,14.193,13.17,13.17,0,0,1-3.472,4.731,12.634,12.634,0,0,1-4.792,2.55,19.642,19.642,0,0,1-10.66,0,12.6,12.6,0,0,1-4.823-2.55,13.159,13.159,0,0,1-3.472-4.731A17.138,17.138,0,0,1,50.817,467.484Zm5.407,0a26.314,26.314,0,0,0,.461,4.977,13.226,13.226,0,0,0,1.567,4.27,8.379,8.379,0,0,0,2.949,2.98,9.9,9.9,0,0,0,9.093,0,8.379,8.379,0,0,0,2.949-2.98,13.226,13.226,0,0,0,1.567-4.27,27.091,27.091,0,0,0,0-9.953,13.235,13.235,0,0,0-1.567-4.27,8.387,8.387,0,0,0-2.949-2.98,9.9,9.9,0,0,0-9.093,0,8.387,8.387,0,0,0-2.949,2.98,13.235,13.235,0,0,0-1.567,4.27A26.311,26.311,0,0,0,56.224,467.484Z"/><path class="a" d="M106.053,457.746a5.818,5.818,0,0,0-4.916-2.365q-4.3,0-6.3,2.642t-2,7.434v5.222q0,2.766.092,5.807t.4,5.5q-1.413-.123-2.764-.122t-2.765.122q.306-2.455.4-5.5t.092-5.807V464.29q0-2.766-.092-5.806t-.4-5.684a16.388,16.388,0,0,0,2.765.307,6.875,6.875,0,0,0,1.075-.092l1.382-.215q-.184,2.459-.184,4.915h.123a12.843,12.843,0,0,1,4.116-4.085,10.871,10.871,0,0,1,5.714-1.444,12.832,12.832,0,0,1,3.472.491,8.344,8.344,0,0,1,3.164,1.69,8.725,8.725,0,0,1,2.3,3.256,13.333,13.333,0,0,1,.891,5.253q0,2.643-.123,5.438t-.123,5.929v3.994q0,.982.031,1.935t.092,1.812q-1.23-.123-2.581-.122-1.29,0-2.519.122.123-3.193.277-6.574t.154-6.942V464.72Q107.835,460.112,106.053,457.746Z"/><path class="a" d="M143.04,476.148a15.142,15.142,0,0,1-1.321,2.119,10.712,10.712,0,0,1-2.089,2.12,10.574,10.574,0,0,1-2.98,1.6,11.875,11.875,0,0,1-3.993.615,13.558,13.558,0,0,1-4.578-.8,10.306,10.306,0,0,1-3.993-2.611,13.4,13.4,0,0,1-2.827-4.67,19.466,19.466,0,0,1-1.075-6.85,18.153,18.153,0,0,1,1.167-6.82,14.8,14.8,0,0,1,3.042-4.823,12.227,12.227,0,0,1,4.239-2.888,12.675,12.675,0,0,1,4.762-.952q6.819,0,9.462,6.144h.123v-6.021q0-2.336-.031-4.7t-.062-4.515q-.031-2.151-.061-4.056t-.092-3.379q.736.124,1.413.215a9.886,9.886,0,0,0,1.352.092,9.254,9.254,0,0,0,1.321-.092q.645-.091,1.444-.215-.185,1.968-.308,5.683t-.215,8.2q-.091,4.485-.153,9.216t-.062,8.663q0,4.239.062,7.619t.123,6.942q-1.23-.123-2.4-.122-1.106,0-2.334.122l.184-5.836Zm-17.449-8.111a20.244,20.244,0,0,0,.768,6.083,11.424,11.424,0,0,0,1.966,3.84,6.346,6.346,0,0,0,2.734,2,8.843,8.843,0,0,0,3.011.553,7.019,7.019,0,0,0,4.116-1.2,9.8,9.8,0,0,0,2.857-3.134,14.585,14.585,0,0,0,1.659-4.393,23.589,23.589,0,0,0,.522-4.915q0-5.9-2.273-9a7.778,7.778,0,0,0-6.7-3.1,7.112,7.112,0,0,0-3.84,1.014,8.149,8.149,0,0,0-2.7,2.826,14.021,14.021,0,0,0-1.6,4.24A24.655,24.655,0,0,0,125.591,468.037Z"/><path class="a" d="M157.479,442.109a3.146,3.146,0,1,1,.921,2.212A3.015,3.015,0,0,1,157.479,442.109Zm.86,22.181q0-2.766-.092-5.806t-.4-5.684a12.605,12.605,0,0,0,5.53,0q-.309,2.643-.4,5.684t-.093,5.806v6.389q0,2.766.093,5.807t.4,5.5q-1.415-.123-2.765-.122t-2.765.122q.307-2.455.4-5.5t.092-5.807Z"/><path class="a" d="M179.72,444.567q-.184,2.336-.276,4.577t-.215,4.516q.675,0,2.519-.03t3.993-.154a2.477,2.477,0,0,0-.061.676v1.29a2.149,2.149,0,0,0,.061.614q-.8-.06-1.658-.092t-1.844-.03h-3.01a19.647,19.647,0,0,0-.154,1.966q-.091,1.721-.154,4.086t-.092,4.945q-.032,2.582-.03,4.609,0,1.72.092,3.379a10.07,10.07,0,0,0,.584,2.98,4.81,4.81,0,0,0,1.474,2.119,4.38,4.38,0,0,0,2.826.8,9.346,9.346,0,0,0,1.321-.123,10.226,10.226,0,0,0,1.444-.307v1.475q-1.046.183-2.3.46a11.278,11.278,0,0,1-2.427.277q-3.87,0-5.714-1.9a7.73,7.73,0,0,1-1.843-5.591q0-1.659.062-3.594t.153-4.239q.093-2.305.154-5.1t.061-6.236h-1.966q-.492,0-1.044.03t-1.168.092c.04-.245.071-.481.092-.706s.031-.461.031-.707c0-.2-.011-.409-.031-.614s-.052-.409-.092-.614q2.765.183,4.055.184-.061-1.228-.092-3.072t-.153-3.81l5.1-2.15Z"/><path class="a" d="M192.254,442.109a3.148,3.148,0,1,1,.922,2.212A3.012,3.012,0,0,1,192.254,442.109Zm.86,22.181q0-2.766-.092-5.806t-.4-5.684a12.6,12.6,0,0,0,5.529,0q-.307,2.643-.4,5.684t-.092,5.806v6.389q0,2.766.092,5.807t.4,5.5q-1.413-.123-2.764-.122t-2.765.122q.306-2.455.4-5.5t.092-5.807Z"/><path class="a" d="M206.386,467.484a17.144,17.144,0,0,1,1.32-7.1,13.176,13.176,0,0,1,3.472-4.731A13.722,13.722,0,0,1,216,453.015a17.549,17.549,0,0,1,10.66,0,13.782,13.782,0,0,1,4.792,2.642,13.176,13.176,0,0,1,3.472,4.731,19.722,19.722,0,0,1,0,14.193,13.159,13.159,0,0,1-3.472,4.731,12.634,12.634,0,0,1-4.792,2.55,19.642,19.642,0,0,1-10.66,0,12.6,12.6,0,0,1-4.823-2.55,13.159,13.159,0,0,1-3.472-4.731A17.139,17.139,0,0,1,206.386,467.484Zm5.406,0a26.314,26.314,0,0,0,.461,4.977,13.25,13.25,0,0,0,1.567,4.27,8.379,8.379,0,0,0,2.949,2.98,9.9,9.9,0,0,0,9.093,0,8.39,8.39,0,0,0,2.95-2.98,13.249,13.249,0,0,0,1.566-4.27,27.091,27.091,0,0,0,0-9.953,13.257,13.257,0,0,0-1.566-4.27,8.4,8.4,0,0,0-2.95-2.98,9.9,9.9,0,0,0-9.093,0,8.387,8.387,0,0,0-2.949,2.98,13.258,13.258,0,0,0-1.567,4.27A26.311,26.311,0,0,0,211.792,467.484Z"/><path class="a" d="M261.621,457.746a5.816,5.816,0,0,0-4.915-2.365q-4.3,0-6.3,2.642t-2,7.434v5.222q0,2.766.092,5.807t.4,5.5q-1.414-.123-2.765-.122t-2.765.122q.306-2.455.4-5.5t.092-5.807V464.29q0-2.766-.092-5.806t-.4-5.684a16.388,16.388,0,0,0,2.765.307,6.875,6.875,0,0,0,1.075-.092l1.382-.215q-.183,2.459-.184,4.915h.123a12.843,12.843,0,0,1,4.116-4.085,10.874,10.874,0,0,1,5.714-1.444,12.832,12.832,0,0,1,3.472.491,8.344,8.344,0,0,1,3.164,1.69,8.725,8.725,0,0,1,2.3,3.256,13.333,13.333,0,0,1,.891,5.253q0,2.643-.123,5.438t-.123,5.929v3.994q0,.982.031,1.935t.092,1.812q-1.23-.123-2.58-.122-1.292,0-2.519.122.121-3.193.276-6.574t.154-6.942V464.72Q263.4,460.112,261.621,457.746Z"/><path class="a" d="M278.578,442.109a3.148,3.148,0,1,1,.922,2.212A3.016,3.016,0,0,1,278.578,442.109Zm.861,22.181q0-2.766-.093-5.806t-.4-5.684a12.605,12.605,0,0,0,5.53,0q-.309,2.643-.4,5.684t-.092,5.806v6.389q0,2.766.092,5.807t.4,5.5q-1.414-.123-2.765-.122t-2.765.122q.308-2.455.4-5.5t.093-5.807Z"/><path class="a" d="M313.477,457.746a5.816,5.816,0,0,0-4.915-2.365q-4.3,0-6.3,2.642t-2,7.434v5.222q0,2.766.092,5.807t.4,5.5q-1.415-.123-2.765-.122t-2.765.122q.306-2.455.4-5.5t.092-5.807V464.29q0-2.766-.092-5.806t-.4-5.684a16.388,16.388,0,0,0,2.765.307,6.875,6.875,0,0,0,1.075-.092l1.382-.215q-.183,2.459-.184,4.915h.123a12.843,12.843,0,0,1,4.116-4.085,10.874,10.874,0,0,1,5.714-1.444,12.832,12.832,0,0,1,3.472.491,8.344,8.344,0,0,1,3.164,1.69,8.725,8.725,0,0,1,2.3,3.256,13.333,13.333,0,0,1,.891,5.253q0,2.643-.123,5.438t-.123,5.929v3.994q0,.982.031,1.935t.092,1.812q-1.23-.123-2.58-.122-1.291,0-2.519.122.122-3.193.276-6.574t.154-6.942V464.72Q315.259,460.112,313.477,457.746Z"/><path class="a" d="M328.1,462.2a10,10,0,0,1,.921-4.455,8.57,8.57,0,0,1,2.55-3.1,11.453,11.453,0,0,1,3.748-1.843,16.168,16.168,0,0,1,4.516-.614q1.167,0,2.242.061t2.735.184q1.411.125,2.519.185t1.782.061a28.216,28.216,0,0,0,4.976-.307,6.031,6.031,0,0,0-.092.645q-.031.339-.031.645t.031.645a5.923,5.923,0,0,0,.092.645q-1.782-.121-3.471-.276t-3.349-.215l-.123.123a7.69,7.69,0,0,1,3.072,3.225,9.46,9.46,0,0,1,1.168,4.516,8.929,8.929,0,0,1-3.1,7.22,12.51,12.51,0,0,1-8.325,2.611q-.861,0-1.69-.061t-1.689-.062a3.146,3.146,0,0,0-2.059.8,2.531,2.531,0,0,0-.952,2.027,3.106,3.106,0,0,0,.768,2.335,4.349,4.349,0,0,0,2.857.8q1.719.062,3.379.092t3.379.092a17.952,17.952,0,0,1,4.824.676,9.38,9.38,0,0,1,3.256,1.659,6.427,6.427,0,0,1,1.843,2.4,7.361,7.361,0,0,1,.584,2.949,12.369,12.369,0,0,1-.83,4.363,11.338,11.338,0,0,1-2.58,3.993,13.734,13.734,0,0,1-4.516,2.95,17.04,17.04,0,0,1-6.636,1.167q-5.959,0-9.4-2.366a7.459,7.459,0,0,1-3.441-6.482,7.344,7.344,0,0,1,.584-2.949,8.962,8.962,0,0,1,1.5-2.4,7.316,7.316,0,0,1,2.089-1.659,10.678,10.678,0,0,1,2.4-.921v-.124a5.36,5.36,0,0,1-2.887-1.843,4.916,4.916,0,0,1-.983-3.072,4.456,4.456,0,0,1,.4-1.9,6.043,6.043,0,0,1,1.014-1.536,5.259,5.259,0,0,1,1.413-1.106,5,5,0,0,1,1.536-.553v-.123a10.334,10.334,0,0,1-4.424-3.472A9.443,9.443,0,0,1,328.1,462.2Zm21.811,26.3q0-3.685-2.15-5.161t-7.127-1.474a13.979,13.979,0,0,0-7.128,1.5q-2.52,1.5-2.519,5.437a8.192,8.192,0,0,0,.707,3.564,6.5,6.5,0,0,0,1.9,2.4,7.865,7.865,0,0,0,2.857,1.352,14.189,14.189,0,0,0,3.563.43,13.6,13.6,0,0,0,3.625-.491,10.059,10.059,0,0,0,3.165-1.475,7.721,7.721,0,0,0,2.242-2.488A7.138,7.138,0,0,0,349.911,488.5Zm-3.318-26.6a8.484,8.484,0,0,0-1.843-5.9,6.246,6.246,0,0,0-4.854-2.027,6.31,6.31,0,0,0-5.161,2.242,9.146,9.146,0,0,0-1.843,5.991,9.935,9.935,0,0,0,1.69,6.113,6.517,6.517,0,0,0,10.383-.369,8.51,8.51,0,0,0,1.229-2.765A13.259,13.259,0,0,0,346.593,461.894Z"/><path class="a" d="M376.515,462.2a9.99,9.99,0,0,1,.922-4.455,8.56,8.56,0,0,1,2.55-3.1,11.439,11.439,0,0,1,3.747-1.843,16.178,16.178,0,0,1,4.516-.614q1.167,0,2.243.061t2.734.184q1.413.125,2.519.185t1.782.061a28.237,28.237,0,0,0,4.977-.307,6.027,6.027,0,0,0-.093.645c-.021.226-.03.441-.03.645s.009.421.03.645a5.919,5.919,0,0,0,.093.645q-1.784-.121-3.472-.276t-3.348-.215l-.123.123a7.7,7.7,0,0,1,3.072,3.225,9.47,9.47,0,0,1,1.167,4.516,8.929,8.929,0,0,1-3.1,7.22,12.508,12.508,0,0,1-8.325,2.611c-.574,0-1.136-.02-1.689-.061s-1.117-.062-1.69-.062a3.144,3.144,0,0,0-2.058.8,2.529,2.529,0,0,0-.953,2.027,3.11,3.11,0,0,0,.768,2.335,4.349,4.349,0,0,0,2.857.8q1.72.062,3.38.092t3.379.092a17.944,17.944,0,0,1,4.823.676,9.371,9.371,0,0,1,3.256,1.659,6.43,6.43,0,0,1,1.844,2.4,7.377,7.377,0,0,1,.583,2.949,12.367,12.367,0,0,1-.829,4.363,11.341,11.341,0,0,1-2.581,3.993,13.713,13.713,0,0,1-4.516,2.95,17.038,17.038,0,0,1-6.635,1.167q-5.961,0-9.4-2.366a7.458,7.458,0,0,1-3.44-6.482,7.343,7.343,0,0,1,.583-2.949,8.94,8.94,0,0,1,1.506-2.4,7.289,7.289,0,0,1,2.089-1.659,10.66,10.66,0,0,1,2.4-.921v-.124a5.366,5.366,0,0,1-2.888-1.843,4.916,4.916,0,0,1-.983-3.072,4.471,4.471,0,0,1,.4-1.9,6.043,6.043,0,0,1,1.014-1.536A5.275,5.275,0,0,1,381,471.97a5.011,5.011,0,0,1,1.536-.553v-.123a10.331,10.331,0,0,1-4.423-3.472A9.436,9.436,0,0,1,376.515,462.2Zm21.812,26.3q0-3.685-2.151-5.161t-7.127-1.474a13.972,13.972,0,0,0-7.127,1.5q-2.52,1.5-2.519,5.437a8.192,8.192,0,0,0,.706,3.564,6.51,6.51,0,0,0,1.905,2.4,7.873,7.873,0,0,0,2.857,1.352,14.2,14.2,0,0,0,3.564.43,13.6,13.6,0,0,0,3.625-.491,10.064,10.064,0,0,0,3.164-1.475,7.735,7.735,0,0,0,2.243-2.488A7.138,7.138,0,0,0,398.327,488.5Zm-3.318-26.6a8.489,8.489,0,0,0-1.843-5.9,6.946,6.946,0,0,0-10.015.215,9.146,9.146,0,0,0-1.844,5.991,9.935,9.935,0,0,0,1.69,6.113,6.518,6.518,0,0,0,10.384-.369,8.487,8.487,0,0,0,1.228-2.765A13.259,13.259,0,0,0,395.009,461.894Z"/><path class="a" d="M418.111,482.046q-.676-1.659-1.751-4.3t-2.3-5.56q-1.23-2.917-2.519-5.96l-2.427-5.714q-1.139-2.673-2-4.7t-1.29-3.011q.8.124,1.474.215a9.98,9.98,0,0,0,2.7,0q.675-.091,1.474-.215,1.9,5.9,4.239,11.674t4.916,11.92q2.58-5.406,4.946-11.551t4.208-12.043a6.852,6.852,0,0,0,4.056,0q-.43.861-1.383,2.919t-2.273,4.915q-1.322,2.857-2.888,6.328t-3.195,7.127q-1.629,3.657-3.225,7.25t-2.949,6.82q-1.353,3.226-2.366,5.837t-1.5,4.147a7.261,7.261,0,0,0-4.178,0A124.755,124.755,0,0,0,418.111,482.046Z"/><path class="a" d="M440.2,458.484q-.093-3.042-.4-5.684a16.4,16.4,0,0,0,2.765.307,6.865,6.865,0,0,0,1.075-.092l1.383-.215q-.185,2.459-.184,4.915h.122q3.257-5.529,9.155-5.529a10.05,10.05,0,0,1,3.011.46,10.383,10.383,0,0,1,2.672,1.26,8.464,8.464,0,0,1,2.059,1.935,6.507,6.507,0,0,1,1.167,2.427h.123a10.831,10.831,0,0,1,4.024-4.516,10.982,10.982,0,0,1,5.868-1.566,12.186,12.186,0,0,1,3.748.553,7.573,7.573,0,0,1,4.946,4.731,12.391,12.391,0,0,1,.706,4.424q0,1.046-.061,2.273t-.123,2.857q-.062,1.627-.123,3.686t-.061,4.762q0,1.659.03,3.195t.154,3.317a7.537,7.537,0,0,0-1.352-.122h-2.642a7.517,7.517,0,0,0-1.351.122q.185-1.534.4-6.2t.215-13.025a11.89,11.89,0,0,0-.338-2.888,6.459,6.459,0,0,0-1.075-2.335,5.2,5.2,0,0,0-1.966-1.567,7.152,7.152,0,0,0-3.072-.583,7.57,7.57,0,0,0-3.748.86,7.422,7.422,0,0,0-2.4,2.027,6.458,6.458,0,0,0-.768,1.352,8.127,8.127,0,0,0-.431,2.058q-.153,1.383-.214,3.871t-.062,6.851q0,2.642.092,4.823t.215,4.761q-1.413-.123-2.7-.122t-2.7.122q.306-3.378.43-6.881t.122-6.881q0-2.887-.03-4.516a25.023,25.023,0,0,0-.154-2.581,7.95,7.95,0,0,0-.338-1.566,11.958,11.958,0,0,0-.583-1.352,5.586,5.586,0,0,0-2.12-2,5.911,5.911,0,0,0-2.98-.829q-4.054,0-5.96,2.642t-1.9,7.434v5.222q0,2.766.092,5.807t.4,5.5q-1.414-.123-2.765-.122t-2.765.122q.308-2.455.4-5.5t.092-5.807V464.29Q440.291,461.524,440.2,458.484Z"/></svg>